<?xml version="1.0" encoding="UTF-8"?>
<svg xmlns="http://www.w3.org/2000/svg" viewBox="0 0 720 1260" width="720" height="1260">
  <!-- Canvas Background -->
  <rect width="720" height="1260" fill="#ffffff" />

  <!-- Program Title -->
  <text x="16" y="25" font-family="Segoe UI, sans-serif" font-size="13" font-weight="bold" fill="#111827">P11_SealerVision  |  plc project_260626</text>

  <!-- Left Power Rail -->
  <line x1="16" y1="40" x2="16" y2="1230" stroke="#374151" stroke-width="3" />

  <!-- Rung Separator Lines -->
  <line x1="16" y1="110" x2="700" y2="110" stroke="#e5e7eb" stroke-width="1" />
  <line x1="16" y1="190" x2="700" y2="190" stroke="#e5e7eb" stroke-width="1" />
  <line x1="16" y1="270" x2="700" y2="270" stroke="#e5e7eb" stroke-width="1" />
  <line x1="16" y1="350" x2="700" y2="350" stroke="#e5e7eb" stroke-width="1" />
  <line x1="16" y1="430" x2="700" y2="430" stroke="#e5e7eb" stroke-width="1" />
  <line x1="16" y1="510" x2="700" y2="510" stroke="#e5e7eb" stroke-width="1" />
  <line x1="16" y1="590" x2="700" y2="590" stroke="#e5e7eb" stroke-width="1" />
  <line x1="16" y1="670" x2="700" y2="670" stroke="#e5e7eb" stroke-width="1" />
  <line x1="16" y1="750" x2="700" y2="750" stroke="#e5e7eb" stroke-width="1" />
  <line x1="16" y1="830" x2="700" y2="830" stroke="#e5e7eb" stroke-width="1" />
  <line x1="16" y1="910" x2="700" y2="910" stroke="#e5e7eb" stroke-width="1" />
  <line x1="16" y1="990" x2="700" y2="990" stroke="#e5e7eb" stroke-width="1" />
  <line x1="16" y1="1070" x2="700" y2="1070" stroke="#e5e7eb" stroke-width="1" />
  <line x1="16" y1="1150" x2="700" y2="1150" stroke="#e5e7eb" stroke-width="1" />
  <line x1="16" y1="1230" x2="700" y2="1230" stroke="#e5e7eb" stroke-width="1" />

  <!-- ================= RUNG 1 ================= -->
  <g>
    <text x="24" y="62" font-family="Consolas, 'Courier New', monospace" font-size="10" font-weight="normal" fill="#111827" text-anchor="start">R1  step 0</text>
    <!-- Wire from Rail to Contact 1 -->
    <line x1="16" y1="70" x2="196" y2="70" stroke="#374151" stroke-width="2" stroke-linecap="round" fill="none" />
    
    <!-- Contact 1: SM400 (NO) -->
    <g>
      <line x1="196" y1="70" x2="217" y2="70" stroke="#374151" stroke-width="2" stroke-linecap="round" fill="none" />
      <line x1="231" y1="70" x2="252" y2="70" stroke="#374151" stroke-width="2" stroke-linecap="round" fill="none" />
      <line x1="217" y1="61" x2="217" y2="79" stroke="#2563eb" stroke-width="2.5" stroke-linecap="round" />
      <line x1="231" y1="61" x2="231" y2="79" stroke="#2563eb" stroke-width="2.5" stroke-linecap="round" />
      <text x="224" y="54" font-family="Consolas, 'Courier New', monospace" font-size="10" font-weight="bold" fill="#111827" text-anchor="middle">SM400</text>
    </g>

    <!-- Wire Contact 1 to Contact 2 -->
    <line x1="252" y1="70" x2="258" y2="70" stroke="#374151" stroke-width="2" stroke-linecap="round" fill="none" />

    <!-- Contact 2: D200_F (NO) -->
    <g>
      <line x1="258" y1="70" x2="279" y2="70" stroke="#374151" stroke-width="2" stroke-linecap="round" fill="none" />
      <line x1="293" y1="70" x2="314" y2="70" stroke="#374151" stroke-width="2" stroke-linecap="round" fill="none" />
      <line x1="279" y1="61" x2="279" y2="79" stroke="#2563eb" stroke-width="2.5" stroke-linecap="round" />
      <line x1="293" y1="61" x2="293" y2="79" stroke="#2563eb" stroke-width="2.5" stroke-linecap="round" />
      <text x="286" y="54" font-family="Consolas, 'Courier New', monospace" font-size="10" font-weight="bold" fill="#111827" text-anchor="middle">D200_F</text>
    </g>

    <!-- Timer Output: T201 (5s) -->
    <g>
      <line x1="314" y1="70" x2="550" y2="70" stroke="#374151" stroke-width="2" stroke-linecap="round" fill="none" />
      <rect x="550" y="52" width="100" height="36" rx="4" ry="4" fill="#ffffff" stroke="#d97706" stroke-width="2" />
      <text x="600" y="66" font-family="Consolas, 'Courier New', monospace" font-size="10" font-weight="bold" fill="#111827" text-anchor="middle">T201</text>
      <text x="600" y="78" font-family="Consolas, 'Courier New', monospace" font-size="9" font-weight="bold" fill="#d97706" text-anchor="middle">T#5s</text>
    </g>
  </g>

  <!-- ================= RUNG 2 ================= -->
  <g>
    <text x="24" y="142" font-family="Consolas, 'Courier New', monospace" font-size="10" font-weight="normal" fill="#111827" text-anchor="start">R2  step 0</text>
    <line x1="16" y1="150" x2="196" y2="150" stroke="#374151" stroke-width="2" stroke-linecap="round" fill="none" />
    
    <!-- Contact 1: SM400 -->
    <g>
      <line x1="196" y1="150" x2="217" y2="150" stroke="#374151" stroke-width="2" stroke-linecap="round" fill="none" />
      <line x1="231" y1="150" x2="252" y2="150" stroke="#374151" stroke-width="2" stroke-linecap="round" fill="none" />
      <line x1="217" y1="141" x2="217" y2="159" stroke="#2563eb" stroke-width="2.5" stroke-linecap="round" />
      <line x1="231" y1="141" x2="231" y2="159" stroke="#2563eb" stroke-width="2.5" stroke-linecap="round" />
      <text x="224" y="134" font-family="Consolas, 'Courier New', monospace" font-size="10" font-weight="bold" fill="#111827" text-anchor="middle">SM400</text>
    </g>

    <line x1="252" y1="150" x2="258" y2="150" stroke="#374151" stroke-width="2" stroke-linecap="round" fill="none" />

    <!-- Contact 2: SM412 -->
    <g>
      <line x1="258" y1="150" x2="279" y2="150" stroke="#374151" stroke-width="2" stroke-linecap="round" fill="none" />
      <line x1="293" y1="150" x2="314" y2="150" stroke="#374151" stroke-width="2" stroke-linecap="round" fill="none" />
      <line x1="279" y1="141" x2="279" y2="159" stroke="#2563eb" stroke-width="2.5" stroke-linecap="round" />
      <line x1="293" y1="141" x2="293" y2="159" stroke="#2563eb" stroke-width="2.5" stroke-linecap="round" />
      <text x="286" y="134" font-family="Consolas, 'Courier New', monospace" font-size="10" font-weight="bold" fill="#111827" text-anchor="middle">SM412</text>
    </g>

    <!-- Coil: D210_F -->
    <g>
      <line x1="314" y1="150" x2="586" y2="150" stroke="#374151" stroke-width="2" stroke-linecap="round" fill="none" />
      <ellipse cx="620" cy="150" rx="34" ry="11" fill="#ffffff" stroke="#dc2626" stroke-width="2" />
      <text x="620" y="134" font-family="Consolas, 'Courier New', monospace" font-size="10" font-weight="bold" fill="#111827" text-anchor="middle">D210_F</text>
    </g>
  </g>

  <!-- ================= RUNG 3 ================= -->
  <g>
    <text x="24" y="222" font-family="Consolas, 'Courier New', monospace" font-size="10" font-weight="normal" fill="#111827" text-anchor="start">R3  step 10</text>
    <line x1="16" y1="230" x2="196" y2="230" stroke="#374151" stroke-width="2" stroke-linecap="round" fill="none" />
    
    <!-- Contact 1: SM400 -->
    <g>
      <line x1="196" y1="230" x2="217" y2="230" stroke="#374151" stroke-width="2" stroke-linecap="round" fill="none" />
      <line x1="231" y1="230" x2="252" y2="230" stroke="#374151" stroke-width="2" stroke-linecap="round" fill="none" />
      <line x1="217" y1="221" x2="217" y2="239" stroke="#2563eb" stroke-width="2.5" stroke-linecap="round" />
      <line x1="231" y1="221" x2="231" y2="239" stroke="#2563eb" stroke-width="2.5" stroke-linecap="round" />
      <text x="224" y="214" font-family="Consolas, 'Courier New', monospace" font-size="10" font-weight="bold" fill="#111827" text-anchor="middle">SM400</text>
    </g>

    <line x1="252" y1="230" x2="258" y2="230" stroke="#374151" stroke-width="2" stroke-linecap="round" fill="none" />

    <!-- Contact 2: X100B -->
    <g>
      <line x1="258" y1="230" x2="279" y2="230" stroke="#374151" stroke-width="2" stroke-linecap="round" fill="none" />
      <line x1="293" y1="230" x2="314" y2="230" stroke="#374151" stroke-width="2" stroke-linecap="round" fill="none" />
      <line x1="279" y1="221" x2="279" y2="239" stroke="#2563eb" stroke-width="2.5" stroke-linecap="round" />
      <line x1="293" y1="221" x2="293" y2="239" stroke="#2563eb" stroke-width="2.5" stroke-linecap="round" />
      <text x="286" y="214" font-family="Consolas, 'Courier New', monospace" font-size="10" font-weight="bold" fill="#111827" text-anchor="middle">X100B</text>
    </g>

    <!-- Coil: D210_8 -->
    <g>
      <line x1="314" y1="230" x2="586" y2="230" stroke="#374151" stroke-width="2" stroke-linecap="round" fill="none" />
      <ellipse cx="620" cy="230" rx="34" ry="11" fill="#ffffff" stroke="#dc2626" stroke-width="2" />
      <text x="620" y="214" font-family="Consolas, 'Courier New', monospace" font-size="10" font-weight="bold" fill="#111827" text-anchor="middle">D210_8</text>
    </g>
  </g>

  <!-- ================= RUNG 4 ================= -->
  <g>
    <text x="24" y="302" font-family="Consolas, 'Courier New', monospace" font-size="10" font-weight="normal" fill="#111827" text-anchor="start">R4  step 10</text>
    <line x1="16" y1="310" x2="196" y2="310" stroke="#374151" stroke-width="2" stroke-linecap="round" fill="none" />
    
    <!-- Contact 1: SM400 -->
    <g>
      <line x1="196" y1="310" x2="217" y2="310" stroke="#374151" stroke-width="2" stroke-linecap="round" fill="none" />
      <line x1="231" y1="310" x2="252" y2="310" stroke="#374151" stroke-width="2" stroke-linecap="round" fill="none" />
      <line x1="217" y1="301" x2="217" y2="319" stroke="#2563eb" stroke-width="2.5" stroke-linecap="round" />
      <line x1="231" y1="301" x2="231" y2="319" stroke="#2563eb" stroke-width="2.5" stroke-linecap="round" />
      <text x="224" y="294" font-family="Consolas, 'Courier New', monospace" font-size="10" font-weight="bold" fill="#111827" text-anchor="middle">SM400</text>
    </g>

    <line x1="252" y1="310" x2="258" y2="310" stroke="#374151" stroke-width="2" stroke-linecap="round" fill="none" />

    <!-- Contact 2: X100C -->
    <g>
      <line x1="258" y1="310" x2="279" y2="310" stroke="#374151" stroke-width="2" stroke-linecap="round" fill="none" />
      <line x1="293" y1="310" x2="314" y2="310" stroke="#374151" stroke-width="2" stroke-linecap="round" fill="none" />
      <line x1="279" y1="301" x2="279" y2="319" stroke="#2563eb" stroke-width="2.5" stroke-linecap="round" />
      <line x1="293" y1="301" x2="293" y2="319" stroke="#2563eb" stroke-width="2.5" stroke-linecap="round" />
      <text x="286" y="294" font-family="Consolas, 'Courier New', monospace" font-size="10" font-weight="bold" fill="#111827" text-anchor="middle">X100C</text>
    </g>

    <!-- Coil: D210_9 -->
    <g>
      <line x1="314" y1="310" x2="586" y2="310" stroke="#374151" stroke-width="2" stroke-linecap="round" fill="none" />
      <ellipse cx="620" cy="310" rx="34" ry="11" fill="#ffffff" stroke="#dc2626" stroke-width="2" />
      <text x="620" y="294" font-family="Consolas, 'Courier New', monospace" font-size="10" font-weight="bold" fill="#111827" text-anchor="middle">D210_9</text>
    </g>
  </g>

  <!-- ================= RUNG 5 ================= -->
  <g>
    <text x="24" y="382" font-family="Consolas, 'Courier New', monospace" font-size="10" font-weight="normal" fill="#111827" text-anchor="start">R5  step 10</text>
    <line x1="16" y1="390" x2="196" y2="390" stroke="#374151" stroke-width="2" stroke-linecap="round" fill="none" />
    
    <!-- Contact 1: SM400 -->
    <g>
      <line x1="196" y1="390" x2="217" y2="390" stroke="#374151" stroke-width="2" stroke-linecap="round" fill="none" />
      <line x1="231" y1="390" x2="252" y2="390" stroke="#374151" stroke-width="2" stroke-linecap="round" fill="none" />
      <line x1="217" y1="381" x2="217" y2="399" stroke="#2563eb" stroke-width="2.5" stroke-linecap="round" />
      <line x1="231" y1="381" x2="231" y2="399" stroke="#2563eb" stroke-width="2.5" stroke-linecap="round" />
      <text x="224" y="374" font-family="Consolas, 'Courier New', monospace" font-size="10" font-weight="bold" fill="#111827" text-anchor="middle">SM400</text>
    </g>

    <line x1="252" y1="390" x2="258" y2="390" stroke="#374151" stroke-width="2" stroke-linecap="round" fill="none" />

    <!-- Contact 2: X100D -->
    <g>
      <line x1="258" y1="390" x2="279" y2="390" stroke="#374151" stroke-width="2" stroke-linecap="round" fill="none" />
      <line x1="293" y1="390" x2="314" y2="390" stroke="#374151" stroke-width="2" stroke-linecap="round" fill="none" />
      <line x1="279" y1="381" x2="279" y2="399" stroke="#2563eb" stroke-width="2.5" stroke-linecap="round" />
      <line x1="293" y1="381" x2="293" y2="399" stroke="#2563eb" stroke-width="2.5" stroke-linecap="round" />
      <text x="286" y="374" font-family="Consolas, 'Courier New', monospace" font-size="10" font-weight="bold" fill="#111827" text-anchor="middle">X100D</text>
    </g>

    <!-- Coil: D210_A -->
    <g>
      <line x1="314" y1="390" x2="586" y2="390" stroke="#374151" stroke-width="2" stroke-linecap="round" fill="none" />
      <ellipse cx="620" cy="390" rx="34" ry="11" fill="#ffffff" stroke="#dc2626" stroke-width="2" />
      <text x="620" y="374" font-family="Consolas, 'Courier New', monospace" font-size="10" font-weight="bold" fill="#111827" text-anchor="middle">D210_A</text>
    </g>
  </g>

  <!-- ================= RUNG 6 ================= -->
  <g>
    <text x="24" y="462" font-family="Consolas, 'Courier New', monospace" font-size="10" font-weight="normal" fill="#111827" text-anchor="start">R6  step 10</text>
    <line x1="16" y1="470" x2="196" y2="470" stroke="#374151" stroke-width="2" stroke-linecap="round" fill="none" />
    
    <!-- Contact 1: SM400 -->
    <g>
      <line x1="196" y1="470" x2="217" y2="470" stroke="#374151" stroke-width="2" stroke-linecap="round" fill="none" />
      <line x1="231" y1="470" x2="252" y2="470" stroke="#374151" stroke-width="2" stroke-linecap="round" fill="none" />
      <line x1="217" y1="461" x2="217" y2="479" stroke="#2563eb" stroke-width="2.5" stroke-linecap="round" />
      <line x1="231" y1="461" x2="231" y2="479" stroke="#2563eb" stroke-width="2.5" stroke-linecap="round" />
      <text x="224" y="454" font-family="Consolas, 'Courier New', monospace" font-size="10" font-weight="bold" fill="#111827" text-anchor="middle">SM400</text>
    </g>

    <line x1="252" y1="470" x2="258" y2="470" stroke="#374151" stroke-width="2" stroke-linecap="round" fill="none" />

    <!-- Contact 2: X100E -->
    <g>
      <line x1="258" y1="470" x2="279" y2="470" stroke="#374151" stroke-width="2" stroke-linecap="round" fill="none" />
      <line x1="293" y1="470" x2="314" y2="470" stroke="#374151" stroke-width="2" stroke-linecap="round" fill="none" />
      <line x1="279" y1="461" x2="279" y2="479" stroke="#2563eb" stroke-width="2.5" stroke-linecap="round" />
      <line x1="293" y1="461" x2="293" y2="479" stroke="#2563eb" stroke-width="2.5" stroke-linecap="round" />
      <text x="286" y="454" font-family="Consolas, 'Courier New', monospace" font-size="10" font-weight="bold" fill="#111827" text-anchor="middle">X100E</text>
    </g>

    <!-- Coil: D210_B -->
    <g>
      <line x1="314" y1="470" x2="586" y2="470" stroke="#374151" stroke-width="2" stroke-linecap="round" fill="none" />
      <ellipse cx="620" cy="470" rx="34" ry="11" fill="#ffffff" stroke="#dc2626" stroke-width="2" />
      <text x="620" y="454" font-family="Consolas, 'Courier New', monospace" font-size="10" font-weight="bold" fill="#111827" text-anchor="middle">D210_B</text>
    </g>
  </g>

  <!-- ================= RUNG 7 ================= -->
  <g>
    <text x="24" y="542" font-family="Consolas, 'Courier New', monospace" font-size="10" font-weight="normal" fill="#111827" text-anchor="start">R7  step 27</text>
    <line x1="16" y1="550" x2="196" y2="550" stroke="#374151" stroke-width="2" stroke-linecap="round" fill="none" />
    
    <!-- Contact 1: X1009 -->
    <g>
      <line x1="196" y1="550" x2="217" y2="550" stroke="#374151" stroke-width="2" stroke-linecap="round" fill="none" />
      <line x1="231" y1="550" x2="252" y2="550" stroke="#374151" stroke-width="2" stroke-linecap="round" fill="none" />
      <line x1="217" y1="541" x2="217" y2="559" stroke="#2563eb" stroke-width="2.5" stroke-linecap="round" />
      <line x1="231" y1="541" x2="231" y2="559" stroke="#2563eb" stroke-width="2.5" stroke-linecap="round" />
      <text x="224" y="534" font-family="Consolas, 'Courier New', monospace" font-size="10" font-weight="bold" fill="#111827" text-anchor="middle">X1009</text>
    </g>

    <!-- Coil: D210_0 -->
    <g>
      <line x1="252" y1="550" x2="586" y2="550" stroke="#374151" stroke-width="2" stroke-linecap="round" fill="none" />
      <ellipse cx="620" cy="550" rx="34" ry="11" fill="#ffffff" stroke="#dc2626" stroke-width="2" />
      <text x="620" y="534" font-family="Consolas, 'Courier New', monospace" font-size="10" font-weight="bold" fill="#111827" text-anchor="middle">D210_0</text>
    </g>
  </g>

  <!-- ================= RUNG 8 ================= -->
  <g>
    <text x="24" y="612" font-family="Consolas, 'Courier New', monospace" font-size="10" font-weight="normal" fill="#111827" text-anchor="start">R8  step 29</text>
    <line x1="16" y1="630" x2="196" y2="630" stroke="#374151" stroke-width="2" stroke-linecap="round" fill="none" />
    
    <!-- Contact 1: X1009 -->
    <g>
      <line x1="196" y1="630" x2="217" y2="630" stroke="#374151" stroke-width="2" stroke-linecap="round" fill="none" />
      <line x1="231" y1="630" x2="252" y2="630" stroke="#374151" stroke-width="2" stroke-linecap="round" fill="none" />
      <line x1="217" y1="621" x2="217" y2="639" stroke="#2563eb" stroke-width="2.5" stroke-linecap="round" />
      <line x1="231" y1="621" x2="231" y2="639" stroke="#2563eb" stroke-width="2.5" stroke-linecap="round" />
      <text x="224" y="614" font-family="Consolas, 'Courier New', monospace" font-size="10" font-weight="bold" fill="#111827" text-anchor="middle">X1009</text>
    </g>

    <!-- Coil: D210_1 -->
    <g>
      <line x1="252" y1="630" x2="586" y2="630" stroke="#374151" stroke-width="2" stroke-linecap="round" fill="none" />
      <ellipse cx="620" cy="630" rx="34" ry="11" fill="#ffffff" stroke="#dc2626" stroke-width="2" />
      <text x="620" y="614" font-family="Consolas, 'Courier New', monospace" font-size="10" font-weight="bold" fill="#111827" text-anchor="middle">D210_1</text>
    </g>
  </g>

  <!-- ================= RUNG 9 ================= -->
  <g>
    <text x="24" y="692" font-family="Consolas, 'Courier New', monospace" font-size="10" font-weight="normal" fill="#111827" text-anchor="start">R9  step 31</text>
    <line x1="16" y1="710" x2="196" y2="710" stroke="#374151" stroke-width="2" stroke-linecap="round" fill="none" />
    
    <!-- Contact 1: X100A -->
    <g>
      <line x1="196" y1="710" x2="217" y2="710" stroke="#374151" stroke-width="2" stroke-linecap="round" fill="none" />
      <line x1="231" y1="710" x2="252" y2="710" stroke="#374151" stroke-width="2" stroke-linecap="round" fill="none" />
      <line x1="217" y1="701" x2="217" y2="719" stroke="#2563eb" stroke-width="2.5" stroke-linecap="round" />
      <line x1="231" y1="701" x2="231" y2="719" stroke="#2563eb" stroke-width="2.5" stroke-linecap="round" />
      <text x="224" y="694" font-family="Consolas, 'Courier New', monospace" font-size="10" font-weight="bold" fill="#111827" text-anchor="middle">X100A</text>
    </g>

    <!-- Coil: D210_2 -->
    <g>
      <line x1="252" y1="710" x2="586" y2="710" stroke="#374151" stroke-width="2" stroke-linecap="round" fill="none" />
      <ellipse cx="620" cy="710" rx="34" ry="11" fill="#ffffff" stroke="#dc2626" stroke-width="2" />
      <text x="620" y="694" font-family="Consolas, 'Courier New', monospace" font-size="10" font-weight="bold" fill="#111827" text-anchor="middle">D210_2</text>
    </g>
  </g>

  <!-- ================= RUNG 10 ================= -->
  <g>
    <text x="24" y="772" font-family="Consolas, 'Courier New', monospace" font-size="10" font-weight="normal" fill="#111827" text-anchor="start">R10  step 33</text>
    <line x1="16" y1="790" x2="196" y2="790" stroke="#374151" stroke-width="2" stroke-linecap="round" fill="none" />
    
    <!-- Contact 1: M60 -->
    <g>
      <line x1="196" y1="790" x2="217" y2="790" stroke="#374151" stroke-width="2" stroke-linecap="round" fill="none" />
      <line x1="231" y1="790" x2="252" y2="790" stroke="#374151" stroke-width="2" stroke-linecap="round" fill="none" />
      <line x1="217" y1="781" x2="217" y2="799" stroke="#2563eb" stroke-width="2.5" stroke-linecap="round" />
      <line x1="231" y1="781" x2="231" y2="799" stroke="#2563eb" stroke-width="2.5" stroke-linecap="round" />
      <text x="224" y="774" font-family="Consolas, 'Courier New', monospace" font-size="10" font-weight="bold" fill="#111827" text-anchor="middle">M60</text>
    </g>

    <!-- Coil: D210_E -->
    <g>
      <line x1="252" y1="790" x2="586" y2="790" stroke="#374151" stroke-width="2" stroke-linecap="round" fill="none" />
      <ellipse cx="620" cy="790" rx="34" ry="11" fill="#ffffff" stroke="#dc2626" stroke-width="2" />
      <text x="620" y="774" font-family="Consolas, 'Courier New', monospace" font-size="10" font-weight="bold" fill="#111827" text-anchor="middle">D210_E</text>
    </g>
  </g>

  <!-- ================= RUNG 11 ================= -->
  <g>
    <text x="24" y="852" font-family="Consolas, 'Courier New', monospace" font-size="10" font-weight="normal" fill="#111827" text-anchor="start">R11  step 35</text>
    <line x1="16" y1="870" x2="196" y2="870" stroke="#374151" stroke-width="2" stroke-linecap="round" fill="none" />
    
    <!-- Contact 1: M210 -->
    <g>
      <line x1="196" y1="870" x2="217" y2="870" stroke="#374151" stroke-width="2" stroke-linecap="round" fill="none" />
      <line x1="231" y1="870" x2="252" y2="870" stroke="#374151" stroke-width="2" stroke-linecap="round" fill="none" />
      <line x1="217" y1="861" x2="217" y2="879" stroke="#2563eb" stroke-width="2.5" stroke-linecap="round" />
      <line x1="231" y1="861" x2="231" y2="879" stroke="#2563eb" stroke-width="2.5" stroke-linecap="round" />
      <text x="224" y="854" font-family="Consolas, 'Courier New', monospace" font-size="10" font-weight="bold" fill="#111827" text-anchor="middle">M210</text>
    </g>

    <line x1="252" y1="870" x2="258" y2="870" stroke="#374151" stroke-width="2" stroke-linecap="round" fill="none" />

    <!-- Contact 2: M175 -->
    <g>
      <line x1="258" y1="870" x2="279" y2="870" stroke="#374151" stroke-width="2" stroke-linecap="round" fill="none" />
      <line x1="293" y1="870" x2="314" y2="870" stroke="#374151" stroke-width="2" stroke-linecap="round" fill="none" />
      <line x1="279" y1="861" x2="279" y2="879" stroke="#2563eb" stroke-width="2.5" stroke-linecap="round" />
      <line x1="293" y1="861" x2="293" y2="879" stroke="#2563eb" stroke-width="2.5" stroke-linecap="round" />
      <text x="286" y="854" font-family="Consolas, 'Courier New', monospace" font-size="10" font-weight="bold" fill="#111827" text-anchor="middle">M175</text>
    </g>

    <line x1="314" y1="870" x2="320" y2="870" stroke="#374151" stroke-width="2" stroke-linecap="round" fill="none" />

    <!-- Contact 3: M174 (NC) -->
    <g>
      <line x1="320" y1="870" x2="341" y2="870" stroke="#374151" stroke-width="2" stroke-linecap="round" fill="none" />
      <line x1="355" y1="870" x2="376" y2="870" stroke="#374151" stroke-width="2" stroke-linecap="round" fill="none" />
      <line x1="341" y1="861" x2="341" y2="879" stroke="#2563eb" stroke-width="2.5" stroke-linecap="round" />
      <line x1="355" y1="861" x2="355" y2="879" stroke="#2563eb" stroke-width="2.5" stroke-linecap="round" />
      <line x1="338" y1="879" x2="358" y2="861" stroke="#2563eb" stroke-width="2" stroke-linecap="round" />
      <text x="348" y="854" font-family="Consolas, 'Courier New', monospace" font-size="10" font-weight="bold" fill="#111827" text-anchor="middle">/M174</text>
    </g>

    <!-- Coil: D210_C -->
    <g>
      <line x1="376" y1="870" x2="586" y2="870" stroke="#374151" stroke-width="2" stroke-linecap="round" fill="none" />
      <ellipse cx="620" cy="870" rx="34" ry="11" fill="#ffffff" stroke="#dc2626" stroke-width="2" />
      <text x="620" y="854" font-family="Consolas, 'Courier New', monospace" font-size="10" font-weight="bold" fill="#111827" text-anchor="middle">D210_C</text>
    </g>
  </g>

  <!-- ================= RUNG 12 ================= -->
  <g>
    <text x="24" y="932" font-family="Consolas, 'Courier New', monospace" font-size="10" font-weight="normal" fill="#111827" text-anchor="start">R12  step 39</text>
    <line x1="16" y1="950" x2="196" y2="950" stroke="#374151" stroke-width="2" stroke-linecap="round" fill="none" />
    
    <!-- Contact 1: D200_0 -->
    <g>
      <line x1="196" y1="950" x2="217" y2="950" stroke="#374151" stroke-width="2" stroke-linecap="round" fill="none" />
      <line x1="231" y1="950" x2="252" y2="950" stroke="#374151" stroke-width="2" stroke-linecap="round" fill="none" />
      <line x1="217" y1="941" x2="217" y2="959" stroke="#2563eb" stroke-width="2.5" stroke-linecap="round" />
      <line x1="231" y1="941" x2="231" y2="959" stroke="#2563eb" stroke-width="2.5" stroke-linecap="round" />
      <text x="224" y="934" font-family="Consolas, 'Courier New', monospace" font-size="10" font-weight="bold" fill="#111827" text-anchor="middle">D200_0</text>
    </g>

    <!-- SET Coil: M5000 -->
    <g>
      <line x1="252" y1="950" x2="586" y2="950" stroke="#374151" stroke-width="2" stroke-linecap="round" fill="none" />
      <ellipse cx="620" cy="950" rx="34" ry="11" fill="#ffffff" stroke="#dc2626" stroke-width="2" />
      <text x="620" y="934" font-family="Consolas, 'Courier New', monospace" font-size="10" font-weight="bold" fill="#111827" text-anchor="middle">M5000</text>
      <text x="620" y="954" font-family="Consolas, 'Courier New', monospace" font-size="10" font-weight="bold" fill="#dc2626" text-anchor="middle">S</text>
    </g>
  </g>

  <!-- ================= RUNG 13 ================= -->
  <g>
    <text x="24" y="1012" font-family="Consolas, 'Courier New', monospace" font-size="10" font-weight="normal" fill="#111827" text-anchor="start">R13  step 41</text>
    <line x1="16" y1="1030" x2="196" y2="1030" stroke="#374151" stroke-width="2" stroke-linecap="round" fill="none" />
    
    <!-- Contact 1: M210 -->
    <g>
      <line x1="196" y1="1030" x2="217" y2="1030" stroke="#374151" stroke-width="2" stroke-linecap="round" fill="none" />
      <line x1="231" y1="1030" x2="252" y2="1030" stroke="#374151" stroke-width="2" stroke-linecap="round" fill="none" />
      <line x1="217" y1="1021" x2="217" y2="1039" stroke="#2563eb" stroke-width="2.5" stroke-linecap="round" />
      <line x1="231" y1="1021" x2="231" y2="1039" stroke="#2563eb" stroke-width="2.5" stroke-linecap="round" />
      <text x="224" y="1014" font-family="Consolas, 'Courier New', monospace" font-size="10" font-weight="bold" fill="#111827" text-anchor="middle">M210</text>
    </g>

    <line x1="252" y1="1030" x2="258" y2="1030" stroke="#374151" stroke-width="2" stroke-linecap="round" fill="none" />

    <!-- Contact 2: M175 -->
    <g>
      <line x1="258" y1="1030" x2="279" y2="1030" stroke="#374151" stroke-width="2" stroke-linecap="round" fill="none" />
      <line x1="293" y1="1030" x2="314" y2="1030" stroke="#374151" stroke-width="2" stroke-linecap="round" fill="none" />
      <line x1="279" y1="1021" x2="279" y2="1039" stroke="#2563eb" stroke-width="2.5" stroke-linecap="round" />
      <line x1="293" y1="1021" x2="293" y2="1039" stroke="#2563eb" stroke-width="2.5" stroke-linecap="round" />
      <text x="286" y="1014" font-family="Consolas, 'Courier New', monospace" font-size="10" font-weight="bold" fill="#111827" text-anchor="middle">M175</text>
    </g>

    <line x1="314" y1="1030" x2="320" y2="1030" stroke="#374151" stroke-width="2" stroke-linecap="round" fill="none" />

    <!-- Contact 3: M174 (NC) -->
    <g>
      <line x1="320" y1="1030" x2="341" y2="1030" stroke="#374151" stroke-width="2" stroke-linecap="round" fill="none" />
      <line x1="355" y1="1030" x2="376" y2="1030" stroke="#374151" stroke-width="2" stroke-linecap="round" fill="none" />
      <line x1="341" y1="1021" x2="341" y2="1039" stroke="#2563eb" stroke-width="2.5" stroke-linecap="round" />
      <line x1="355" y1="1021" x2="355" y2="1039" stroke="#2563eb" stroke-width="2.5" stroke-linecap="round" />
      <line x1="338" y1="1039" x2="358" y2="1021" stroke="#2563eb" stroke-width="2" stroke-linecap="round" />
      <text x="348" y="1014" font-family="Consolas, 'Courier New', monospace" font-size="10" font-weight="bold" fill="#111827" text-anchor="middle">/M174</text>
    </g>

    <!-- RST Coil: M5000 -->
    <g>
      <line x1="376" y1="1030" x2="586" y2="1030" stroke="#374151" stroke-width="2" stroke-linecap="round" fill="none" />
      <ellipse cx="620" cy="1030" rx="34" ry="11" fill="#ffffff" stroke="#dc2626" stroke-width="2" />
      <text x="620" y="1014" font-family="Consolas, 'Courier New', monospace" font-size="10" font-weight="bold" fill="#111827" text-anchor="middle">M5000</text>
      <text x="620" y="1034" font-family="Consolas, 'Courier New', monospace" font-size="10" font-weight="bold" fill="#dc2626" text-anchor="middle">R</text>
    </g>
  </g>

  <!-- ================= RUNG 14 ================= -->
  <g>
    <text x="24" y="1092" font-family="Consolas, 'Courier New', monospace" font-size="10" font-weight="normal" fill="#111827" text-anchor="start">R14  step 45</text>
    <line x1="16" y1="1110" x2="196" y2="1110" stroke="#374151" stroke-width="2" stroke-linecap="round" fill="none" />
    
    <!-- Contact 1: D200_1 -->
    <g>
      <line x1="196" y1="1110" x2="217" y2="1110" stroke="#374151" stroke-width="2" stroke-linecap="round" fill="none" />
      <line x1="231" y1="1110" x2="252" y2="1110" stroke="#374151" stroke-width="2" stroke-linecap="round" fill="none" />
      <line x1="217" y1="1101" x2="217" y2="1119" stroke="#2563eb" stroke-width="2.5" stroke-linecap="round" />
      <line x1="231" y1="1101" x2="231" y2="1119" stroke="#2563eb" stroke-width="2.5" stroke-linecap="round" />
      <text x="224" y="1094" font-family="Consolas, 'Courier New', monospace" font-size="10" font-weight="bold" fill="#111827" text-anchor="middle">D200_1</text>
    </g>

    <!-- SET Coil: M5001 -->
    <g>
      <line x1="252" y1="1110" x2="586" y2="1110" stroke="#374151" stroke-width="2" stroke-linecap="round" fill="none" />
      <ellipse cx="620" cy="1110" rx="34" ry="11" fill="#ffffff" stroke="#dc2626" stroke-width="2" />
      <text x="620" y="1094" font-family="Consolas, 'Courier New', monospace" font-size="10" font-weight="bold" fill="#111827" text-anchor="middle">M5001</text>
      <text x="620" y="1114" font-family="Consolas, 'Courier New', monospace" font-size="10" font-weight="bold" fill="#dc2626" text-anchor="middle">S</text>
    </g>
  </g>

  <!-- ================= RUNG 15 ================= -->
  <g>
    <text x="24" y="1172" font-family="Consolas, 'Courier New', monospace" font-size="10" font-weight="normal" fill="#111827" text-anchor="start">R15  step 47</text>
    <line x1="16" y1="1190" x2="196" y2="1190" stroke="#374151" stroke-width="2" stroke-linecap="round" fill="none" />
    
    <!-- Contact 1: M210 -->
    <g>
      <line x1="196" y1="1190" x2="217" y2="1190" stroke="#374151" stroke-width="2" stroke-linecap="round" fill="none" />
      <line x1="231" y1="1190" x2="252" y2="1190" stroke="#374151" stroke-width="2" stroke-linecap="round" fill="none" />
      <line x1="217" y1="1181" x2="217" y2="1199" stroke="#2563eb" stroke-width="2.5" stroke-linecap="round" />
      <line x1="231" y1="1181" x2="231" y2="1199" stroke="#2563eb" stroke-width="2.5" stroke-linecap="round" />
      <text x="224" y="1174" font-family="Consolas, 'Courier New', monospace" font-size="10" font-weight="bold" fill="#111827" text-anchor="middle">M210</text>
    </g>

    <line x1="252" y1="1190" x2="258" y2="1190" stroke="#374151" stroke-width="2" stroke-linecap="round" fill="none" />

    <!-- Contact 2: M175 -->
    <g>
      <line x1="258" y1="1190" x2="279" y2="1190" stroke="#374151" stroke-width="2" stroke-linecap="round" fill="none" />
      <line x1="293" y1="1190" x2="314" y2="1190" stroke="#374151" stroke-width="2" stroke-linecap="round" fill="none" />
      <line x1="279" y1="1181" x2="279" y2="1199" stroke="#2563eb" stroke-width="2.5" stroke-linecap="round" />
      <line x1="293" y1="1181" x2="293" y2="1199" stroke="#2563eb" stroke-width="2.5" stroke-linecap="round" />
      <text x="286" y="1174" font-family="Consolas, 'Courier New', monospace" font-size="10" font-weight="bold" fill="#111827" text-anchor="middle">M175</text>
    </g>

    <line x1="314" y1="1190" x2="320" y2="1190" stroke="#374151" stroke-width="2" stroke-linecap="round" fill="none" />

    <!-- Contact 3: M174 (NC) -->
    <g>
      <line x1="320" y1="1190" x2="341" y2="1190" stroke="#374151" stroke-width="2" stroke-linecap="round" fill="none" />
      <line x1="355" y1="1190" x2="376" y2="1190" stroke="#374151" stroke-width="2" stroke-linecap="round" fill="none" />
      <line x1="341" y1="1181" x2="341" y2="1199" stroke="#2563eb" stroke-width="2.5" stroke-linecap="round" />
      <line x1="355" y1="1181" x2="355" y2="1199" stroke="#2563eb" stroke-width="2.5" stroke-linecap="round" />
      <line x1="338" y1="1199" x2="358" y2="1181" stroke="#2563eb" stroke-width="2" stroke-linecap="round" />
      <text x="348" y="1174" font-family="Consolas, 'Courier New', monospace" font-size="10" font-weight="bold" fill="#111827" text-anchor="middle">/M174</text>
    </g>

    <!-- RST Coil: M5001 -->
    <g>
      <line x1="376" y1="1190" x2="586" y2="1190" stroke="#374151" stroke-width="2" stroke-linecap="round" fill="none" />
      <ellipse cx="620" cy="1190" rx="34" ry="11" fill="#ffffff" stroke="#dc2626" stroke-width="2" />
      <text x="620" y="1174" font-family="Consolas, 'Courier New', monospace" font-size="10" font-weight="bold" fill="#111827" text-anchor="middle">M5001</text>
      <text x="620" y="1194" font-family="Consolas, 'Courier New', monospace" font-size="10" font-weight="bold" fill="#dc2626" text-anchor="middle">R</text>
    </g>
  </g>
</svg>