<?xml version="1.0" encoding="UTF-8"?>
<svg xmlns="http://www.w3.org/2000/svg" viewBox="0 0 540 930" width="100%" height="100%">
  <!-- Background -->
  <rect width="100%" height="100%" fill="#ffffff" />

  <!-- Program Title -->
  <text x="16" y="25" font-family="Segoe UI, sans-serif" font-size="13" font-weight="bold" fill="#111827">P12_BodyVision  |  plc project_260626</text>

  <!-- Left Power Rail -->
  <line x1="16" y1="40" x2="16" y2="910" stroke="#374151" stroke-width="3" />

  <!-- RUNG 1: Step 0 -->
  <g id="rung1">
    <text x="24" y="68" font-family="Consolas, 'Courier New', monospace" font-size="10" font-weight="normal" fill="#111827" text-anchor="start">R1  step 0</text>
    
    <!-- Main Wire from Rail to Contact -->
    <line x1="16" y1="80" x2="196" y2="80" stroke="#374151" stroke-width="2" stroke-linecap="round" fill="none" />
    
    <!-- Contact X1011 -->
    <text x="224" y="64" font-family="Consolas, 'Courier New', monospace" font-size="10" font-weight="bold" fill="#111827" text-anchor="middle">X1011</text>
    <line x1="196" y1="80" x2="217" y2="80" stroke="#374151" stroke-width="2" stroke-linecap="round" fill="none" />
    <line x1="217" y1="71" x2="217" y2="89" stroke="#2563eb" stroke-width="2.5" />
    <line x1="231" y1="71" x2="231" y2="89" stroke="#2563eb" stroke-width="2.5" />
    <line x1="231" y1="80" x2="252" y2="80" stroke="#374151" stroke-width="2" stroke-linecap="round" fill="none" />

    <!-- Branch Wire logic -->
    <line x1="252" y1="80" x2="258" y2="80" stroke="#374151" stroke-width="2" stroke-linecap="round" fill="none" />
    <line x1="258" y1="80" x2="258" y2="122" stroke="#374151" stroke-width="2" stroke-linecap="round" fill="none" />
    
    <!-- Branch 1 (Top): Coil D310_0 -->
    <line x1="258" y1="80" x2="412" y2="80" stroke="#374151" stroke-width="2" stroke-linecap="round" fill="none" />
    <text x="446" y="64" font-family="Consolas, 'Courier New', monospace" font-size="10" font-weight="bold" fill="#111827" text-anchor="middle">D310_0</text>
    <ellipse cx="446" cy="80" rx="34" ry="11" fill="#ffffff" stroke="#dc2626" stroke-width="2" />

    <!-- Branch 2 (Bottom): Coil D310_1 -->
    <line x1="258" y1="122" x2="412" y2="122" stroke="#374151" stroke-width="2" stroke-linecap="round" fill="none" />
    <text x="446" y="106" font-family="Consolas, 'Courier New', monospace" font-size="10" font-weight="bold" fill="#111827" text-anchor="middle">D310_1</text>
    <ellipse cx="446" cy="122" rx="34" ry="11" fill="#ffffff" stroke="#dc2626" stroke-width="2" />

    <!-- Junction Dot -->
    <circle cx="258" cy="80" r="2.5" fill="#374151" />
  </g>

  <!-- Separator 1 -->
  <line x1="16" y1="150" x2="520" y2="150" stroke="#e5e7eb" stroke-width="1" />

  <!-- RUNG 2: Step 3 -->
  <g id="rung2">
    <text x="24" y="178" font-family="Consolas, 'Courier New', monospace" font-size="10" font-weight="normal" fill="#111827" text-anchor="start">R2  step 3</text>
    
    <line x1="16" y1="190" x2="196" y2="190" stroke="#374151" stroke-width="2" stroke-linecap="round" fill="none" />
    
    <!-- Contact X1012 -->
    <text x="224" y="174" font-family="Consolas, 'Courier New', monospace" font-size="10" font-weight="bold" fill="#111827" text-anchor="middle">X1012</text>
    <line x1="196" y1="190" x2="217" y2="190" stroke="#374151" stroke-width="2" stroke-linecap="round" fill="none" />
    <line x1="217" y1="181" x2="217" y2="199" stroke="#2563eb" stroke-width="2.5" />
    <line x1="231" y1="181" x2="231" y2="199" stroke="#2563eb" stroke-width="2.5" />
    <line x1="231" y1="190" x2="252" y2="190" stroke="#374151" stroke-width="2" stroke-linecap="round" fill="none" />

    <line x1="252" y1="190" x2="412" y2="190" stroke="#374151" stroke-width="2" stroke-linecap="round" fill="none" />
    
    <!-- Coil D310_7 -->
    <text x="446" y="174" font-family="Consolas, 'Courier New', monospace" font-size="10" font-weight="bold" fill="#111827" text-anchor="middle">D310_7</text>
    <ellipse cx="446" cy="190" rx="34" ry="11" fill="#ffffff" stroke="#dc2626" stroke-width="2" />
  </g>

  <!-- Separator 2 -->
  <line x1="16" y1="230" x2="520" y2="230" stroke="#e5e7eb" stroke-width="1" />

  <!-- RUNG 3: Step 5 -->
  <g id="rung3">
    <text x="24" y="258" font-family="Consolas, 'Courier New', monospace" font-size="10" font-weight="normal" fill="#111827" text-anchor="start">R3  step 5</text>
    
    <line x1="16" y1="270" x2="196" y2="270" stroke="#374151" stroke-width="2" stroke-linecap="round" fill="none" />
    
    <!-- Contact M60 -->
    <text x="224" y="254" font-family="Consolas, 'Courier New', monospace" font-size="10" font-weight="bold" fill="#111827" text-anchor="middle">M60</text>
    <line x1="196" y1="270" x2="217" y2="270" stroke="#374151" stroke-width="2" stroke-linecap="round" fill="none" />
    <line x1="217" y1="261" x2="217" y2="279" stroke="#2563eb" stroke-width="2.5" />
    <line x1="231" y1="261" x2="231" y2="279" stroke="#2563eb" stroke-width="2.5" />
    <line x1="231" y1="270" x2="252" y2="270" stroke="#374151" stroke-width="2" stroke-linecap="round" fill="none" />

    <line x1="252" y1="270" x2="412" y2="270" stroke="#374151" stroke-width="2" stroke-linecap="round" fill="none" />
    
    <!-- Coil D310_E -->
    <text x="446" y="254" font-family="Consolas, 'Courier New', monospace" font-size="10" font-weight="bold" fill="#111827" text-anchor="middle">D310_E</text>
    <ellipse cx="446" cy="270" rx="34" ry="11" fill="#ffffff" stroke="#dc2626" stroke-width="2" />
  </g>

  <!-- Separator 3 -->
  <line x1="16" y1="310" x2="520" y2="310" stroke="#e5e7eb" stroke-width="1" />

  <!-- RUNG 4: Step 7 -->
  <g id="rung4">
    <text x="24" y="338" font-family="Consolas, 'Courier New', monospace" font-size="10" font-weight="normal" fill="#111827" text-anchor="start">R4  step 7</text>
    
    <line x1="16" y1="350" x2="196" y2="350" stroke="#374151" stroke-width="2" stroke-linecap="round" fill="none" />
    
    <!-- Contact M210 -->
    <text x="224" y="334" font-family="Consolas, 'Courier New', monospace" font-size="10" font-weight="bold" fill="#111827" text-anchor="middle">M210</text>
    <line x1="196" y1="350" x2="217" y2="350" stroke="#374151" stroke-width="2" stroke-linecap="round" fill="none" />
    <line x1="217" y1="341" x2="217" y2="359" stroke="#2563eb" stroke-width="2.5" />
    <line x1="231" y1="341" x2="231" y2="359" stroke="#2563eb" stroke-width="2.5" />
    <line x1="231" y1="350" x2="252" y2="350" stroke="#374151" stroke-width="2" stroke-linecap="round" fill="none" />

    <!-- Link wire -->
    <line x1="252" y1="350" x2="258" y2="350" stroke="#374151" stroke-width="2" />

    <!-- Contact M175 -->
    <text x="286" y="334" font-family="Consolas, 'Courier New', monospace" font-size="10" font-weight="bold" fill="#111827" text-anchor="middle">M175</text>
    <line x1="258" y1="350" x2="279" y2="350" stroke="#374151" stroke-width="2" stroke-linecap="round" fill="none" />
    <line x1="279" y1="341" x2="279" y2="359" stroke="#2563eb" stroke-width="2.5" />
    <line x1="293" y1="341" x2="293" y2="359" stroke="#2563eb" stroke-width="2.5" />
    <line x1="293" y1="350" x2="314" y2="350" stroke="#374151" stroke-width="2" stroke-linecap="round" fill="none" />

    <!-- Link wire -->
    <line x1="314" y1="350" x2="320" y2="350" stroke="#374151" stroke-width="2" />

    <!-- Contact M174 (NC) -->
    <text x="348" y="334" font-family="Consolas, 'Courier New', monospace" font-size="10" font-weight="bold" fill="#111827" text-anchor="middle">M174</text>
    <line x1="320" y1="350" x2="341" y2="350" stroke="#374151" stroke-width="2" stroke-linecap="round" fill="none" />
    <line x1="341" y1="341" x2="341" y2="359" stroke="#2563eb" stroke-width="2.5" />
    <line x1="355" y1="341" x2="355" y2="359" stroke="#2563eb" stroke-width="2.5" />
    <line x1="339" y1="359" x2="357" y2="341" stroke="#2563eb" stroke-width="2" />
    <line x1="355" y1="350" x2="376" y2="350" stroke="#374151" stroke-width="2" stroke-linecap="round" fill="none" />

    <!-- Final line to Coil -->
    <line x1="376" y1="350" x2="412" y2="350" stroke="#374151" stroke-width="2" stroke-linecap="round" fill="none" />
    
    <!-- Coil D310_C -->
    <text x="446" y="334" font-family="Consolas, 'Courier New', monospace" font-size="10" font-weight="bold" fill="#111827" text-anchor="middle">D310_C</text>
    <ellipse cx="446" cy="350" rx="34" ry="11" fill="#ffffff" stroke="#dc2626" stroke-width="2" />
  </g>

  <!-- Separator 4 -->
  <line x1="16" y1="390" x2="520" y2="390" stroke="#e5e7eb" stroke-width="1" />

  <!-- RUNG 5: Step 11 -->
  <g id="rung5">
    <text x="24" y="418" font-family="Consolas, 'Courier New', monospace" font-size="10" font-weight="normal" fill="#111827" text-anchor="start">R5  step 11</text>
    
    <line x1="16" y1="430" x2="196" y2="430" stroke="#374151" stroke-width="2" stroke-linecap="round" fill="none" />
    
    <!-- Contact D300_0 -->
    <text x="224" y="414" font-family="Consolas, 'Courier New', monospace" font-size="10" font-weight="bold" fill="#111827" text-anchor="middle">D300_0</text>
    <line x1="196" y1="430" x2="217" y2="430" stroke="#374151" stroke-width="2" stroke-linecap="round" fill="none" />
    <line x1="217" y1="421" x2="217" y2="439" stroke="#2563eb" stroke-width="2.5" />
    <line x1="231" y1="421" x2="231" y2="439" stroke="#2563eb" stroke-width="2.5" />
    <line x1="231" y1="430" x2="252" y2="430" stroke="#374151" stroke-width="2" stroke-linecap="round" fill="none" />

    <line x1="252" y1="430" x2="412" y2="430" stroke="#374151" stroke-width="2" stroke-linecap="round" fill="none" />
    
    <!-- Coil SET M6000 -->
    <text x="446" y="414" font-family="Consolas, 'Courier New', monospace" font-size="10" font-weight="bold" fill="#111827" text-anchor="middle">M6000</text>
    <ellipse cx="446" cy="430" rx="34" ry="11" fill="#ffffff" stroke="#dc2626" stroke-width="2" />
    <text x="446" y="434" font-family="Consolas, 'Courier New', monospace" font-size="10" font-weight="bold" fill="#dc2626" text-anchor="middle">S</text>
  </g>

  <!-- Separator 5 -->
  <line x1="16" y1="470" x2="520" y2="470" stroke="#e5e7eb" stroke-width="1" />

  <!-- RUNG 6: Step 13 -->
  <g id="rung6">
    <text x="24" y="498" font-family="Consolas, 'Courier New', monospace" font-size="10" font-weight="normal" fill="#111827" text-anchor="start">R6  step 13</text>
    
    <line x1="16" y1="510" x2="196" y2="510" stroke="#374151" stroke-width="2" stroke-linecap="round" fill="none" />
    
    <!-- Contact M210 -->
    <text x="224" y="494" font-family="Consolas, 'Courier New', monospace" font-size="10" font-weight="bold" fill="#111827" text-anchor="middle">M210</text>
    <line x1="196" y1="510" x2="217" y2="510" stroke="#374151" stroke-width="2" stroke-linecap="round" fill="none" />
    <line x1="217" y1="501" x2="217" y2="519" stroke="#2563eb" stroke-width="2.5" />
    <line x1="231" y1="501" x2="231" y2="519" stroke="#2563eb" stroke-width="2.5" />
    <line x1="231" y1="510" x2="252" y2="510" stroke="#374151" stroke-width="2" stroke-linecap="round" fill="none" />

    <!-- Link wire -->
    <line x1="252" y1="510" x2="258" y2="510" stroke="#374151" stroke-width="2" />

    <!-- Contact M175 -->
    <text x="286" y="494" font-family="Consolas, 'Courier New', monospace" font-size="10" font-weight="bold" fill="#111827" text-anchor="middle">M175</text>
    <line x1="258" y1="510" x2="279" y2="510" stroke="#374151" stroke-width="2" stroke-linecap="round" fill="none" />
    <line x1="279" y1="501" x2="279" y2="519" stroke="#2563eb" stroke-width="2.5" />
    <line x1="293" y1="501" x2="293" y2="519" stroke="#2563eb" stroke-width="2.5" />
    <line x1="293" y1="510" x2="314" y2="510" stroke="#374151" stroke-width="2" stroke-linecap="round" fill="none" />

    <!-- Link wire -->
    <line x1="314" y1="510" x2="320" y2="510" stroke="#374151" stroke-width="2" />

    <!-- Contact M174 (NC) -->
    <text x="348" y="494" font-family="Consolas, 'Courier New', monospace" font-size="10" font-weight="bold" fill="#111827" text-anchor="middle">M174</text>
    <line x1="320" y1="510" x2="341" y2="510" stroke="#374151" stroke-width="2" stroke-linecap="round" fill="none" />
    <line x1="341" y1="501" x2="341" y2="519" stroke="#2563eb" stroke-width="2.5" />
    <line x1="355" y1="501" x2="355" y2="519" stroke="#2563eb" stroke-width="2.5" />
    <line x1="339" y1="519" x2="357" y2="501" stroke="#2563eb" stroke-width="2" />
    <line x1="355" y1="510" x2="376" y2="510" stroke="#374151" stroke-width="2" stroke-linecap="round" fill="none" />

    <!-- Final wire -->
    <line x1="376" y1="510" x2="412" y2="510" stroke="#374151" stroke-width="2" stroke-linecap="round" fill="none" />
    
    <!-- Coil RST M6000 -->
    <text x="446" y="494" font-family="Consolas, 'Courier New', monospace" font-size="10" font-weight="bold" fill="#111827" text-anchor="middle">M6000</text>
    <ellipse cx="446" cy="510" rx="34" ry="11" fill="#ffffff" stroke="#dc2626" stroke-width="2" />
    <text x="446" y="514" font-family="Consolas, 'Courier New', monospace" font-size="10" font-weight="bold" fill="#dc2626" text-anchor="middle">R</text>
  </g>

  <!-- Separator 6 -->
  <line x1="16" y1="550" x2="520" y2="550" stroke="#e5e7eb" stroke-width="1" />

  <!-- RUNG 7: Step 17 -->
  <g id="rung7">
    <text x="24" y="578" font-family="Consolas, 'Courier New', monospace" font-size="10" font-weight="normal" fill="#111827" text-anchor="start">R7  step 17</text>
    
    <line x1="16" y1="590" x2="196" y2="590" stroke="#374151" stroke-width="2" stroke-linecap="round" fill="none" />
    
    <!-- Contact D300_1 -->
    <text x="224" y="574" font-family="Consolas, 'Courier New', monospace" font-size="10" font-weight="bold" fill="#111827" text-anchor="middle">D300_1</text>
    <line x1="196" y1="590" x2="217" y2="590" stroke="#374151" stroke-width="2" stroke-linecap="round" fill="none" />
    <line x1="217" y1="581" x2="217" y2="599" stroke="#2563eb" stroke-width="2.5" />
    <line x1="231" y1="581" x2="231" y2="599" stroke="#2563eb" stroke-width="2.5" />
    <line x1="231" y1="590" x2="252" y2="590" stroke="#374151" stroke-width="2" stroke-linecap="round" fill="none" />

    <line x1="252" y1="590" x2="412" y2="590" stroke="#374151" stroke-width="2" stroke-linecap="round" fill="none" />
    
    <!-- Coil SET M6001 -->
    <text x="446" y="574" font-family="Consolas, 'Courier New', monospace" font-size="10" font-weight="bold" fill="#111827" text-anchor="middle">M6001</text>
    <ellipse cx="446" cy="590" rx="34" ry="11" fill="#ffffff" stroke="#dc2626" stroke-width="2" />
    <text x="446" y="594" font-family="Consolas, 'Courier New', monospace" font-size="10" font-weight="bold" fill="#dc2626" text-anchor="middle">S</text>
  </g>

  <!-- Separator 7 -->
  <line x1="16" y1="630" x2="520" y2="630" stroke="#e5e7eb" stroke-width="1" />

  <!-- RUNG 8: Step 19 -->
  <g id="rung8">
    <text x="24" y="658" font-family="Consolas, 'Courier New', monospace" font-size="10" font-weight="normal" fill="#111827" text-anchor="start">R8  step 19</text>
    
    <line x1="16" y1="670" x2="196" y2="670" stroke="#374151" stroke-width="2" stroke-linecap="round" fill="none" />
    
    <!-- Contact M210 -->
    <text x="224" y="654" font-family="Consolas, 'Courier New', monospace" font-size="10" font-weight="bold" fill="#111827" text-anchor="middle">M210</text>
    <line x1="196" y1="670" x2="217" y2="670" stroke="#374151" stroke-width="2" stroke-linecap="round" fill="none" />
    <line x1="217" y1="661" x2="217" y2="679" stroke="#2563eb" stroke-width="2.5" />
    <line x1="231" y1="661" x2="231" y2="679" stroke="#2563eb" stroke-width="2.5" />
    <line x1="231" y1="670" x2="252" y2="670" stroke="#374151" stroke-width="2" stroke-linecap="round" fill="none" />

    <!-- Link wire -->
    <line x1="252" y1="670" x2="258" y2="670" stroke="#374151" stroke-width="2" />

    <!-- Contact M175 -->
    <text x="286" y="654" font-family="Consolas, 'Courier New', monospace" font-size="10" font-weight="bold" fill="#111827" text-anchor="middle">M175</text>
    <line x1="258" y1="670" x2="279" y2="670" stroke="#374151" stroke-width="2" stroke-linecap="round" fill="none" />
    <line x1="279" y1="661" x2="279" y2="679" stroke="#2563eb" stroke-width="2.5" />
    <line x1="293" y1="661" x2="293" y2="679" stroke="#2563eb" stroke-width="2.5" />
    <line x1="293" y1="670" x2="314" y2="670" stroke="#374151" stroke-width="2" stroke-linecap="round" fill="none" />

    <!-- Link wire -->
    <line x1="314" y1="670" x2="320" y2="670" stroke="#374151" stroke-width="2" />

    <!-- Contact M174 (NC) -->
    <text x="348" y="654" font-family="Consolas, 'Courier New', monospace" font-size="10" font-weight="bold" fill="#111827" text-anchor="middle">M174</text>
    <line x1="320" y1="670" x2="341" y2="670" stroke="#374151" stroke-width="2" stroke-linecap="round" fill="none" />
    <line x1="341" y1="661" x2="341" y2="679" stroke="#2563eb" stroke-width="2.5" />
    <line x1="355" y1="661" x2="355" y2="679" stroke="#2563eb" stroke-width="2.5" />
    <line x1="339" y1="679" x2="357" y2="661" stroke="#2563eb" stroke-width="2" />
    <line x1="355" y1="670" x2="376" y2="670" stroke="#374151" stroke-width="2" stroke-linecap="round" fill="none" />

    <!-- Final wire -->
    <line x1="376" y1="670" x2="412" y2="670" stroke="#374151" stroke-width="2" stroke-linecap="round" fill="none" />
    
    <!-- Coil RST M6001 -->
    <text x="446" y="654" font-family="Consolas, 'Courier New', monospace" font-size="10" font-weight="bold" fill="#111827" text-anchor="middle">M6001</text>
    <ellipse cx="446" cy="670" rx="34" ry="11" fill="#ffffff" stroke="#dc2626" stroke-width="2" />
    <text x="446" y="674" font-family="Consolas, 'Courier New', monospace" font-size="10" font-weight="bold" fill="#dc2626" text-anchor="middle">R</text>
  </g>

  <!-- Separator 8 -->
  <line x1="16" y1="710" x2="520" y2="710" stroke="#e5e7eb" stroke-width="1" />

  <!-- RUNG 9: Step 23 -->
  <g id="rung9">
    <text x="24" y="738" font-family="Consolas, 'Courier New', monospace" font-size="10" font-weight="normal" fill="#111827" text-anchor="start">R9  step 23</text>
    
    <!-- Left Wire to Branch Start -->
    <line x1="16" y1="750" x2="196" y2="750" stroke="#374151" stroke-width="2" stroke-linecap="round" fill="none" />
    <line x1="196" y1="750" x2="196" y2="792" stroke="#374151" stroke-width="2" stroke-linecap="round" fill="none" />

    <!-- Branch 1 (Top): Contact D300_2 -->
    <text x="224" y="734" font-family="Consolas, 'Courier New', monospace" font-size="10" font-weight="bold" fill="#111827" text-anchor="middle">D300_2</text>
    <line x1="196" y1="750" x2="217" y2="750" stroke="#374151" stroke-width="2" stroke-linecap="round" fill="none" />
    <line x1="217" y1="741" x2="217" y2="759" stroke="#2563eb" stroke-width="2.5" />
    <line x1="231" y1="741" x2="231" y2="759" stroke="#2563eb" stroke-width="2.5" />
    <line x1="231" y1="750" x2="252" y2="750" stroke="#374151" stroke-width="2" stroke-linecap="round" fill="none" />
    <line x1="252" y1="750" x2="258" y2="750" stroke="#374151" stroke-width="2" stroke-linecap="round" fill="none" />

    <!-- Branch 2 (Bottom): Contact D300_3 -->
    <text x="224" y="776" font-family="Consolas, 'Courier New', monospace" font-size="10" font-weight="bold" fill="#111827" text-anchor="middle">D300_3</text>
    <line x1="196" y1="792" x2="217" y2="792" stroke="#374151" stroke-width="2" stroke-linecap="round" fill="none" />
    <line x1="217" y1="783" x2="217" y2="801" stroke="#2563eb" stroke-width="2.5" />
    <line x1="231" y1="783" x2="231" y2="801" stroke="#2563eb" stroke-width="2.5" />
    <line x1="231" y1="792" x2="252" y2="792" stroke="#374151" stroke-width="2" stroke-linecap="round" fill="none" />
    <line x1="252" y1="792" x2="258" y2="792" stroke="#374151" stroke-width="2" stroke-linecap="round" fill="none" />

    <!-- Right vertical merge -->
    <line x1="258" y1="750" x2="258" y2="792" stroke="#374151" stroke-width="2" stroke-linecap="round" fill="none" />
    
    <!-- Wire to Coil -->
    <line x1="258" y1="750" x2="412" y2="750" stroke="#374151" stroke-width="2" stroke-linecap="round" fill="none" />
    
    <!-- Coil SET M6100 -->
    <text x="446" y="734" font-family="Consolas, 'Courier New', monospace" font-size="10" font-weight="bold" fill="#111827" text-anchor="middle">M6100</text>
    <ellipse cx="446" cy="750" rx="34" ry="11" fill="#ffffff" stroke="#dc2626" stroke-width="2" />
    <text x="446" y="754" font-family="Consolas, 'Courier New', monospace" font-size="10" font-weight="bold" fill="#dc2626" text-anchor="middle">S</text>

    <!-- Junction Dots -->
    <circle cx="196" cy="750" r="2.5" fill="#374151" />
    <circle cx="258" cy="750" r="2.5" fill="#374151" />
  </g>

  <!-- Separator 9 -->
  <line x1="16" y1="830" x2="520" y2="830" stroke="#e5e7eb" stroke-width="1" />

  <!-- RUNG 10: Step 26 -->
  <g id="rung10">
    <text x="24" y="858" font-family="Consolas, 'Courier New', monospace" font-size="10" font-weight="normal" fill="#111827" text-anchor="start">R10 step 26</text>
    
    <line x1="16" y1="870" x2="196" y2="870" stroke="#374151" stroke-width="2" stroke-linecap="round" fill="none" />
    
    <!-- Contact M210 -->
    <text x="224" y="854" font-family="Consolas, 'Courier New', monospace" font-size="10" font-weight="bold" fill="#111827" text-anchor="middle">M210</text>
    <line x1="196" y1="870" x2="217" y2="870" stroke="#374151" stroke-width="2" stroke-linecap="round" fill="none" />
    <line x1="217" y1="861" x2="217" y2="879" stroke="#2563eb" stroke-width="2.5" />
    <line x1="231" y1="861" x2="231" y2="879" stroke="#2563eb" stroke-width="2.5" />
    <line x1="231" y1="870" x2="252" y2="870" stroke="#374151" stroke-width="2" stroke-linecap="round" fill="none" />

    <!-- Link wire -->
    <line x1="252" y1="870" x2="258" y2="870" stroke="#374151" stroke-width="2" />

    <!-- Contact M175 -->
    <text x="286" y="854" font-family="Consolas, 'Courier New', monospace" font-size="10" font-weight="bold" fill="#111827" text-anchor="middle">M175</text>
    <line x1="258" y1="870" x2="279" y2="870" stroke="#374151" stroke-width="2" stroke-linecap="round" fill="none" />
    <line x1="279" y1="861" x2="279" y2="879" stroke="#2563eb" stroke-width="2.5" />
    <line x1="293" y1="861" x2="293" y2="879" stroke="#2563eb" stroke-width="2.5" />
    <line x1="293" y1="870" x2="314" y2="870" stroke="#374151" stroke-width="2" stroke-linecap="round" fill="none" />

    <!-- Link wire -->
    <line x1="314" y1="870" x2="320" y2="870" stroke="#374151" stroke-width="2" />

    <!-- Contact M174 (NC) -->
    <text x="348" y="854" font-family="Consolas, 'Courier New', monospace" font-size="10" font-weight="bold" fill="#111827" text-anchor="middle">M174</text>
    <line x1="320" y1="870" x2="341" y2="870" stroke="#374151" stroke-width="2" stroke-linecap="round" fill="none" />
    <line x1="341" y1="861" x2="341" y2="879" stroke="#2563eb" stroke-width="2.5" />
    <line x1="355" y1="861" x2="355" y2="879" stroke="#2563eb" stroke-width="2.5" />
    <line x1="339" y1="879" x2="357" y2="861" stroke="#2563eb" stroke-width="2" />
    <line x1="355" y1="870" x2="376" y2="870" stroke="#374151" stroke-width="2" stroke-linecap="round" fill="none" />

    <!-- Final wire -->
    <line x1="376" y1="870" x2="412" y2="870" stroke="#374151" stroke-width="2" stroke-linecap="round" fill="none" />
    
    <!-- Coil RST M6100 -->
    <text x="446" y="854" font-family="Consolas, 'Courier New', monospace" font-size="10" font-weight="bold" fill="#111827" text-anchor="middle">M6100</text>
    <ellipse cx="446" cy="870" rx="34" ry="11" fill="#ffffff" stroke="#dc2626" stroke-width="2" />
    <text x="446" y="874" font-family="Consolas, 'Courier New', monospace" font-size="10" font-weight="bold" fill="#dc2626" text-anchor="middle">R</text>
  </g>

  <!-- Separator 10 -->
  <line x1="16" y1="910" x2="520" y2="910" stroke="#e5e7eb" stroke-width="1" />
</svg>