<?xml version="1.0" encoding="UTF-8"?>
<svg xmlns="http://www.w3.org/2000/svg" width="960" height="1200" viewBox="0 0 960 1200">
  <!-- Background -->
  <rect width="960" height="1200" fill="#ffffff" />

  <!-- Program Title -->
  <text x="16" y="30" font-family="Segoe UI, sans-serif" font-size="13" font-weight="bold" fill="#111827">P20_PrimerRobot  |  plc project_260626</text>

  <!-- Left Power Rail -->
  <line x1="16" y1="45" x2="16" y2="1185" stroke="#374151" stroke-width="3" />

  <!-- ==================== RUNG 1 ==================== -->
  <line x1="16" y1="155" x2="940" y2="155" stroke="#e5e7eb" stroke-width="1" />
  <text x="24" y="70" font-family="Consolas, 'Courier New', monospace" font-size="10" font-weight="normal" fill="#111827">R1  step 0</text>
  
  <!-- Main wire Rung 1 -->
  <line x1="16" y1="80" x2="196" y2="80" stroke="#374151" stroke-width="2" fill="none" />
  
  <!-- Contact X111F -->
  <text x="224" y="65" font-family="Consolas, 'Courier New', monospace" font-size="10" font-weight="bold" fill="#111827" text-anchor="middle">X111F</text>
  <line x1="196" y1="80" x2="217" y2="80" stroke="#374151" stroke-width="2" fill="none" />
  <line x1="217" y1="71" x2="217" y2="89" stroke="#2563eb" stroke-width="2.5" />
  <line x1="231" y1="71" x2="231" y2="89" stroke="#2563eb" stroke-width="2.5" />
  <line x1="231" y1="80" x2="258" y2="80" stroke="#374151" stroke-width="2" fill="none" />

  <!-- Contact T50 -->
  <text x="286" y="65" font-family="Consolas, 'Courier New', monospace" font-size="10" font-weight="bold" fill="#111827" text-anchor="middle">T50</text>
  <line x1="258" y1="80" x2="279" y2="80" stroke="#374151" stroke-width="2" fill="none" />
  <line x1="279" y1="71" x2="279" y2="89" stroke="#2563eb" stroke-width="2.5" />
  <line x1="293" y1="71" x2="293" y2="89" stroke="#2563eb" stroke-width="2.5" />
  <line x1="293" y1="80" x2="800" y2="80" stroke="#374151" stroke-width="2" fill="none" />

  <!-- Coil M1353 -->
  <text x="840" y="63" font-family="Consolas, 'Courier New', monospace" font-size="10" font-weight="bold" fill="#111827" text-anchor="middle">M1353</text>
  <ellipse cx="840" cy="80" rx="34" ry="11" fill="#ffffff" stroke="#dc2626" stroke-width="2" />

  <!-- Branch to T50 Timer Box -->
  <line x1="255" y1="80" x2="255" y2="122" stroke="#374151" stroke-width="2" fill="none" />
  <circle cx="255" cy="80" r="2.5" fill="#374151" />
  <line x1="255" y1="122" x2="780" y2="122" stroke="#374151" stroke-width="2" fill="none" />
  
  <!-- T50 Timer Box -->
  <rect x="780" y="104" width="100" height="36" rx="4" fill="#ffffff" stroke="#d97706" stroke-width="2" />
  <text x="830" y="120" font-family="Consolas, 'Courier New', monospace" font-size="10" font-weight="bold" fill="#111827" text-anchor="middle">T50</text>
  <text x="830" y="132" font-family="Consolas, 'Courier New', monospace" font-size="9" font-weight="normal" fill="#d97706" text-anchor="middle">T#1s</text>

  <!-- ==================== RUNG 2 ==================== -->
  <line x1="16" y1="215" x2="940" y2="215" stroke="#e5e7eb" stroke-width="1" />
  <text x="24" y="170" font-family="Consolas, 'Courier New', monospace" font-size="10" font-weight="normal" fill="#111827">R2  step 13</text>
  
  <!-- Main wire Rung 2 -->
  <line x1="16" y1="180" x2="196" y2="180" stroke="#374151" stroke-width="2" fill="none" />

  <!-- Contact K0<>K0 -->
  <text x="224" y="165" font-family="Consolas, 'Courier New', monospace" font-size="10" font-weight="bold" fill="#111827" text-anchor="middle">K0&lt;&gt;K0</text>
  <line x1="196" y1="180" x2="217" y2="180" stroke="#374151" stroke-width="2" fill="none" />
  <line x1="217" y1="171" x2="217" y2="189" stroke="#2563eb" stroke-width="2.5" />
  <line x1="231" y1="171" x2="231" y2="189" stroke="#2563eb" stroke-width="2.5" />
  <line x1="231" y1="180" x2="258" y2="180" stroke="#374151" stroke-width="2" fill="none" />

  <!-- Contact NOT M1321 (NC) -->
  <text x="286" y="165" font-family="Consolas, 'Courier New', monospace" font-size="10" font-weight="bold" fill="#111827" text-anchor="middle">M1321</text>
  <line x1="258" y1="180" x2="279" y2="180" stroke="#374151" stroke-width="2" fill="none" />
  <line x1="279" y1="171" x2="279" y2="189" stroke="#2563eb" stroke-width="2.5" />
  <line x1="293" y1="171" x2="293" y2="189" stroke="#2563eb" stroke-width="2.5" />
  <line x1="277" y1="189" x2="295" y2="171" stroke="#2563eb" stroke-width="2" />
  <line x1="293" y1="180" x2="320" y2="180" stroke="#374151" stroke-width="2" fill="none" />

  <!-- Contact NOT M50 (NC) -->
  <text x="348" y="165" font-family="Consolas, 'Courier New', monospace" font-size="10" font-weight="bold" fill="#111827" text-anchor="middle">M50</text>
  <line x1="320" y1="180" x2="341" y2="180" stroke="#374151" stroke-width="2" fill="none" />
  <line x1="341" y1="171" x2="341" y2="189" stroke="#2563eb" stroke-width="2.5" />
  <line x1="355" y1="171" x2="355" y2="189" stroke="#2563eb" stroke-width="2.5" />
  <line x1="339" y1="189" x2="357" y2="171" stroke="#2563eb" stroke-width="2" />
  <line x1="355" y1="180" x2="382" y2="180" stroke="#374151" stroke-width="2" fill="none" />

  <!-- Contact M7751 -->
  <text x="410" y="165" font-family="Consolas, 'Courier New', monospace" font-size="10" font-weight="bold" fill="#111827" text-anchor="middle">M7751</text>
  <line x1="382" y1="180" x2="403" y2="180" stroke="#374151" stroke-width="2" fill="none" />
  <line x1="403" y1="171" x2="403" y2="189" stroke="#2563eb" stroke-width="2.5" />
  <line x1="417" y1="171" x2="417" y2="189" stroke="#2563eb" stroke-width="2.5" />
  <line x1="417" y1="180" x2="800" y2="180" stroke="#374151" stroke-width="2" fill="none" />

  <!-- Coil M1362 -->
  <text x="840" y="163" font-family="Consolas, 'Courier New', monospace" font-size="10" font-weight="bold" fill="#111827" text-anchor="middle">M1362</text>
  <ellipse cx="840" cy="180" rx="34" ry="11" fill="#ffffff" stroke="#dc2626" stroke-width="2" />

  <!-- ==================== RUNG 3 ==================== -->
  <line x1="16" y1="315" x2="940" y2="315" stroke="#e5e7eb" stroke-width="1" />
  <text x="24" y="230" font-family="Consolas, 'Courier New', monospace" font-size="10" font-weight="normal" fill="#111827">R3  step 25</text>

  <!-- Main wire Rung 3 -->
  <line x1="16" y1="240" x2="196" y2="240" stroke="#374151" stroke-width="2" fill="none" />

  <!-- Contact X7 -->
  <text x="224" y="225" font-family="Consolas, 'Courier New', monospace" font-size="10" font-weight="bold" fill="#111827" text-anchor="middle">X7</text>
  <line x1="196" y1="240" x2="217" y2="240" stroke="#374151" stroke-width="2" fill="none" />
  <line x1="217" y1="231" x2="217" y2="249" stroke="#2563eb" stroke-width="2.5" />
  <line x1="231" y1="231" x2="231" y2="249" stroke="#2563eb" stroke-width="2.5" />
  <line x1="231" y1="240" x2="255" y2="240" stroke="#374151" stroke-width="2" fill="none" />

  <!-- Left Vertical Branch -->
  <line x1="255" y1="240" x2="255" y2="282" stroke="#374151" stroke-width="2" fill="none" />
  <circle cx="255" cy="240" r="2.5" fill="#374151" />

  <!-- Top Branch: NOT X111F (NC) -->
  <text x="286" y="225" font-family="Consolas, 'Courier New', monospace" font-size="10" font-weight="bold" fill="#111827" text-anchor="middle">X111F</text>
  <line x1="255" y1="240" x2="279" y2="240" stroke="#374151" stroke-width="2" fill="none" />
  <line x1="279" y1="231" x2="279" y2="249" stroke="#2563eb" stroke-width="2.5" />
  <line x1="293" y1="231" x2="293" y2="249" stroke="#2563eb" stroke-width="2.5" />
  <line x1="277" y1="249" x2="295" y2="231" stroke="#2563eb" stroke-width="2" />
  <line x1="293" y1="240" x2="317" y2="240" stroke="#374151" stroke-width="2" fill="none" />

  <!-- Bottom Branch: X1119 (NO) -->
  <text x="286" y="267" font-family="Consolas, 'Courier New', monospace" font-size="10" font-weight="bold" fill="#111827" text-anchor="middle">X1119</text>
  <line x1="255" y1="282" x2="279" y2="282" stroke="#374151" stroke-width="2" fill="none" />
  <line x1="279" y1="273" x2="279" y2="291" stroke="#2563eb" stroke-width="2.5" />
  <line x1="293" y1="273" x2="293" y2="291" stroke="#2563eb" stroke-width="2.5" />
  <line x1="293" y1="282" x2="317" y2="282" stroke="#374151" stroke-width="2" fill="none" />

  <!-- Right Vertical Branch & Dot -->
  <line x1="317" y1="240" x2="317" y2="282" stroke="#374151" stroke-width="2" fill="none" />
  <circle cx="317" cy="240" r="2.5" fill="#374151" />
  <line x1="317" y1="240" x2="800" y2="240" stroke="#374151" stroke-width="2" fill="none" />

  <!-- Coil M1364 -->
  <text x="840" y="223" font-family="Consolas, 'Courier New', monospace" font-size="10" font-weight="bold" fill="#111827" text-anchor="middle">M1364</text>
  <ellipse cx="840" cy="240" rx="34" ry="11" fill="#ffffff" stroke="#dc2626" stroke-width="2" />

  <!-- ==================== RUNG 4 ==================== -->
  <line x1="16" y1="500" x2="940" y2="500" stroke="#e5e7eb" stroke-width="1" />
  <text x="24" y="330" font-family="Consolas, 'Courier New', monospace" font-size="10" font-weight="normal" fill="#111827">R4  step 30</text>

  <!-- Main wire Rung 4 -->
  <line x1="16" y1="340" x2="196" y2="340" stroke="#374151" stroke-width="2" fill="none" />

  <!-- Contact M216 -->
  <text x="224" y="325" font-family="Consolas, 'Courier New', monospace" font-size="10" font-weight="bold" fill="#111827" text-anchor="middle">M216</text>
  <line x1="196" y1="340" x2="217" y2="340" stroke="#374151" stroke-width="2" fill="none" />
  <line x1="217" y1="331" x2="217" y2="349" stroke="#2563eb" stroke-width="2.5" />
  <line x1="231" y1="331" x2="231" y2="349" stroke="#2563eb" stroke-width="2.5" />
  <line x1="231" y1="340" x2="255" y2="340" stroke="#374151" stroke-width="2" fill="none" />

  <!-- OR Block Left Vertical -->
  <line x1="255" y1="340" x2="255" y2="382" stroke="#374151" stroke-width="2" fill="none" />
  <circle cx="255" cy="340" r="2.5" fill="#374151" />

  <!-- Top OR Branch: M1362 -> T50 -->
  <text x="286" y="325" font-family="Consolas, 'Courier New', monospace" font-size="10" font-weight="bold" fill="#111827" text-anchor="middle">M1362</text>
  <line x1="255" y1="340" x2="279" y2="340" stroke="#374151" stroke-width="2" fill="none" />
  <line x1="279" y1="331" x2="279" y2="349" stroke="#2563eb" stroke-width="2.5" />
  <line x1="293" y1="331" x2="293" y2="349" stroke="#2563eb" stroke-width="2.5" />
  <line x1="293" y1="340" x2="320" y2="340" stroke="#374151" stroke-width="2" fill="none" />

  <text x="348" y="325" font-family="Consolas, 'Courier New', monospace" font-size="10" font-weight="bold" fill="#111827" text-anchor="middle">T50</text>
  <line x1="320" y1="340" x2="341" y2="340" stroke="#374151" stroke-width="2" fill="none" />
  <line x1="341" y1="331" x2="341" y2="349" stroke="#2563eb" stroke-width="2.5" />
  <line x1="355" y1="331" x2="355" y2="349" stroke="#2563eb" stroke-width="2.5" />
  <line x1="355" y1="340" x2="379" y2="340" stroke="#374151" stroke-width="2" fill="none" />

  <!-- Bottom OR Branch: M1364 -> NOT T50 -->
  <text x="286" y="367" font-family="Consolas, 'Courier New', monospace" font-size="10" font-weight="bold" fill="#111827" text-anchor="middle">M1364</text>
  <line x1="255" y1="382" x2="279" y2="382" stroke="#374151" stroke-width="2" fill="none" />
  <line x1="279" y1="373" x2="279" y2="391" stroke="#2563eb" stroke-width="2.5" />
  <line x1="293" y1="373" x2="293" y2="391" stroke="#2563eb" stroke-width="2.5" />
  <line x1="293" y1="382" x2="320" y2="382" stroke="#374151" stroke-width="2" fill="none" />

  <text x="348" y="367" font-family="Consolas, 'Courier New', monospace" font-size="10" font-weight="bold" fill="#111827" text-anchor="middle">T50</text>
  <line x1="320" y1="382" x2="341" y2="382" stroke="#374151" stroke-width="2" fill="none" />
  <line x1="341" y1="373" x2="341" y2="391" stroke="#2563eb" stroke-width="2.5" />
  <line x1="355" y1="373" x2="355" y2="391" stroke="#2563eb" stroke-width="2.5" />
  <line x1="339" y1="391" x2="357" y2="373" stroke="#2563eb" stroke-width="2" />
  <line x1="355" y1="382" x2="379" y2="382" stroke="#374151" stroke-width="2" fill="none" />

  <!-- OR Block Right Vertical -->
  <line x1="379" y1="340" x2="379" y2="382" stroke="#374151" stroke-width="2" fill="none" />
  <circle cx="379" cy="340" r="2.5" fill="#374151" />

  <!-- Series Contacts: X111D -> X111E -> NOT X111A -> NOT M710 -->
  <text x="413" y="325" font-family="Consolas, 'Courier New', monospace" font-size="10" font-weight="bold" fill="#111827" text-anchor="middle">X111D</text>
  <line x1="379" y1="340" x2="406" y2="340" stroke="#374151" stroke-width="2" fill="none" />
  <line x1="406" y1="331" x2="406" y2="349" stroke="#2563eb" stroke-width="2.5" />
  <line x1="420" y1="331" x2="420" y2="349" stroke="#2563eb" stroke-width="2.5" />
  <line x1="420" y1="340" x2="447" y2="340" stroke="#374151" stroke-width="2" fill="none" />

  <text x="475" y="325" font-family="Consolas, 'Courier New', monospace" font-size="10" font-weight="bold" fill="#111827" text-anchor="middle">X111E</text>
  <line x1="447" y1="340" x2="468" y2="340" stroke="#374151" stroke-width="2" fill="none" />
  <line x1="468" y1="331" x2="468" y2="349" stroke="#2563eb" stroke-width="2.5" />
  <line x1="482" y1="331" x2="482" y2="349" stroke="#2563eb" stroke-width="2.5" />
  <line x1="482" y1="340" x2="509" y2="340" stroke="#374151" stroke-width="2" fill="none" />

  <text x="537" y="325" font-family="Consolas, 'Courier New', monospace" font-size="10" font-weight="bold" fill="#111827" text-anchor="middle">X111A</text>
  <line x1="509" y1="340" x2="530" y2="340" stroke="#374151" stroke-width="2" fill="none" />
  <line x1="530" y1="331" x2="530" y2="349" stroke="#2563eb" stroke-width="2.5" />
  <line x1="544" y1="331" x2="544" y2="349" stroke="#2563eb" stroke-width="2.5" />
  <line x1="528" y1="349" x2="546" y2="331" stroke="#2563eb" stroke-width="2" />
  <line x1="544" y1="340" x2="571" y2="340" stroke="#374151" stroke-width="2" fill="none" />

  <text x="599" y="325" font-family="Consolas, 'Courier New', monospace" font-size="10" font-weight="bold" fill="#111827" text-anchor="middle">M710</text>
  <line x1="571" y1="340" x2="592" y2="340" stroke="#374151" stroke-width="2" fill="none" />
  <line x1="592" y1="331" x2="592" y2="349" stroke="#2563eb" stroke-width="2.5" />
  <line x1="606" y1="331" x2="606" y2="349" stroke="#2563eb" stroke-width="2.5" />
  <line x1="590" y1="349" x2="608" y2="331" stroke="#2563eb" stroke-width="2" />
  <line x1="606" y1="340" x2="630" y2="340" stroke="#374151" stroke-width="2" fill="none" />

  <!-- Node Split at x=630 -->
  <!-- Branch 1 (top): T51 -> NOT T52 -> NOT X111C -> Coil Y1116 -->
  <text x="661" y="325" font-family="Consolas, 'Courier New', monospace" font-size="10" font-weight="bold" fill="#111827" text-anchor="middle">T51</text>
  <line x1="630" y1="340" x2="654" y2="340" stroke="#374151" stroke-width="2" fill="none" />
  <line x1="654" y1="331" x2="654" y2="349" stroke="#2563eb" stroke-width="2.5" />
  <line x1="668" y1="331" x2="668" y2="349" stroke="#2563eb" stroke-width="2.5" />
  <line x1="668" y1="340" x2="692" y2="340" stroke="#374151" stroke-width="2" fill="none" />

  <text x="723" y="325" font-family="Consolas, 'Courier New', monospace" font-size="10" font-weight="bold" fill="#111827" text-anchor="middle">T52</text>
  <line x1="692" y1="340" x2="716" y2="340" stroke="#374151" stroke-width="2" fill="none" />
  <line x1="716" y1="331" x2="716" y2="349" stroke="#2563eb" stroke-width="2.5" />
  <line x1="730" y1="331" x2="730" y2="349" stroke="#2563eb" stroke-width="2.5" />
  <line x1="714" y1="349" x2="732" y2="331" stroke="#2563eb" stroke-width="2" />
  <line x1="730" y1="340" x2="754" y2="340" stroke="#374151" stroke-width="2" fill="none" />

  <text x="785" y="325" font-family="Consolas, 'Courier New', monospace" font-size="10" font-weight="bold" fill="#111827" text-anchor="middle">X111C</text>
  <line x1="754" y1="340" x2="778" y2="340" stroke="#374151" stroke-width="2" fill="none" />
  <line x1="778" y1="331" x2="778" y2="349" stroke="#2563eb" stroke-width="2.5" />
  <line x1="792" y1="331" x2="792" y2="349" stroke="#2563eb" stroke-width="2.5" />
  <line x1="776" y1="349" x2="794" y2="331" stroke="#2563eb" stroke-width="2" />
  <line x1="792" y1="340" x2="840" y2="340" stroke="#374151" stroke-width="2" fill="none" />

  <text x="874" y="323" font-family="Consolas, 'Courier New', monospace" font-size="10" font-weight="bold" fill="#111827" text-anchor="middle">Y1116</text>
  <ellipse cx="874" cy="340" rx="34" ry="11" fill="#ffffff" stroke="#dc2626" stroke-width="2" />

  <!-- Branch 2 (middle): Timer T51 (PT:=500ms) -->
  <line x1="630" y1="340" x2="630" y2="424" stroke="#374151" stroke-width="2" fill="none" />
  <circle cx="630" cy="340" r="2.5" fill="#374151" />
  <line x1="630" y1="424" x2="800" y2="424" stroke="#374151" stroke-width="2" fill="none" />
  
  <rect x="800" y="406" width="100" height="36" rx="4" fill="#ffffff" stroke="#d97706" stroke-width="2" />
  <text x="850" y="422" font-family="Consolas, 'Courier New', monospace" font-size="10" font-weight="bold" fill="#111827" text-anchor="middle">T51</text>
  <text x="850" y="434" font-family="Consolas, 'Courier New', monospace" font-size="9" font-weight="normal" fill="#d97706" text-anchor="middle">T#500ms</text>

  <!-- Branch 3 (bottom): Timer T52 (PT:=2s) -->
  <line x1="630" y1="424" x2="630" y2="466" stroke="#374151" stroke-width="2" fill="none" />
  <circle cx="630" cy="424" r="2.5" fill="#374151" />
  <line x1="630" y1="466" x2="800" y2="466" stroke="#374151" stroke-width="2" fill="none" />

  <rect x="800" y="448" width="100" height="36" rx="4" fill="#ffffff" stroke="#d97706" stroke-width="2" />
  <text x="850" y="464" font-family="Consolas, 'Courier New', monospace" font-size="10" font-weight="bold" fill="#111827" text-anchor="middle">T52</text>
  <text x="850" y="476" font-family="Consolas, 'Courier New', monospace" font-size="9" font-weight="normal" fill="#d97706" text-anchor="middle">T#2s</text>

  <!-- ==================== RUNG 5 ==================== -->
  <line x1="16" y1="560" x2="940" y2="560" stroke="#e5e7eb" stroke-width="1" />
  <text x="24" y="510" font-family="Consolas, 'Courier New', monospace" font-size="10" font-weight="normal" fill="#111827">R5  step 56</text>

  <line x1="16" y1="520" x2="196" y2="520" stroke="#374151" stroke-width="2" fill="none" />

  <!-- Contact M216 -->
  <text x="224" y="505" font-family="Consolas, 'Courier New', monospace" font-size="10" font-weight="bold" fill="#111827" text-anchor="middle">M216</text>
  <line x1="196" y1="520" x2="217" y2="520" stroke="#374151" stroke-width="2" fill="none" />
  <line x1="217" y1="511" x2="217" y2="529" stroke="#2563eb" stroke-width="2.5" />
  <line x1="231" y1="511" x2="231" y2="529" stroke="#2563eb" stroke-width="2.5" />
  <line x1="231" y1="520" x2="258" y2="520" stroke="#374151" stroke-width="2" fill="none" />

  <!-- Contact NOT X1117 -->
  <text x="286" y="505" font-family="Consolas, 'Courier New', monospace" font-size="10" font-weight="bold" fill="#111827" text-anchor="middle">X1117</text>
  <line x1="258" y1="520" x2="279" y2="520" stroke="#374151" stroke-width="2" fill="none" />
  <line x1="279" y1="511" x2="279" y2="529" stroke="#2563eb" stroke-width="2.5" />
  <line x1="293" y1="511" x2="293" y2="529" stroke="#2563eb" stroke-width="2.5" />
  <line x1="277" y1="529" x2="295" y2="511" stroke="#2563eb" stroke-width="2" />
  <line x1="293" y1="520" x2="320" y2="520" stroke="#374151" stroke-width="2" fill="none" />

  <!-- Contact NOT X1036 -->
  <text x="348" y="505" font-family="Consolas, 'Courier New', monospace" font-size="10" font-weight="bold" fill="#111827" text-anchor="middle">X1036</text>
  <line x1="320" y1="520" x2="341" y2="520" stroke="#374151" stroke-width="2" fill="none" />
  <line x1="341" y1="511" x2="341" y2="529" stroke="#2563eb" stroke-width="2.5" />
  <line x1="355" y1="511" x2="355" y2="529" stroke="#2563eb" stroke-width="2.5" />
  <line x1="339" y1="529" x2="357" y2="511" stroke="#2563eb" stroke-width="2" />
  <line x1="355" y1="520" x2="800" y2="520" stroke="#374151" stroke-width="2" fill="none" />

  <!-- Coil Y1117 -->
  <text x="840" y="503" font-family="Consolas, 'Courier New', monospace" font-size="10" font-weight="bold" fill="#111827" text-anchor="middle">Y1117</text>
  <ellipse cx="840" cy="520" rx="34" ry="11" fill="#ffffff" stroke="#dc2626" stroke-width="2" />

  <!-- ==================== RUNG 6 ==================== -->
  <line x1="16" y1="620" x2="940" y2="620" stroke="#e5e7eb" stroke-width="1" />
  <text x="24" y="570" font-family="Consolas, 'Courier New', monospace" font-size="10" font-weight="normal" fill="#111827">R6  step 60</text>

  <line x1="16" y1="580" x2="196" y2="580" stroke="#374151" stroke-width="2" fill="none" />

  <!-- Contact M212 -->
  <text x="224" y="565" font-family="Consolas, 'Courier New', monospace" font-size="10" font-weight="bold" fill="#111827" text-anchor="middle">M212</text>
  <line x1="196" y1="580" x2="217" y2="580" stroke="#374151" stroke-width="2" fill="none" />
  <line x1="217" y1="571" x2="217" y2="589" stroke="#2563eb" stroke-width="2.5" />
  <line x1="231" y1="571" x2="231" y2="589" stroke="#2563eb" stroke-width="2.5" />
  <line x1="231" y1="580" x2="800" y2="580" stroke="#374151" stroke-width="2" fill="none" />

  <!-- Coil Y1103 -->
  <text x="840" y="563" font-family="Consolas, 'Courier New', monospace" font-size="10" font-weight="bold" fill="#111827" text-anchor="middle">Y1103</text>
  <ellipse cx="840" cy="580" rx="34" ry="11" fill="#ffffff" stroke="#dc2626" stroke-width="2" />

  <!-- ==================== RUNG 7 ==================== -->
  <line x1="16" y1="715" x2="940" y2="715" stroke="#e5e7eb" stroke-width="1" />
  <text x="24" y="630" font-family="Consolas, 'Courier New', monospace" font-size="10" font-weight="normal" fill="#111827">R7  step 62</text>

  <line x1="16" y1="640" x2="196" y2="640" stroke="#374151" stroke-width="2" fill="none" />

  <!-- Split Left -->
  <line x1="196" y1="640" x2="196" y2="682" stroke="#374151" stroke-width="2" fill="none" />
  <circle cx="196" cy="640" r="2.5" fill="#374151" />

  <!-- Top: X1101 -->
  <text x="224" y="625" font-family="Consolas, 'Courier New', monospace" font-size="10" font-weight="bold" fill="#111827" text-anchor="middle">X1101</text>
  <line x1="196" y1="640" x2="217" y2="640" stroke="#374151" stroke-width="2" fill="none" />
  <line x1="217" y1="631" x2="217" y2="649" stroke="#2563eb" stroke-width="2.5" />
  <line x1="231" y1="631" x2="231" y2="649" stroke="#2563eb" stroke-width="2.5" />
  <line x1="231" y1="640" x2="252" y2="640" stroke="#374151" stroke-width="2" fill="none" />

  <!-- Bottom: M710 -->
  <text x="224" y="667" font-family="Consolas, 'Courier New', monospace" font-size="10" font-weight="bold" fill="#111827" text-anchor="middle">M710</text>
  <line x1="196" y1="682" x2="217" y2="682" stroke="#374151" stroke-width="2" fill="none" />
  <line x1="217" y1="673" x2="217" y2="691" stroke="#2563eb" stroke-width="2.5" />
  <line x1="231" y1="673" x2="231" y2="691" stroke="#2563eb" stroke-width="2.5" />
  <line x1="231" y1="682" x2="252" y2="682" stroke="#374151" stroke-width="2" fill="none" />

  <!-- Merge Right -->
  <line x1="252" y1="640" x2="252" y2="682" stroke="#374151" stroke-width="2" fill="none" />
  <circle cx="252" cy="640" r="2.5" fill="#374151" />
  <line x1="252" y1="640" x2="800" y2="640" stroke="#374151" stroke-width="2" fill="none" />

  <!-- Coil M1354 -->
  <text x="840" y="623" font-family="Consolas, 'Courier New', monospace" font-size="10" font-weight="bold" fill="#111827" text-anchor="middle">M1354</text>
  <ellipse cx="840" cy="640" rx="34" ry="11" fill="#ffffff" stroke="#dc2626" stroke-width="2" />

  <!-- ==================== RUNG 8 ==================== -->
  <line x1="16" y1="775" x2="940" y2="775" stroke="#e5e7eb" stroke-width="1" />
  <text x="24" y="725" font-family="Consolas, 'Courier New', monospace" font-size="10" font-weight="normal" fill="#111827">R8  step 70</text>

  <line x1="16" y1="735" x2="196" y2="735" stroke="#374151" stroke-width="2" fill="none" />

  <!-- Contact SM400 -->
  <text x="224" y="720" font-family="Consolas, 'Courier New', monospace" font-size="10" font-weight="bold" fill="#111827" text-anchor="middle">SM400</text>
  <line x1="196" y1="735" x2="217" y2="735" stroke="#374151" stroke-width="2" fill="none" />
  <line x1="217" y1="726" x2="217" y2="744" stroke="#2563eb" stroke-width="2.5" />
  <line x1="231" y1="726" x2="231" y2="744" stroke="#2563eb" stroke-width="2.5" />
  <line x1="231" y1="735" x2="800" y2="735" stroke="#374151" stroke-width="2" fill="none" />

  <!-- Coil Y1100 -->
  <text x="840" y="718" font-family="Consolas, 'Courier New', monospace" font-size="10" font-weight="bold" fill="#111827" text-anchor="middle">Y1100</text>
  <ellipse cx="840" cy="735" rx="34" ry="11" fill="#ffffff" stroke="#dc2626" stroke-width="2" />

  <!-- ==================== RUNG 9 ==================== -->
  <line x1="16" y1="870" x2="940" y2="870" stroke="#e5e7eb" stroke-width="1" />
  <text x="24" y="785" font-family="Consolas, 'Courier New', monospace" font-size="10" font-weight="normal" fill="#111827">R9  step 77</text>

  <line x1="16" y1="795" x2="196" y2="795" stroke="#374151" stroke-width="2" fill="none" />

  <!-- Split Left -->
  <line x1="196" y1="795" x2="196" y2="837" stroke="#374151" stroke-width="2" fill="none" />
  <circle cx="196" cy="795" r="2.5" fill="#374151" />

  <!-- Top Branch: X1002 -->
  <text x="224" y="780" font-family="Consolas, 'Courier New', monospace" font-size="10" font-weight="bold" fill="#111827" text-anchor="middle">X1002</text>
  <line x1="196" y1="795" x2="217" y2="795" stroke="#374151" stroke-width="2" fill="none" />
  <line x1="217" y1="786" x2="217" y2="804" stroke="#2563eb" stroke-width="2.5" />
  <line x1="231" y1="786" x2="231" y2="804" stroke="#2563eb" stroke-width="2.5" />
  <line x1="231" y1="795" x2="314" y2="795" stroke="#374151" stroke-width="2" fill="none" />

  <!-- Bottom Branch: M712 -> X103D -->
  <text x="224" y="822" font-family="Consolas, 'Courier New', monospace" font-size="10" font-weight="bold" fill="#111827" text-anchor="middle">M712</text>
  <line x1="196" y1="837" x2="217" y2="837" stroke="#374151" stroke-width="2" fill="none" />
  <line x1="217" y1="828" x2="217" y2="846" stroke="#2563eb" stroke-width="2.5" />
  <line x1="231" y1="828" x2="231" y2="846" stroke="#2563eb" stroke-width="2.5" />
  <line x1="231" y1="837" x2="258" y2="837" stroke="#374151" stroke-width="2" fill="none" />

  <text x="286" y="822" font-family="Consolas, 'Courier New', monospace" font-size="10" font-weight="bold" fill="#111827" text-anchor="middle">X103D</text>
  <line x1="258" y1="837" x2="279" y2="837" stroke="#374151" stroke-width="2" fill="none" />
  <line x1="279" y1="828" x2="279" y2="846" stroke="#2563eb" stroke-width="2.5" />
  <line x1="293" y1="828" x2="293" y2="846" stroke="#2563eb" stroke-width="2.5" />
  <line x1="293" y1="837" x2="314" y2="837" stroke="#374151" stroke-width="2" fill="none" />

  <!-- Merge Right -->
  <line x1="314" y1="795" x2="314" y2="837" stroke="#374151" stroke-width="2" fill="none" />
  <circle cx="314" cy="795" r="2.5" fill="#374151" />
  <line x1="314" y1="795" x2="800" y2="795" stroke="#374151" stroke-width="2" fill="none" />

  <!-- Coil Y1102 -->
  <text x="840" y="778" font-family="Consolas, 'Courier New', monospace" font-size="10" font-weight="bold" fill="#111827" text-anchor="middle">Y1102</text>
  <ellipse cx="840" cy="795" rx="34" ry="11" fill="#ffffff" stroke="#dc2626" stroke-width="2" />

  <!-- ==================== RUNG 10 ==================== -->
  <line x1="16" y1="1095" x2="940" y2="1095" stroke="#e5e7eb" stroke-width="1" />
  <text x="24" y="880" font-family="Consolas, 'Courier New', monospace" font-size="10" font-weight="normal" fill="#111827">R10  step 82</text>

  <line x1="16" y1="890" x2="196" y2="890" stroke="#374151" stroke-width="2" fill="none" />

  <!-- Series: SM400 -> M700 -> NOT M701 -> NOT M702 -->
  <text x="224" y="875" font-family="Consolas, 'Courier New', monospace" font-size="10" font-weight="bold" fill="#111827" text-anchor="middle">SM400</text>
  <line x1="196" y1="890" x2="217" y2="890" stroke="#374151" stroke-width="2" fill="none" />
  <line x1="217" y1="881" x2="217" y2="899" stroke="#2563eb" stroke-width="2.5" />
  <line x1="231" y1="881" x2="231" y2="899" stroke="#2563eb" stroke-width="2.5" />
  <line x1="231" y1="890" x2="258" y2="890" stroke="#374151" stroke-width="2" fill="none" />

  <text x="286" y="875" font-family="Consolas, 'Courier New', monospace" font-size="10" font-weight="bold" fill="#111827" text-anchor="middle">M700</text>
  <line x1="258" y1="890" x2="279" y2="890" stroke="#374151" stroke-width="2" fill="none" />
  <line x1="279" y1="881" x2="279" y2="899" stroke="#2563eb" stroke-width="2.5" />
  <line x1="293" y1="881" x2="293" y2="899" stroke="#2563eb" stroke-width="2.5" />
  <line x1="293" y1="890" x2="320" y2="890" stroke="#374151" stroke-width="2" fill="none" />

  <text x="348" y="875" font-family="Consolas, 'Courier New', monospace" font-size="10" font-weight="bold" fill="#111827" text-anchor="middle">M701</text>
  <line x1="320" y1="890" x2="341" y2="890" stroke="#374151" stroke-width="2" fill="none" />
  <line x1="341" y1="881" x2="341" y2="899" stroke="#2563eb" stroke-width="2.5" />
  <line x1="355" y1="881" x2="355" y2="899" stroke="#2563eb" stroke-width="2.5" />
  <line x1="339" y1="899" x2="357" y2="881" stroke="#2563eb" stroke-width="2" />
  <line x1="355" y1="890" x2="382" y2="890" stroke="#374151" stroke-width="2" fill="none" />

  <text x="410" y="875" font-family="Consolas, 'Courier New', monospace" font-size="10" font-weight="bold" fill="#111827" text-anchor="middle">M702</text>
  <line x1="382" y1="890" x2="403" y2="890" stroke="#374151" stroke-width="2" fill="none" />
  <line x1="403" y1="881" x2="403" y2="899" stroke="#2563eb" stroke-width="2.5" />
  <line x1="417" y1="881" x2="417" y2="899" stroke="#2563eb" stroke-width="2.5" />
  <line x1="417" y1="899" x2="435" y2="881" stroke="#2563eb" stroke-width="2" />
  <line x1="417" y1="890" x2="441" y2="890" stroke="#374151" stroke-width="2" fill="none" />

  <!-- Multi-Branch distribution at x=441 -->
  <line x1="441" y1="890" x2="441" y2="1058" stroke="#374151" stroke-width="2" fill="none" />
  <circle cx="441" cy="890" r="2.5" fill="#374151" />
  <circle cx="441" cy="932" r="2.5" fill="#374151" />
  <circle cx="441" cy="974" r="2.5" fill="#374151" />
  <circle cx="441" cy="1016" r="2.5" fill="#374151" />
  <circle cx="441" cy="1058" r="2.5" fill="#374151" />

  <!-- Branch 1: M600 -> MOV K1 D700 -->
  <text x="472" y="875" font-family="Consolas, 'Courier New', monospace" font-size="10" font-weight="bold" fill="#111827" text-anchor="middle">M600</text>
  <line x1="441" y1="890" x2="451" y2="890" stroke="#374151" stroke-width="2" fill="none" />
  <line x1="451" y1="881" x2="451" y2="899" stroke="#2563eb" stroke-width="2.5" />
  <line x1="465" y1="881" x2="465" y2="899" stroke="#2563eb" stroke-width="2.5" />
  <line x1="465" y1="890" x2="760" y2="890" stroke="#374151" stroke-width="2" fill="none" />
  <rect x="760" y="872" width="120" height="36" rx="3" fill="#ffffff" stroke="#059669" stroke-width="2" />
  <text x="820" y="894" font-family="Consolas, 'Courier New', monospace" font-size="10" font-weight="bold" fill="#111827" text-anchor="middle">MOV K1 D700</text>

  <!-- Branch 2: M601 -> MOV K2 D700 -->
  <text x="472" y="917" font-family="Consolas, 'Courier New', monospace" font-size="10" font-weight="bold" fill="#111827" text-anchor="middle">M601</text>
  <line x1="441" y1="932" x2="451" y2="932" stroke="#374151" stroke-width="2" fill="none" />
  <line x1="451" y1="923" x2="451" y2="941" stroke="#2563eb" stroke-width="2.5" />
  <line x1="465" y1="923" x2="465" y2="941" stroke="#2563eb" stroke-width="2.5" />
  <line x1="465" y1="932" x2="760" y2="932" stroke="#374151" stroke-width="2" fill="none" />
  <rect x="760" y="914" width="120" height="36" rx="3" fill="#ffffff" stroke="#059669" stroke-width="2" />
  <text x="820" y="936" font-family="Consolas, 'Courier New', monospace" font-size="10" font-weight="bold" fill="#111827" text-anchor="middle">MOV K2 D700</text>

  <!-- Branch 3: M602 -> MOV K3 D700 -->
  <text x="472" y="959" font-family="Consolas, 'Courier New', monospace" font-size="10" font-weight="bold" fill="#111827" text-anchor="middle">M602</text>
  <line x1="441" y1="974" x2="451" y2="974" stroke="#374151" stroke-width="2" fill="none" />
  <line x1="451" y1="965" x2="451" y2="983" stroke="#2563eb" stroke-width="2.5" />
  <line x1="465" y1="965" x2="465" y2="983" stroke="#2563eb" stroke-width="2.5" />
  <line x1="465" y1="974" x2="760" y2="974" stroke="#374151" stroke-width="2" fill="none" />
  <rect x="760" y="956" width="120" height="36" rx="3" fill="#ffffff" stroke="#059669" stroke-width="2" />
  <text x="820" y="978" font-family="Consolas, 'Courier New', monospace" font-size="10" font-weight="bold" fill="#111827" text-anchor="middle">MOV K3 D700</text>

  <!-- Branch 4: Direct -> MOV D600 D700 -->
  <line x1="441" y1="1016" x2="760" y2="1016" stroke="#374151" stroke-width="2" fill="none" />
  <rect x="760" y="998" width="120" height="36" rx="3" fill="#ffffff" stroke="#059669" stroke-width="2" />
  <text x="820" y="1020" font-family="Consolas, 'Courier New', monospace" font-size="10" font-weight="bold" fill="#111827" text-anchor="middle">MOV D600 D700</text>

  <!-- Branch 5: Direct -> MOV D700 K1Y1118 -->
  <line x1="441" y1="1058" x2="760" y2="1058" stroke="#374151" stroke-width="2" fill="none" />
  <rect x="760" y="1040" width="120" height="36" rx="3" fill="#ffffff" stroke="#059669" stroke-width="2" />
  <text x="820" y="1062" font-family="Consolas, 'Courier New', monospace" font-size="10" font-weight="bold" fill="#111827" text-anchor="middle">MOV D700 K1Y1118</text>

  <!-- ==================== RUNG 11 ==================== -->
  <text x="24" y="1105" font-family="Consolas, 'Courier New', monospace" font-size="10" font-weight="normal" fill="#111827">R11  step 110</text>

  <line x1="16" y1="1115" x2="196" y2="1115" stroke="#374151" stroke-width="2" fill="none" />

  <!-- Contact X111F_PLS -->
  <text x="224" y="1100" font-family="Consolas, 'Courier New', monospace" font-size="10" font-weight="bold" fill="#111827" text-anchor="middle">X111F_PLS</text>
  <line x1="196" y1="1115" x2="217" y2="1115" stroke="#374151" stroke-width="2" fill="none" />
  <line x1="217" y1="1106" x2="217" y2="1124" stroke="#2563eb" stroke-width="2.5" />
  <line x1="231" y1="1106" x2="231" y2="1124" stroke="#2563eb" stroke-width="2.5" />
  <line x1="231" y1="1115" x2="255" y2="1115" stroke="#374151" stroke-width="2" fill="none" />

  <!-- Multi-Branch at x=255 -->
  <line x1="255" y1="1115" x2="255" y2="1157" stroke="#374151" stroke-width="2" fill="none" />
  <circle cx="255" cy="1115" r="2.5" fill="#374151" />
  <circle cx="255" cy="1157" r="2.5" fill="#374151" />

  <!-- Branch 1: MOV K0 D700 -->
  <line x1="255" y1="1115" x2="760" y2="1115" stroke="#374151" stroke-width="2" fill="none" />
  <rect x="760" y="1097" width="120" height="36" rx="3" fill="#ffffff" stroke="#059669" stroke-width="2" />
  <text x="820" y="1119" font-family="Consolas, 'Courier New', monospace" font-size="10" font-weight="bold" fill="#111827" text-anchor="middle">MOV K0 D700</text>

  <!-- Branch 2: MOV K0 D600 -->
  <line x1="255" y1="1157" x2="760" y2="1157" stroke="#374151" stroke-width="2" fill="none" />
  <rect x="760" y="1139" width="120" height="36" rx="3" fill="#ffffff" stroke="#059669" stroke-width="2" />
  <text x="820" y="1161" font-family="Consolas, 'Courier New', monospace" font-size="10" font-weight="bold" fill="#111827" text-anchor="middle">MOV K0 D600</text>

</svg>