<?xml version="1.0" encoding="UTF-8"?>
<svg xmlns="http://www.w3.org/2000/svg" viewBox="0 0 900 560" width="900" height="560">
  <!-- Background -->
  <rect width="900" height="560" fill="#ffffff" />

  <!-- Program Title -->
  <text x="16" y="30" font-family="Segoe UI, sans-serif" font-size="13" font-weight="bold" fill="#111827">P30_Centering  |  plc project_260626</text>

  <!-- Left Power Rail -->
  <line x1="16" y1="40" x2="16" y2="540" stroke="#374151" stroke-width="3" />

  <!-- ================= RUNG 1 ================= -->
  <!-- Divider -->
  <line x1="16" y1="55" x2="850" y2="55" stroke="#e5e7eb" stroke-width="1" />
  <!-- Rung Label -->
  <text x="24" y="80" font-family="Consolas, 'Courier New', monospace" font-size="10" font-weight="normal" fill="#111827" text-anchor="start">R1  step 0</text>
  
  <g id="rung1_logic">
    <!-- Main Rail Wire -->
    <line x1="16" y1="90" x2="196" y2="90" stroke="#374151" stroke-width="2" stroke-linecap="round" fill="none" />
    
    <!-- Contact 1: SM400 (NO) -->
    <text x="224" y="73" font-family="Consolas, 'Courier New', monospace" font-size="10" font-weight="bold" fill="#111827" text-anchor="middle">SM400</text>
    <line x1="196" y1="90" x2="217" y2="90" stroke="#374151" stroke-width="2" stroke-linecap="round" fill="none" />
    <line x1="217" y1="81" x2="217" y2="99" stroke="#2563eb" stroke-width="2.5" />
    <line x1="231" y1="81" x2="231" y2="99" stroke="#2563eb" stroke-width="2.5" />
    <line x1="231" y1="90" x2="252" y2="90" stroke="#374151" stroke-width="2" stroke-linecap="round" fill="none" />
    
    <!-- Gap Wire 1-2 -->
    <line x1="252" y1="90" x2="258" y2="90" stroke="#374151" stroke-width="2" fill="none" />

    <!-- Contact 2: X10 (NO) -->
    <text x="286" y="73" font-family="Consolas, 'Courier New', monospace" font-size="10" font-weight="bold" fill="#111827" text-anchor="middle">X10</text>
    <line x1="258" y1="90" x2="279" y2="90" stroke="#374151" stroke-width="2" stroke-linecap="round" fill="none" />
    <line x1="279" y1="81" x2="279" y2="99" stroke="#2563eb" stroke-width="2.5" />
    <line x1="293" y1="81" x2="293" y2="99" stroke="#2563eb" stroke-width="2.5" />
    <line x1="293" y1="90" x2="314" y2="90" stroke="#374151" stroke-width="2" stroke-linecap="round" fill="none" />

    <!-- Gap Wire 2-3 -->
    <line x1="314" y1="90" x2="320" y2="90" stroke="#374151" stroke-width="2" fill="none" />

    <!-- Contact 3: T20 (NO) -->
    <text x="348" y="73" font-family="Consolas, 'Courier New', monospace" font-size="10" font-weight="bold" fill="#111827" text-anchor="middle">T20</text>
    <line x1="320" y1="90" x2="341" y2="90" stroke="#374151" stroke-width="2" stroke-linecap="round" fill="none" />
    <line x1="341" y1="81" x2="341" y2="99" stroke="#2563eb" stroke-width="2.5" />
    <line x1="355" y1="81" x2="355" y2="99" stroke="#2563eb" stroke-width="2.5" />
    <line x1="355" y1="90" x2="376" y2="90" stroke="#374151" stroke-width="2" stroke-linecap="round" fill="none" />

    <!-- Wire to Coil -->
    <line x1="376" y1="90" x2="756" y2="90" stroke="#374151" stroke-width="2" stroke-linecap="round" fill="none" />

    <!-- Coil: M2000 -->
    <text x="790" y="73" font-family="Consolas, 'Courier New', monospace" font-size="10" font-weight="bold" fill="#111827" text-anchor="middle">M2000</text>
    <ellipse cx="790" cy="90" rx="34" ry="11" fill="#ffffff" stroke="#dc2626" stroke-width="2" />
  </g>

  <!-- ================= RUNG 1.1 (Timer) ================= -->
  <!-- Divider -->
  <line x1="16" y1="135" x2="850" y2="135" stroke="#e5e7eb" stroke-width="1" />
  <!-- Rung Label -->
  <text x="24" y="160" font-family="Consolas, 'Courier New', monospace" font-size="10" font-weight="normal" fill="#111827" text-anchor="start">R1.1  step 0</text>

  <g id="rung1_1_logic">
    <!-- Main Rail Wire -->
    <line x1="16" y1="170" x2="196" y2="170" stroke="#374151" stroke-width="2" stroke-linecap="round" fill="none" />

    <!-- Contact 1: SM400 (NO) -->
    <text x="224" y="153" font-family="Consolas, 'Courier New', monospace" font-size="10" font-weight="bold" fill="#111827" text-anchor="middle">SM400</text>
    <line x1="196" y1="170" x2="217" y2="170" stroke="#374151" stroke-width="2" stroke-linecap="round" fill="none" />
    <line x1="217" y1="161" x2="217" y2="179" stroke="#2563eb" stroke-width="2.5" />
    <line x1="231" y1="161" x2="231" y2="179" stroke="#2563eb" stroke-width="2.5" />
    <line x1="231" y1="170" x2="252" y2="170" stroke="#374151" stroke-width="2" stroke-linecap="round" fill="none" />

    <!-- Gap Wire 1-2 -->
    <line x1="252" y1="170" x2="258" y2="170" stroke="#374151" stroke-width="2" fill="none" />

    <!-- Contact 2: X10 (NO) -->
    <text x="286" y="153" font-family="Consolas, 'Courier New', monospace" font-size="10" font-weight="bold" fill="#111827" text-anchor="middle">X10</text>
    <line x1="258" y1="170" x2="279" y2="170" stroke="#374151" stroke-width="2" stroke-linecap="round" fill="none" />
    <line x1="279" y1="161" x2="279" y2="179" stroke="#2563eb" stroke-width="2.5" />
    <line x1="293" y1="161" x2="293" y2="179" stroke="#2563eb" stroke-width="2.5" />
    <line x1="293" y1="170" x2="314" y2="170" stroke="#374151" stroke-width="2" stroke-linecap="round" fill="none" />

    <!-- Wire to Timer Box -->
    <line x1="314" y1="170" x2="730" y2="170" stroke="#374151" stroke-width="2" stroke-linecap="round" fill="none" />

    <!-- Timer Box: T20 (1s) -->
    <rect x="730" y="152" width="100" height="36" rx="4" ry="4" stroke="#d97706" stroke-width="2" fill="#ffffff" />
    <text x="780" y="166" font-family="Consolas, 'Courier New', monospace" font-size="10" font-weight="bold" fill="#111827" text-anchor="middle">T20</text>
    <text x="780" y="180" font-family="Consolas, 'Courier New', monospace" font-size="9" font-style="italic" fill="#d97706" text-anchor="middle">T#1s</text>
  </g>

  <!-- ================= RUNG 5 ================= -->
  <!-- Divider -->
  <line x1="16" y1="220" x2="850" y2="220" stroke="#e5e7eb" stroke-width="1" />
  <!-- Rung Label -->
  <text x="24" y="245" font-family="Consolas, 'Courier New', monospace" font-size="10" font-weight="normal" fill="#111827" text-anchor="start">R5  step 63  |  Home Return</text>

  <g id="rung5_logic">
    <!-- Main Rail Wire -->
    <line x1="16" y1="270" x2="196" y2="270" stroke="#374151" stroke-width="2" stroke-linecap="round" fill="none" />

    <!-- Contact 1: M2021 (NO) -->
    <text x="224" y="253" font-family="Consolas, 'Courier New', monospace" font-size="10" font-weight="bold" fill="#111827" text-anchor="middle">M2021</text>
    <line x1="196" y1="270" x2="217" y2="270" stroke="#374151" stroke-width="2" stroke-linecap="round" fill="none" />
    <line x1="217" y1="261" x2="217" y2="279" stroke="#2563eb" stroke-width="2.5" />
    <line x1="231" y1="261" x2="231" y2="279" stroke="#2563eb" stroke-width="2.5" />
    <line x1="231" y1="270" x2="252" y2="270" stroke="#374151" stroke-width="2" stroke-linecap="round" fill="none" />

    <!-- Gap Wire 1-2 -->
    <line x1="252" y1="270" x2="258" y2="270" stroke="#374151" stroke-width="2" fill="none" />

    <!-- Contact 2: M210 (NO) -->
    <text x="286" y="253" font-family="Consolas, 'Courier New', monospace" font-size="10" font-weight="bold" fill="#111827" text-anchor="middle">M210</text>
    <line x1="258" y1="270" x2="279" y2="270" stroke="#374151" stroke-width="2" stroke-linecap="round" fill="none" />
    <line x1="279" y1="261" x2="279" y2="279" stroke="#2563eb" stroke-width="2.5" />
    <line x1="293" y1="261" x2="293" y2="279" stroke="#2563eb" stroke-width="2.5" />
    <line x1="293" y1="270" x2="314" y2="270" stroke="#374151" stroke-width="2" stroke-linecap="round" fill="none" />

    <!-- OR Branch Start (x = 314 to 382) -->
    <!-- Top Branch: M516 (NO) -->
    <text x="348" y="253" font-family="Consolas, 'Courier New', monospace" font-size="10" font-weight="bold" fill="#111827" text-anchor="middle">M516</text>
    <line x1="320" y1="270" x2="341" y2="270" stroke="#374151" stroke-width="2" stroke-linecap="round" fill="none" />
    <line x1="341" y1="261" x2="341" y2="279" stroke="#2563eb" stroke-width="2.5" />
    <line x1="355" y1="261" x2="355" y2="279" stroke="#2563eb" stroke-width="2.5" />
    <line x1="355" y1="270" x2="376" y2="270" stroke="#374151" stroke-width="2" stroke-linecap="round" fill="none" />

    <!-- Bottom Branch: M2027 (NO) at y = 312 -->
    <text x="348" y="295" font-family="Consolas, 'Courier New', monospace" font-size="10" font-weight="bold" fill="#111827" text-anchor="middle">M2027</text>
    <line x1="320" y1="312" x2="341" y2="312" stroke="#374151" stroke-width="2" stroke-linecap="round" fill="none" />
    <line x1="341" y1="303" x2="341" y2="321" stroke="#2563eb" stroke-width="2.5" />
    <line x1="355" y1="303" x2="355" y2="321" stroke="#2563eb" stroke-width="2.5" />
    <line x1="355" y1="312" x2="376" y2="312" stroke="#374151" stroke-width="2" stroke-linecap="round" fill="none" />

    <!-- Vertical Branch Connectors -->
    <line x1="317" y1="270" x2="317" y2="312" stroke="#374151" stroke-width="2" fill="none" />
    <line x1="317" y1="312" x2="320" y2="312" stroke="#374151" stroke-width="2" fill="none" />
    <line x1="314" y1="270" x2="320" y2="270" stroke="#374151" stroke-width="2" fill="none" />
    
    <line x1="379" y1="270" x2="379" y2="312" stroke="#374151" stroke-width="2" fill="none" />
    <line x1="376" y1="312" x2="379" y2="312" stroke="#374151" stroke-width="2" fill="none" />
    <line x1="376" y1="270" x2="382" y2="270" stroke="#374151" stroke-width="2" fill="none" />

    <!-- Junction Dots -->
    <circle cx="317" cy="270" r="2.5" fill="#374151" />
    <circle cx="379" cy="270" r="2.5" fill="#374151" />

    <!-- Gap Wire OR-NC -->
    <line x1="382" y1="270" x2="382" y2="270" stroke="#374151" stroke-width="2" fill="none" />

    <!-- Contact 5: NOT M2020 (NC) -->
    <text x="410" y="253" font-family="Consolas, 'Courier New', monospace" font-size="10" font-weight="bold" fill="#111827" text-anchor="middle">M2020</text>
    <line x1="382" y1="270" x2="403" y2="270" stroke="#374151" stroke-width="2" stroke-linecap="round" fill="none" />
    <line x1="403" y1="261" x2="403" y2="279" stroke="#2563eb" stroke-width="2.5" />
    <line x1="417" y1="261" x2="417" y2="279" stroke="#2563eb" stroke-width="2.5" />
    <!-- NC Slash -->
    <line x1="399" y1="281" x2="421" y2="259" stroke="#2563eb" stroke-width="2" />
    <line x1="417" y1="270" x2="438" y2="270" stroke="#374151" stroke-width="2" stroke-linecap="round" fill="none" />

    <!-- Wire to Coil -->
    <line x1="438" y1="270" x2="756" y2="270" stroke="#374151" stroke-width="2" stroke-linecap="round" fill="none" />

    <!-- Coil: M2027 -->
    <text x="790" y="253" font-family="Consolas, 'Courier New', monospace" font-size="10" font-weight="bold" fill="#111827" text-anchor="middle">M2027</text>
    <ellipse cx="790" cy="270" rx="34" ry="11" fill="#ffffff" stroke="#dc2626" stroke-width="2" />
  </g>

  <!-- ================= RUNG 6 ================= -->
  <!-- Divider -->
  <line x1="16" y1="360" x2="850" y2="360" stroke="#e5e7eb" stroke-width="1" />
  <!-- Rung Label -->
  <text x="24" y="385" font-family="Consolas, 'Courier New', monospace" font-size="10" font-weight="normal" fill="#111827" text-anchor="start">R6  step 107  |  -</text>

  <g id="rung6_logic">
    <!-- Main Rail Wire -->
    <line x1="16" y1="410" x2="196" y2="410" stroke="#374151" stroke-width="2" stroke-linecap="round" fill="none" />

    <!-- Contact 1: M2021 (NO) -->
    <text x="224" y="393" font-family="Consolas, 'Courier New', monospace" font-size="10" font-weight="bold" fill="#111827" text-anchor="middle">M2021</text>
    <line x1="196" y1="410" x2="217" y2="410" stroke="#374151" stroke-width="2" stroke-linecap="round" fill="none" />
    <line x1="217" y1="401" x2="217" y2="419" stroke="#2563eb" stroke-width="2.5" />
    <line x1="231" y1="401" x2="231" y2="419" stroke="#2563eb" stroke-width="2.5" />
    <line x1="231" y1="410" x2="252" y2="410" stroke="#374151" stroke-width="2" stroke-linecap="round" fill="none" />

    <!-- Nested OR Block (Outer Level) -->
    <!-- Outer Dot Left -->
    <circle cx="255" cy="410" r="2.5" fill="#374151" />
    
    <!-- Path A (Top outer branch): M215 AND M1421 at y = 410 -->
    <!-- Contact A1: M215 (NO) -->
    <text x="286" y="393" font-family="Consolas, 'Courier New', monospace" font-size="10" font-weight="bold" fill="#111827" text-anchor="middle">M215</text>
    <line x1="258" y1="410" x2="279" y2="410" stroke="#374151" stroke-width="2" stroke-linecap="round" fill="none" />
    <line x1="279" y1="401" x2="279" y2="419" stroke="#2563eb" stroke-width="2.5" />
    <line x1="293" y1="401" x2="293" y2="419" stroke="#2563eb" stroke-width="2.5" />
    <line x1="293" y1="410" x2="314" y2="410" stroke="#374151" stroke-width="2" stroke-linecap="round" fill="none" />

    <line x1="314" y1="410" x2="320" y2="410" stroke="#374151" stroke-width="2" fill="none" />

    <!-- Contact A2: M1421 (NO) -->
    <text x="348" y="393" font-family="Consolas, 'Courier New', monospace" font-size="10" font-weight="bold" fill="#111827" text-anchor="middle">M1421</text>
    <line x1="320" y1="410" x2="341" y2="410" stroke="#374151" stroke-width="2" stroke-linecap="round" fill="none" />
    <line x1="341" y1="401" x2="341" y2="419" stroke="#2563eb" stroke-width="2.5" />
    <line x1="355" y1="401" x2="355" y2="419" stroke="#2563eb" stroke-width="2.5" />
    <line x1="355" y1="410" x2="376" y2="410" stroke="#374151" stroke-width="2" stroke-linecap="round" fill="none" />

    <!-- Path B (Bottom outer branch): M210 AND (M511 OR M2027) at y = 452 -->
    <!-- Vertical wire from main path to Path B (Left) -->
    <line x1="255" y1="410" x2="255" y2="452" stroke="#374151" stroke-width="2" fill="none" />
    <line x1="255" y1="452" x2="258" y2="452" stroke="#374151" stroke-width="2" fill="none" />

    <!-- Contact B1: M210 (NO) -->
    <text x="286" y="435" font-family="Consolas, 'Courier New', monospace" font-size="10" font-weight="bold" fill="#111827" text-anchor="middle">M210</text>
    <line x1="258" y1="452" x2="279" y2="452" stroke="#374151" stroke-width="2" stroke-linecap="round" fill="none" />
    <line x1="279" y1="443" x2="279" y2="461" stroke="#2563eb" stroke-width="2.5" />
    <line x1="293" y1="443" x2="293" y2="461" stroke="#2563eb" stroke-width="2.5" />
    <line x1="293" y1="452" x2="314" y2="452" stroke="#374151" stroke-width="2" stroke-linecap="round" fill="none" />

    <!-- Inner OR Left Connector -->
    <circle cx="317" cy="452" r="2.5" fill="#374151" />
    <line x1="317" y1="452" x2="317" y2="494" stroke="#374151" stroke-width="2" fill="none" />
    
    <!-- Path B1 (Top inner): M511 (NO) at y = 452 -->
    <text x="348" y="435" font-family="Consolas, 'Courier New', monospace" font-size="10" font-weight="bold" fill="#111827" text-anchor="middle">M511</text>
    <line x1="320" y1="452" x2="341" y2="452" stroke="#374151" stroke-width="2" stroke-linecap="round" fill="none" />
    <line x1="341" y1="443" x2="341" y2="461" stroke="#2563eb" stroke-width="2.5" />
    <line x1="355" y1="443" x2="355" y2="461" stroke="#2563eb" stroke-width="2.5" />
    <line x1="355" y1="452" x2="376" y2="452" stroke="#374151" stroke-width="2" stroke-linecap="round" fill="none" />

    <!-- Path B2 (Bottom inner): M2027 (NO) at y = 494 -->
    <text x="348" y="477" font-family="Consolas, 'Courier New', monospace" font-size="10" font-weight="bold" fill="#111827" text-anchor="middle">M2027</text>
    <line x1="317" y1="494" x2="320" y2="494" stroke="#374151" stroke-width="2" fill="none" />
    <line x1="320" y1="494" x2="341" y2="494" stroke="#374151" stroke-width="2" stroke-linecap="round" fill="none" />
    <line x1="341" y1="485" x2="341" y2="503" stroke="#2563eb" stroke-width="2.5" />
    <line x1="355" y1="485" x2="355" y2="503" stroke="#2563eb" stroke-width="2.5" />
    <line x1="355" y1="494" x2="376" y2="494" stroke="#374151" stroke-width="2" stroke-linecap="round" fill="none" />

    <!-- Inner OR Right Connector -->
    <line x1="379" y1="452" x2="379" y2="494" stroke="#374151" stroke-width="2" fill="none" />
    <line x1="376" y1="494" x2="379" y2="494" stroke="#374151" stroke-width="2" fill="none" />
    <circle cx="379" cy="452" r="2.5" fill="#374151" />

    <!-- Outer OR Right Connector -->
    <line x1="381" y1="410" x2="381" y2="452" stroke="#374151" stroke-width="2" fill="none" />
    <line x1="376" y1="452" x2="381" y2="452" stroke="#374151" stroke-width="2" fill="none" />
    <circle cx="381" cy="410" r="2.5" fill="#374151" />
    <line x1="376" y1="410" x2="382" y2="410" stroke="#374151" stroke-width="2" fill="none" />

    <!-- Series logic after Nested OR -->
    <!-- Contact 3: M2002 (NO) -->
    <text x="410" y="393" font-family="Consolas, 'Courier New', monospace" font-size="10" font-weight="bold" fill="#111827" text-anchor="middle">M2002</text>
    <line x1="382" y1="410" x2="403" y2="410" stroke="#374151" stroke-width="2" stroke-linecap="round" fill="none" />
    <line x1="403" y1="401" x2="403" y2="419" stroke="#2563eb" stroke-width="2.5" />
    <line x1="417" y1="401" x2="417" y2="419" stroke="#2563eb" stroke-width="2.5" />
    <line x1="417" y1="410" x2="438" y2="410" stroke="#374151" stroke-width="2" stroke-linecap="round" fill="none" />

    <!-- Gap Wire 3-4 -->
    <line x1="438" y1="410" x2="444" y2="410" stroke="#374151" stroke-width="2" fill="none" />

    <!-- Contact 4: NOT M2000 (NC) -->
    <text x="472" y="393" font-family="Consolas, 'Courier New', monospace" font-size="10" font-weight="bold" fill="#111827" text-anchor="middle">M2000</text>
    <line x1="444" y1="410" x2="465" y2="410" stroke="#374151" stroke-width="2" stroke-linecap="round" fill="none" />
    <line x1="465" y1="401" x2="465" y2="419" stroke="#2563eb" stroke-width="2.5" />
    <line x1="479" y1="401" x2="479" y2="419" stroke="#2563eb" stroke-width="2.5" />
    <!-- NC Slash -->
    <line x1="461" y1="421" x2="483" y2="399" stroke="#2563eb" stroke-width="2" />
    <line x1="479" y1="410" x2="500" y2="410" stroke="#374151" stroke-width="2" stroke-linecap="round" fill="none" />

    <!-- Gap Wire 4-5 -->
    <line x1="500" y1="410" x2="506" y2="410" stroke="#374151" stroke-width="2" fill="none" />

    <!-- Contact 5: NOT Y40 (NC) -->
    <text x="534" y="393" font-family="Consolas, 'Courier New', monospace" font-size="10" font-weight="bold" fill="#111827" text-anchor="middle">Y40</text>
    <line x1="506" y1="410" x2="527" y2="410" stroke="#374151" stroke-width="2" stroke-linecap="round" fill="none" />
    <line x1="527" y1="401" x2="527" y2="419" stroke="#2563eb" stroke-width="2.5" />
    <line x1="541" y1="401" x2="541" y2="419" stroke="#2563eb" stroke-width="2.5" />
    <!-- NC Slash -->
    <line x1="523" y1="421" x2="545" y2="399" stroke="#2563eb" stroke-width="2" />
    <line x1="541" y1="410" x2="562" y2="410" stroke="#374151" stroke-width="2" stroke-linecap="round" fill="none" />

    <!-- Wire to Coil -->
    <line x1="562" y1="410" x2="756" y2="410" stroke="#374151" stroke-width="2" stroke-linecap="round" fill="none" />

    <!-- Coil: Y41 -->
    <text x="790" y="393" font-family="Consolas, 'Courier New', monospace" font-size="10" font-weight="bold" fill="#111827" text-anchor="middle">Y41</text>
    <ellipse cx="790" cy="410" rx="34" ry="11" fill="#ffffff" stroke="#dc2626" stroke-width="2" />
  </g>

  <!-- Bottom Line -->
  <line x1="16" y1="540" x2="850" y2="540" stroke="#e5e7eb" stroke-width="1" />
</svg>