<?xml version="1.0" encoding="UTF-8"?>
<svg xmlns="http://www.w3.org/2000/svg" viewBox="0 0 800 780" width="800" height="780" style="background-color: #ffffff;">
  <!-- Title Block -->
  <text x="16" y="25" font-family="Segoe UI, sans-serif" font-size="13" font-weight="bold" fill="#111827">P32_Primer  |  plc project_260626</text>

  <!-- Left Power Rail -->
  <line x1="16" y1="40" x2="16" y2="750" stroke="#374151" stroke-width="3" />

  <!-- ================= RUNG 1 ================= -->
  <!-- Rung Separator -->
  <line x1="16" y1="195" x2="780" y2="195" stroke="#e5e7eb" stroke-width="1" />
  <!-- Rung Label -->
  <text x="24" y="70" font-family="Consolas, 'Courier New', monospace" font-size="10" font-weight="normal" fill="#111827" text-anchor="start">R1  step 0</text>
  
  <!-- Main Rail connection to Contact X2 -->
  <line x1="16" y1="80" x2="196" y2="80" stroke="#374151" stroke-width="2" stroke-linecap="round" fill="none" />
  
  <!-- Contact X2 (NO) -->
  <text x="224" y="66" font-family="Consolas, 'Courier New', monospace" font-size="10" font-weight="bold" fill="#111827" text-anchor="middle">X2</text>
  <line x1="196" y1="80" x2="217" y2="80" stroke="#374151" stroke-width="2" stroke-linecap="round" fill="none" />
  <line x1="235" y1="80" x2="252" y2="80" stroke="#374151" stroke-width="2" stroke-linecap="round" fill="none" />
  <line x1="217" y1="71" x2="217" y2="89" stroke="#2563eb" stroke-width="2.5" />
  <line x1="235" y1="71" x2="235" y2="89" stroke="#2563eb" stroke-width="2.5" />

  <!-- Branching vertical wire at X=252 -->
  <line x1="252" y1="80" x2="252" y2="164" stroke="#374151" stroke-width="2" stroke-linecap="round" fill="none" />

  <!-- Branch 1 (top): T2 -> SET M110 -->
  <line x1="252" y1="80" x2="258" y2="80" stroke="#374151" stroke-width="2" stroke-linecap="round" fill="none" />
  <!-- Contact T2 (NO) -->
  <text x="286" y="66" font-family="Consolas, 'Courier New', monospace" font-size="10" font-weight="bold" fill="#111827" text-anchor="middle">T2</text>
  <line x1="258" y1="80" x2="279" y2="80" stroke="#374151" stroke-width="2" stroke-linecap="round" fill="none" />
  <line x1="297" y1="80" x2="314" y2="80" stroke="#374151" stroke-width="2" stroke-linecap="round" fill="none" />
  <line x1="279" y1="71" x2="279" y2="89" stroke="#2563eb" stroke-width="2.5" />
  <line x1="297" y1="71" x2="297" y2="89" stroke="#2563eb" stroke-width="2.5" />
  
  <!-- Wire to SET M110 -->
  <line x1="314" y1="80" x2="670" y2="80" stroke="#374151" stroke-width="2" stroke-linecap="round" fill="none" />
  <!-- Coil SET M110 -->
  <text x="710" y="62" font-family="Consolas, 'Courier New', monospace" font-size="10" font-weight="bold" fill="#111827" text-anchor="middle">S M110</text>
  <ellipse cx="710" cy="80" rx="34" ry="11" fill="#ffffff" stroke="#dc2626" stroke-width="2" />

  <!-- Branch 2 (middle): RST M111 -->
  <!-- Wire to RST M111 -->
  <line x1="252" y1="122" x2="670" y2="122" stroke="#374151" stroke-width="2" stroke-linecap="round" fill="none" />
  <!-- Coil RST M111 -->
  <text x="710" y="104" font-family="Consolas, 'Courier New', monospace" font-size="10" font-weight="bold" fill="#111827" text-anchor="middle">R M111</text>
  <ellipse cx="710" cy="122" rx="34" ry="11" fill="#ffffff" stroke="#dc2626" stroke-width="2" />

  <!-- Branch 3 (bottom): Timer T2 -->
  <!-- Wire to Timer T2 -->
  <line x1="252" y1="164" x2="650" y2="164" stroke="#374151" stroke-width="2" stroke-linecap="round" fill="none" />
  <!-- Timer Block T2 -->
  <rect x="650" y="146" width="100" height="36" rx="4" ry="4" fill="#ffffff" stroke="#d97706" stroke-width="2" />
  <text x="700" y="160" font-family="Consolas, 'Courier New', monospace" font-size="10" font-weight="bold" fill="#111827" text-anchor="middle">T2</text>
  <text x="700" y="173" font-family="Consolas, 'Courier New', monospace" font-size="9" font-weight="normal" fill="#111827" text-anchor="middle">T#1000ms</text>

  <!-- Junction Dots for Rung 1 -->
  <circle cx="252" cy="80" r="2.5" fill="#374151" />
  <circle cx="252" cy="122" r="2.5" fill="#374151" />


  <!-- ================= RUNG 2 ================= -->
  <!-- Rung Separator -->
  <line x1="16" y1="340" x2="780" y2="340" stroke="#e5e7eb" stroke-width="1" />
  <!-- Rung Label -->
  <text x="24" y="215" font-family="Consolas, 'Courier New', monospace" font-size="10" font-weight="normal" fill="#111827" text-anchor="start">R2  step 10</text>
  
  <!-- Main Rail connection to Contact X3 -->
  <line x1="16" y1="225" x2="196" y2="225" stroke="#374151" stroke-width="2" stroke-linecap="round" fill="none" />
  
  <!-- Contact X3 (NO) -->
  <text x="224" y="211" font-family="Consolas, 'Courier New', monospace" font-size="10" font-weight="bold" fill="#111827" text-anchor="middle">X3</text>
  <line x1="196" y1="225" x2="217" y2="225" stroke="#374151" stroke-width="2" stroke-linecap="round" fill="none" />
  <line x1="235" y1="225" x2="252" y2="225" stroke="#374151" stroke-width="2" stroke-linecap="round" fill="none" />
  <line x1="217" y1="216" x2="217" y2="234" stroke="#2563eb" stroke-width="2.5" />
  <line x1="235" y1="216" x2="235" y2="234" stroke="#2563eb" stroke-width="2.5" />

  <!-- Branching vertical wire at X=252 -->
  <line x1="252" y1="225" x2="252" y2="309" stroke="#374151" stroke-width="2" stroke-linecap="round" fill="none" />

  <!-- Branch 1 (top): T3 -> SET M111 -->
  <line x1="252" y1="225" x2="258" y2="225" stroke="#374151" stroke-width="2" stroke-linecap="round" fill="none" />
  <!-- Contact T3 (NO) -->
  <text x="286" y="211" font-family="Consolas, 'Courier New', monospace" font-size="10" font-weight="bold" fill="#111827" text-anchor="middle">T3</text>
  <line x1="258" y1="225" x2="279" y2="225" stroke="#374151" stroke-width="2" stroke-linecap="round" fill="none" />
  <line x1="297" y1="225" x2="314" y2="225" stroke="#374151" stroke-width="2" stroke-linecap="round" fill="none" />
  <line x1="279" y1="216" x2="279" y2="234" stroke="#2563eb" stroke-width="2.5" />
  <line x1="297" y1="216" x2="297" y2="234" stroke="#2563eb" stroke-width="2.5" />
  
  <!-- Wire to SET M111 -->
  <line x1="314" y1="225" x2="670" y2="225" stroke="#374151" stroke-width="2" stroke-linecap="round" fill="none" />
  <!-- Coil SET M111 -->
  <text x="710" y="207" font-family="Consolas, 'Courier New', monospace" font-size="10" font-weight="bold" fill="#111827" text-anchor="middle">S M111</text>
  <ellipse cx="710" cy="225" rx="34" ry="11" fill="#ffffff" stroke="#dc2626" stroke-width="2" />

  <!-- Branch 2 (middle): RST M110 -->
  <!-- Wire to RST M110 -->
  <line x1="252" y1="267" x2="670" y2="267" stroke="#374151" stroke-width="2" stroke-linecap="round" fill="none" />
  <!-- Coil RST M110 -->
  <text x="710" y="249" font-family="Consolas, 'Courier New', monospace" font-size="10" font-weight="bold" fill="#111827" text-anchor="middle">R M110</text>
  <ellipse cx="710" cy="267" rx="34" ry="11" fill="#ffffff" stroke="#dc2626" stroke-width="2" />

  <!-- Branch 3 (bottom): Timer T3 -->
  <!-- Wire to Timer T3 -->
  <line x1="252" y1="309" x2="650" y2="309" stroke="#374151" stroke-width="2" stroke-linecap="round" fill="none" />
  <!-- Timer Block T3 -->
  <rect x="650" y="291" width="100" height="36" rx="4" ry="4" fill="#ffffff" stroke="#d97706" stroke-width="2" />
  <text x="700" y="305" font-family="Consolas, 'Courier New', monospace" font-size="10" font-weight="bold" fill="#111827" text-anchor="middle">T3</text>
  <text x="700" y="318" font-family="Consolas, 'Courier New', monospace" font-size="9" font-weight="normal" fill="#111827" text-anchor="middle">T#1000ms</text>

  <!-- Junction Dots for Rung 2 -->
  <circle cx="252" cy="225" r="2.5" fill="#374151" />
  <circle cx="252" cy="267" r="2.5" fill="#374151" />


  <!-- ================= RUNG 3 ================= -->
  <!-- Rung Separator -->
  <line x1="16" y1="445" x2="780" y2="445" stroke="#e5e7eb" stroke-width="1" />
  <!-- Rung Label -->
  <text x="24" y="360" font-family="Consolas, 'Courier New', monospace" font-size="10" font-weight="normal" fill="#111827" text-anchor="start">R3  step 20</text>

  <!-- Main Rail connection to Contact M110 -->
  <line x1="16" y1="370" x2="196" y2="370" stroke="#374151" stroke-width="2" stroke-linecap="round" fill="none" />
  
  <!-- Contact M110 (NO) -->
  <text x="224" y="356" font-family="Consolas, 'Courier New', monospace" font-size="10" font-weight="bold" fill="#111827" text-anchor="middle">M110</text>
  <line x1="196" y1="370" x2="217" y2="370" stroke="#374151" stroke-width="2" stroke-linecap="round" fill="none" />
  <line x1="235" y1="370" x2="252" y2="370" stroke="#374151" stroke-width="2" stroke-linecap="round" fill="none" />
  <line x1="217" y1="361" x2="217" y2="379" stroke="#2563eb" stroke-width="2.5" />
  <line x1="235" y1="361" x2="235" y2="379" stroke="#2563eb" stroke-width="2.5" />

  <!-- Branching vertical wire at X=252 -->
  <line x1="252" y1="370" x2="252" y2="412" stroke="#374151" stroke-width="2" stroke-linecap="round" fill="none" />

  <!-- Branch 1 (top): X1103 (NO) -> M102 -->
  <line x1="252" y1="370" x2="258" y2="370" stroke="#374151" stroke-width="2" stroke-linecap="round" fill="none" />
  <!-- Contact X1103 (NO) -->
  <text x="286" y="356" font-family="Consolas, 'Courier New', monospace" font-size="10" font-weight="bold" fill="#111827" text-anchor="middle">X1103</text>
  <line x1="258" y1="370" x2="279" y2="370" stroke="#374151" stroke-width="2" stroke-linecap="round" fill="none" />
  <line x1="297" y1="370" x2="314" y2="370" stroke="#374151" stroke-width="2" stroke-linecap="round" fill="none" />
  <line x1="279" y1="361" x2="279" y2="379" stroke="#2563eb" stroke-width="2.5" />
  <line x1="297" y1="361" x2="297" y2="379" stroke="#2563eb" stroke-width="2.5" />

  <!-- Wire to M102 -->
  <line x1="314" y1="370" x2="670" y2="370" stroke="#374151" stroke-width="2" stroke-linecap="round" fill="none" />
  <!-- Coil M102 -->
  <text x="710" y="352" font-family="Consolas, 'Courier New', monospace" font-size="10" font-weight="bold" fill="#111827" text-anchor="middle">M102</text>
  <ellipse cx="710" cy="370" rx="34" ry="11" fill="#ffffff" stroke="#dc2626" stroke-width="2" />

  <!-- Branch 2 (bottom): X1103 (NC) -> M103 -->
  <line x1="252" y1="412" x2="258" y2="412" stroke="#374151" stroke-width="2" stroke-linecap="round" fill="none" />
  <!-- Contact X1103 (NC) -->
  <text x="286" y="398" font-family="Consolas, 'Courier New', monospace" font-size="10" font-weight="bold" fill="#111827" text-anchor="middle">/X1103</text>
  <line x1="258" y1="412" x2="279" y2="412" stroke="#374151" stroke-width="2" stroke-linecap="round" fill="none" />
  <line x1="297" y1="412" x2="314" y2="412" stroke="#374151" stroke-width="2" stroke-linecap="round" fill="none" />
  <line x1="279" y1="403" x2="279" y2="421" stroke="#2563eb" stroke-width="2.5" />
  <line x1="297" y1="403" x2="297" y2="421" stroke="#2563eb" stroke-width="2.5" />
  <line x1="275" y1="421" x2="297" y2="403" stroke="#2563eb" stroke-width="2" />

  <!-- Wire to M103 -->
  <line x1="314" y1="412" x2="670" y2="412" stroke="#374151" stroke-width="2" stroke-linecap="round" fill="none" />
  <!-- Coil M103 -->
  <text x="710" y="394" font-family="Consolas, 'Courier New', monospace" font-size="10" font-weight="bold" fill="#111827" text-anchor="middle">M103</text>
  <ellipse cx="710" cy="412" rx="34" ry="11" fill="#ffffff" stroke="#dc2626" stroke-width="2" />

  <!-- Junction Dot for Rung 3 -->
  <circle cx="252" cy="370" r="2.5" fill="#374151" />


  <!-- ================= RUNG 4 ================= -->
  <!-- Rung Separator -->
  <line x1="16" y1="510" x2="780" y2="510" stroke="#e5e7eb" stroke-width="1" />
  <!-- Rung Label -->
  <text x="24" y="465" font-family="Consolas, 'Courier New', monospace" font-size="10" font-weight="normal" fill="#111827" text-anchor="start">R4  step 27</text>

  <!-- Main Rail connection to Contact M111 -->
  <line x1="16" y1="475" x2="196" y2="475" stroke="#374151" stroke-width="2" stroke-linecap="round" fill="none" />
  
  <!-- Contact M111 (NO) -->
  <text x="224" y="461" font-family="Consolas, 'Courier New', monospace" font-size="10" font-weight="bold" fill="#111827" text-anchor="middle">M111</text>
  <line x1="196" y1="475" x2="217" y2="475" stroke="#374151" stroke-width="2" stroke-linecap="round" fill="none" />
  <line x1="235" y1="475" x2="258" y2="475" stroke="#374151" stroke-width="2" stroke-linecap="round" fill="none" />
  <line x1="217" y1="466" x2="217" y2="484" stroke="#2563eb" stroke-width="2.5" />
  <line x1="235" y1="466" x2="235" y2="484" stroke="#2563eb" stroke-width="2.5" />

  <!-- Contact X1103 (NO) -->
  <text x="286" y="461" font-family="Consolas, 'Courier New', monospace" font-size="10" font-weight="bold" fill="#111827" text-anchor="middle">X1103</text>
  <line x1="258" y1="475" x2="279" y2="475" stroke="#374151" stroke-width="2" stroke-linecap="round" fill="none" />
  <line x1="297" y1="475" x2="670" y2="475" stroke="#374151" stroke-width="2" stroke-linecap="round" fill="none" />
  <line x1="279" y1="466" x2="279" y2="484" stroke="#2563eb" stroke-width="2.5" />
  <line x1="297" y1="466" x2="297" y2="484" stroke="#2563eb" stroke-width="2.5" />

  <!-- Coil M100 -->
  <text x="710" y="457" font-family="Consolas, 'Courier New', monospace" font-size="10" font-weight="bold" fill="#111827" text-anchor="middle">M100</text>
  <ellipse cx="710" cy="475" rx="34" ry="11" fill="#ffffff" stroke="#dc2626" stroke-width="2" />


  <!-- ================= RUNG 5 ================= -->
  <!-- Rung Label -->
  <text x="24" y="530" font-family="Consolas, 'Courier New', monospace" font-size="10" font-weight="normal" fill="#111827" text-anchor="start">R5  step 30</text>

  <!-- Main Rail connection to Contact SM400 -->
  <line x1="16" y1="540" x2="196" y2="540" stroke="#374151" stroke-width="2" stroke-linecap="round" fill="none" />
  
  <!-- Contact SM400 (NO) -->
  <text x="224" y="526" font-family="Consolas, 'Courier New', monospace" font-size="10" font-weight="bold" fill="#111827" text-anchor="middle">SM400</text>
  <line x1="196" y1="540" x2="217" y2="540" stroke="#374151" stroke-width="2" stroke-linecap="round" fill="none" />
  <line x1="235" y1="540" x2="252" y2="540" stroke="#374151" stroke-width="2" stroke-linecap="round" fill="none" />
  <line x1="217" y1="531" x2="217" y2="549" stroke="#2563eb" stroke-width="2.5" />
  <line x1="235" y1="531" x2="235" y2="549" stroke="#2563eb" stroke-width="2.5" />

  <!-- Vertical branching wire at X=252 (SM400 output) -->
  <line x1="252" y1="540" x2="252" y2="624" stroke="#374151" stroke-width="2" stroke-linecap="round" fill="none" />

  <!-- ================= BRANCH A (Top): (M102 OR M100) -> Y2D ================= -->
  <!-- Upper OR branch (M102 NO) at Y=540 -->
  <line x1="252" y1="540" x2="258" y2="540" stroke="#374151" stroke-width="2" stroke-linecap="round" fill="none" />
  <text x="286" y="526" font-family="Consolas, 'Courier New', monospace" font-size="10" font-weight="bold" fill="#111827" text-anchor="middle">M102</text>
  <line x1="258" y1="540" x2="279" y2="540" stroke="#374151" stroke-width="2" stroke-linecap="round" fill="none" />
  <line x1="297" y1="540" x2="314" y2="540" stroke="#374151" stroke-width="2" stroke-linecap="round" fill="none" />
  <line x1="279" y1="531" x2="279" y2="549" stroke="#2563eb" stroke-width="2.5" />
  <line x1="297" y1="531" x2="297" y2="549" stroke="#2563eb" stroke-width="2.5" />

  <!-- Lower OR branch (M100 NO) at Y=582 -->
  <line x1="252" y1="582" x2="258" y2="582" stroke="#374151" stroke-width="2" stroke-linecap="round" fill="none" />
  <text x="286" y="568" font-family="Consolas, 'Courier New', monospace" font-size="10" font-weight="bold" fill="#111827" text-anchor="middle">M100</text>
  <line x1="258" y1="582" x2="279" y2="582" stroke="#374151" stroke-width="2" stroke-linecap="round" fill="none" />
  <line x1="297" y1="582" x2="314" y2="582" stroke="#374151" stroke-width="2" stroke-linecap="round" fill="none" />
  <line x1="279" y1="573" x2="279" y2="591" stroke="#2563eb" stroke-width="2.5" />
  <line x1="297" y1="573" x2="297" y2="591" stroke="#2563eb" stroke-width="2.5" />

  <!-- Merge vertical wire for first OR at X=314 (Y=540 to 582) -->
  <line x1="314" y1="540" x2="314" y2="582" stroke="#374151" stroke-width="2" stroke-linecap="round" fill="none" />
  
  <!-- Wire to Coil Y2D -->
  <line x1="314" y1="540" x2="670" y2="540" stroke="#374151" stroke-width="2" stroke-linecap="round" fill="none" />
  <!-- Coil Y2D -->
  <text x="710" y="522" font-family="Consolas, 'Courier New', monospace" font-size="10" font-weight="bold" fill="#111827" text-anchor="middle">Y2D</text>
  <ellipse cx="710" cy="540" rx="34" ry="11" fill="#ffffff" stroke="#dc2626" stroke-width="2" />


  <!-- ================= BRANCH B (Bottom): (M103 OR M100) -> branches to (T10 OR M100 -> Y2E) and T10 Timer ================= -->
  <!-- Upper branch of OR1 (M103 NO) at Y=624 -->
  <line x1="252" y1="624" x2="258" y2="624" stroke="#374151" stroke-width="2" stroke-linecap="round" fill="none" />
  <text x="286" y="610" font-family="Consolas, 'Courier New', monospace" font-size="10" font-weight="bold" fill="#111827" text-anchor="middle">M103</text>
  <line x1="258" y1="624" x2="279" y2="624" stroke="#374151" stroke-width="2" stroke-linecap="round" fill="none" />
  <line x1="297" y1="624" x2="314" y2="624" stroke="#374151" stroke-width="2" stroke-linecap="round" fill="none" />
  <line x1="279" y1="615" x2="279" y2="633" stroke="#2563eb" stroke-width="2.5" />
  <line x1="297" y1="615" x2="297" y2="633" stroke="#2563eb" stroke-width="2.5" />

  <!-- Lower branch of OR1 (M100 NO) at Y=666 -->
  <line x1="252" y1="666" x2="258" y2="666" stroke="#374151" stroke-width="2" stroke-linecap="round" fill="none" />
  <text x="286" y="652" font-family="Consolas, 'Courier New', monospace" font-size="10" font-weight="bold" fill="#111827" text-anchor="middle">M100</text>
  <line x1="258" y1="666" x2="279" y2="666" stroke="#374151" stroke-width="2" stroke-linecap="round" fill="none" />
  <line x1="297" y1="666" x2="314" y2="666" stroke="#374151" stroke-width="2" stroke-linecap="round" fill="none" />
  <line x1="279" y1="657" x2="279" y2="675" stroke="#2563eb" stroke-width="2.5" />
  <line x1="297" y1="657" x2="297" y2="675" stroke="#2563eb" stroke-width="2.5" />

  <!-- Merge vertical wire for OR1 at X=314 (Y=624 to 666) -->
  <line x1="314" y1="624" x2="314" y2="666" stroke="#374151" stroke-width="2" stroke-linecap="round" fill="none" />
  <!-- Connection from OR1 merge to OR2 split -->
  <line x1="314" y1="624" x2="326" y2="624" stroke="#374151" stroke-width="2" stroke-linecap="round" fill="none" />

  <!-- Vertical branching wire at X=320 (OR1 output) going down to Y=708 -->
  <line x1="320" y1="624" x2="320" y2="708" stroke="#374151" stroke-width="2" stroke-linecap="round" fill="none" />

  <!-- --- Sub-branch B1 (Y2E line): (T10 NC OR M100 NO) at Y=624/666 --- -->
  <!-- Upper branch of OR2 (T10 NC) at Y=624 -->
  <line x1="320" y1="624" x2="326" y2="624" stroke="#374151" stroke-width="2" stroke-linecap="round" fill="none" />
  <text x="354" y="610" font-family="Consolas, 'Courier New', monospace" font-size="10" font-weight="bold" fill="#111827" text-anchor="middle">T10</text>
  <line x1="326" y1="624" x2="347" y2="624" stroke="#374151" stroke-width="2" stroke-linecap="round" fill="none" />
  <line x1="365" y1="624" x2="382" y2="624" stroke="#374151" stroke-width="2" stroke-linecap="round" fill="none" />
  <line x1="347" y1="615" x2="347" y2="633" stroke="#2563eb" stroke-width="2.5" />
  <line x1="365" y1="615" x2="365" y2="633" stroke="#2563eb" stroke-width="2.5" />
  <line x1="343" y1="633" x2="369" y2="615" stroke="#2563eb" stroke-width="2" />

  <!-- Lower branch of OR2 (M100 NO) at Y=666 -->
  <line x1="320" y1="666" x2="326" y2="666" stroke="#374151" stroke-width="2" stroke-linecap="round" fill="none" />
  <text x="354" y="652" font-family="Consolas, 'Courier New', monospace" font-size="10" font-weight="bold" fill="#111827" text-anchor="middle">M100</text>
  <line x1="326" y1="666" x2="347" y2="666" stroke="#374151" stroke-width="2" stroke-linecap="round" fill="none" />
  <line x1="365" y1="666" x2="382" y2="666" stroke="#374151" stroke-width="2" stroke-linecap="round" fill="none" />
  <line x1="347" y1="657" x2="347" y2="675" stroke="#2563eb" stroke-width="2.5" />
  <line x1="365" y1="657" x2="365" y2="675" stroke="#2563eb" stroke-width="2.5" />

  <!-- Merge vertical wire for OR2 at X=382 (Y=624 to 666) -->
  <line x1="382" y1="624" x2="382" y2="666" stroke="#374151" stroke-width="2" stroke-linecap="round" fill="none" />
  
  <!-- Wire to Coil Y2E -->
  <line x1="382" y1="624" x2="670" y2="624" stroke="#374151" stroke-width="2" stroke-linecap="round" fill="none" />
  <!-- Coil Y2E -->
  <text x="710" y="606" font-family="Consolas, 'Courier New', monospace" font-size="10" font-weight="bold" fill="#111827" text-anchor="middle">Y2E</text>
  <ellipse cx="710" cy="624" rx="34" ry="11" fill="#ffffff" stroke="#dc2626" stroke-width="2" />

  <!-- --- Sub-branch B2 (Timer line): T10 Timer at Y=708 --- -->
  <line x1="320" y1="708" x2="650" y2="708" stroke="#374151" stroke-width="2" stroke-linecap="round" fill="none" />
  <!-- Timer Block T10 -->
  <rect x="650" y="690" width="100" height="36" rx="4" ry="4" fill="#ffffff" stroke="#d97706" stroke-width="2" />
  <text x="700" y="704" font-family="Consolas, 'Courier New', monospace" font-size="10" font-weight="bold" fill="#111827" text-anchor="middle">T10</text>
  <text x="700" y="717" font-family="Consolas, 'Courier New', monospace" font-size="9" font-weight="normal" fill="#111827" text-anchor="middle">T#500ms</text>


  <!-- Junction Dots for Rung 5 -->
  <!-- X=252 dots -->
  <circle cx="252" cy="540" r="2.5" fill="#374151" />
  <circle cx="252" cy="582" r="2.5" fill="#374151" />
  <circle cx="252" cy="624" r="2.5" fill="#374151" />
  <!-- X=314 dots -->
  <circle cx="314" cy="540" r="2.5" fill="#374151" />
  <circle cx="314" cy="624" r="2.5" fill="#374151" />
  <!-- X=320 dots -->
  <circle cx="320" cy="624" r="2.5" fill="#374151" />
  <circle cx="320" cy="666" r="2.5" fill="#374151" />
  <!-- X=382 dot -->
  <circle cx="382" cy="624" r="2.5" fill="#374151" />

</svg>