<?xml version="1.0" encoding="UTF-8"?>
<svg xmlns="http://www.w3.org/2000/svg" width="940" height="534" viewBox="0 0 940 534"><text x="24" y="14" fill="#111827" font-family="Segoe UI, sans-serif" font-size="13" font-weight="bold">P02_Lamp  |  plc project_260626</text><line x1="16" y1="10" x2="16" y2="524.0" stroke="#374151" stroke-width="3" /><g class="wires"><line x1="322" y1="33.0" x2="364" y2="33.0" stroke="#374151" stroke-width="2" stroke-linecap="round" /><line x1="444" y1="33.0" x2="464" y2="33.0" stroke="#374151" stroke-width="2" stroke-linecap="round" /><line x1="260" y1="75.0" x2="266" y2="75.0" stroke="#374151" stroke-width="2" stroke-linecap="round" /><line x1="24" y1="33.0" x2="24" y2="117.0" stroke="#374151" stroke-width="2" stroke-linecap="round" /><line x1="24" y1="33.0" x2="204" y2="33.0" stroke="#374151" stroke-width="2" stroke-linecap="round" /><line x1="24" y1="75.0" x2="204" y2="75.0" stroke="#374151" stroke-width="2" stroke-linecap="round" /><line x1="24" y1="117.0" x2="204" y2="117.0" stroke="#374151" stroke-width="2" stroke-linecap="round" /><line x1="260" y1="33.0" x2="322" y2="33.0" stroke="#374151" stroke-width="2" stroke-linecap="round" /><line x1="322" y1="75.0" x2="322" y2="33.0" stroke="#374151" stroke-width="2" stroke-linecap="round" /><line x1="260" y1="117.0" x2="322" y2="117.0" stroke="#374151" stroke-width="2" stroke-linecap="round" /><line x1="322" y1="117.0" x2="322" y2="33.0" stroke="#374151" stroke-width="2" stroke-linecap="round" /><circle cx="322.0" cy="33.0" r="2.5" fill="#374151" stroke="none" /><circle cx="24.0" cy="33.0" r="2.5" fill="#374151" stroke="none" /><circle cx="24.0" cy="117.0" r="2.5" fill="#374151" stroke="none" /><circle cx="322.0" cy="117.0" r="2.5" fill="#374151" stroke="none" /></g><g class="symbols"><g><rect x="204" y="20.0" width="56" height="26" fill="#ffffff" stroke="none" /><line x1="204" y1="33.0" x2="216" y2="33.0" stroke="#374151" stroke-width="2" /><line x1="248" y1="33.0" x2="260" y2="33.0" stroke="#374151" stroke-width="2" /><line x1="216" y1="24.0" x2="216" y2="42.0" stroke="#2563eb" stroke-width="2.5" /><line x1="248" y1="24.0" x2="248" y2="42.0" stroke="#2563eb" stroke-width="2.5" /><text x="232.0" y="18.0" fill="#111827" font-family="Consolas, 'Courier New', monospace" font-size="10" text-anchor="middle" font-weight="bold">M202</text></g><g><rect x="204" y="62.0" width="56" height="26" fill="#ffffff" stroke="none" /><line x1="204" y1="75.0" x2="216" y2="75.0" stroke="#374151" stroke-width="2" /><line x1="248" y1="75.0" x2="260" y2="75.0" stroke="#374151" stroke-width="2" /><line x1="216" y1="66.0" x2="216" y2="84.0" stroke="#2563eb" stroke-width="2.5" /><line x1="248" y1="66.0" x2="248" y2="84.0" stroke="#2563eb" stroke-width="2.5" /><line x1="214" y1="84.0" x2="250" y2="66.0" stroke="#2563eb" stroke-width="2" /><text x="232.0" y="60.0" fill="#111827" font-family="Consolas, 'Courier New', monospace" font-size="10" text-anchor="middle" font-weight="bold">M202</text></g><g><rect x="266" y="62.0" width="56" height="26" fill="#ffffff" stroke="none" /><line x1="266" y1="75.0" x2="278" y2="75.0" stroke="#374151" stroke-width="2" /><line x1="310" y1="75.0" x2="322" y2="75.0" stroke="#374151" stroke-width="2" /><line x1="278" y1="66.0" x2="278" y2="84.0" stroke="#2563eb" stroke-width="2.5" /><line x1="310" y1="66.0" x2="310" y2="84.0" stroke="#2563eb" stroke-width="2.5" /><text x="294.0" y="60.0" fill="#111827" font-family="Consolas, 'Courier New', monospace" font-size="10" text-anchor="middle" font-weight="bold">SM412</text></g><g><rect x="204" y="104.0" width="56" height="26" fill="#ffffff" stroke="none" /><line x1="204" y1="117.0" x2="216" y2="117.0" stroke="#374151" stroke-width="2" /><line x1="248" y1="117.0" x2="260" y2="117.0" stroke="#374151" stroke-width="2" /><line x1="216" y1="108.0" x2="216" y2="126.0" stroke="#2563eb" stroke-width="2.5" /><line x1="248" y1="108.0" x2="248" y2="126.0" stroke="#2563eb" stroke-width="2.5" /><text x="232.0" y="102.0" fill="#111827" font-family="Consolas, 'Courier New', monospace" font-size="10" text-anchor="middle" font-weight="bold">M503</text></g><g><rect x="364" y="20.0" width="80" height="26" fill="#ffffff" stroke="none" /><line x1="364" y1="33.0" x2="370.0" y2="33.0" stroke="#374151" stroke-width="2" /><line x1="438.0" y1="33.0" x2="444" y2="33.0" stroke="#374151" stroke-width="2" /><ellipse cx="404.0" cy="33.0" rx="34.0" ry="11.0" fill="#fff" stroke="#dc2626" stroke-width="2" /><text x="404.0" y="37.0" fill="#111827" font-family="Consolas, 'Courier New', monospace" font-size="10" text-anchor="middle" font-weight="bold">Y20</text></g></g><g class="labels"><text x="8" y="67.0" fill="#111827" font-family="Consolas, 'Courier New', monospace" font-size="10" text-anchor="start" font-weight="normal">R1  step -</text></g><line x1="8" y1="136.0" x2="9999" y2="136.0" stroke="#e5e7eb" stroke-width="1" /><g class="wires"><line x1="322" y1="157.0" x2="364" y2="157.0" stroke="#374151" stroke-width="2" stroke-linecap="round" /><line x1="444" y1="157.0" x2="464" y2="157.0" stroke="#374151" stroke-width="2" stroke-linecap="round" /><line x1="260" y1="157.0" x2="266" y2="157.0" stroke="#374151" stroke-width="2" stroke-linecap="round" /><line x1="24" y1="157.0" x2="24" y2="199.0" stroke="#374151" stroke-width="2" stroke-linecap="round" /><line x1="24" y1="157.0" x2="204" y2="157.0" stroke="#374151" stroke-width="2" stroke-linecap="round" /><line x1="24" y1="199.0" x2="204" y2="199.0" stroke="#374151" stroke-width="2" stroke-linecap="round" /><line x1="260" y1="199.0" x2="322" y2="199.0" stroke="#374151" stroke-width="2" stroke-linecap="round" /><line x1="322" y1="199.0" x2="322" y2="157.0" stroke="#374151" stroke-width="2" stroke-linecap="round" /><circle cx="322.0" cy="157.0" r="2.5" fill="#374151" stroke="none" /><circle cx="24.0" cy="157.0" r="2.5" fill="#374151" stroke="none" /><circle cx="24.0" cy="199.0" r="2.5" fill="#374151" stroke="none" /><circle cx="322.0" cy="199.0" r="2.5" fill="#374151" stroke="none" /></g><g class="symbols"><g><rect x="204" y="144.0" width="56" height="26" fill="#ffffff" stroke="none" /><line x1="204" y1="157.0" x2="216" y2="157.0" stroke="#374151" stroke-width="2" /><line x1="248" y1="157.0" x2="260" y2="157.0" stroke="#374151" stroke-width="2" /><line x1="216" y1="148.0" x2="216" y2="166.0" stroke="#2563eb" stroke-width="2.5" /><line x1="248" y1="148.0" x2="248" y2="166.0" stroke="#2563eb" stroke-width="2.5" /><text x="232.0" y="142.0" fill="#111827" font-family="Consolas, 'Courier New', monospace" font-size="10" text-anchor="middle" font-weight="bold">M57</text></g><g><rect x="266" y="144.0" width="56" height="26" fill="#ffffff" stroke="none" /><line x1="266" y1="157.0" x2="278" y2="157.0" stroke="#374151" stroke-width="2" /><line x1="310" y1="157.0" x2="322" y2="157.0" stroke="#374151" stroke-width="2" /><line x1="278" y1="148.0" x2="278" y2="166.0" stroke="#2563eb" stroke-width="2.5" /><line x1="310" y1="148.0" x2="310" y2="166.0" stroke="#2563eb" stroke-width="2.5" /><text x="294.0" y="142.0" fill="#111827" font-family="Consolas, 'Courier New', monospace" font-size="10" text-anchor="middle" font-weight="bold">SM412</text></g><g><rect x="204" y="186.0" width="56" height="26" fill="#ffffff" stroke="none" /><line x1="204" y1="199.0" x2="216" y2="199.0" stroke="#374151" stroke-width="2" /><line x1="248" y1="199.0" x2="260" y2="199.0" stroke="#374151" stroke-width="2" /><line x1="216" y1="190.0" x2="216" y2="208.0" stroke="#2563eb" stroke-width="2.5" /><line x1="248" y1="190.0" x2="248" y2="208.0" stroke="#2563eb" stroke-width="2.5" /><text x="232.0" y="184.0" fill="#111827" font-family="Consolas, 'Courier New', monospace" font-size="10" text-anchor="middle" font-weight="bold">M503</text></g><g><rect x="364" y="144.0" width="80" height="26" fill="#ffffff" stroke="none" /><line x1="364" y1="157.0" x2="370.0" y2="157.0" stroke="#374151" stroke-width="2" /><line x1="438.0" y1="157.0" x2="444" y2="157.0" stroke="#374151" stroke-width="2" /><ellipse cx="404.0" cy="157.0" rx="34.0" ry="11.0" fill="#fff" stroke="#dc2626" stroke-width="2" /><text x="404.0" y="161.0" fill="#111827" font-family="Consolas, 'Courier New', monospace" font-size="10" text-anchor="middle" font-weight="bold">Y3C</text></g></g><g class="labels"><text x="8" y="170.0" fill="#111827" font-family="Consolas, 'Courier New', monospace" font-size="10" text-anchor="start" font-weight="normal">R2  step 6</text></g><line x1="8" y1="218.0" x2="9999" y2="218.0" stroke="#e5e7eb" stroke-width="1" /><g class="wires"><line x1="322" y1="239.0" x2="364" y2="239.0" stroke="#374151" stroke-width="2" stroke-linecap="round" /><line x1="444" y1="239.0" x2="464" y2="239.0" stroke="#374151" stroke-width="2" stroke-linecap="round" /><line x1="260" y1="239.0" x2="266" y2="239.0" stroke="#374151" stroke-width="2" stroke-linecap="round" /><line x1="24" y1="239.0" x2="24" y2="281.0" stroke="#374151" stroke-width="2" stroke-linecap="round" /><line x1="24" y1="239.0" x2="204" y2="239.0" stroke="#374151" stroke-width="2" stroke-linecap="round" /><line x1="24" y1="281.0" x2="204" y2="281.0" stroke="#374151" stroke-width="2" stroke-linecap="round" /><line x1="260" y1="281.0" x2="322" y2="281.0" stroke="#374151" stroke-width="2" stroke-linecap="round" /><line x1="322" y1="281.0" x2="322" y2="239.0" stroke="#374151" stroke-width="2" stroke-linecap="round" /><circle cx="322.0" cy="239.0" r="2.5" fill="#374151" stroke="none" /><circle cx="24.0" cy="239.0" r="2.5" fill="#374151" stroke="none" /><circle cx="24.0" cy="281.0" r="2.5" fill="#374151" stroke="none" /><circle cx="322.0" cy="281.0" r="2.5" fill="#374151" stroke="none" /></g><g class="symbols"><g><rect x="204" y="226.0" width="56" height="26" fill="#ffffff" stroke="none" /><line x1="204" y1="239.0" x2="216" y2="239.0" stroke="#374151" stroke-width="2" /><line x1="248" y1="239.0" x2="260" y2="239.0" stroke="#374151" stroke-width="2" /><line x1="216" y1="230.0" x2="216" y2="248.0" stroke="#2563eb" stroke-width="2.5" /><line x1="248" y1="230.0" x2="248" y2="248.0" stroke="#2563eb" stroke-width="2.5" /><text x="232.0" y="224.0" fill="#111827" font-family="Consolas, 'Courier New', monospace" font-size="10" text-anchor="middle" font-weight="bold">M202</text></g><g><rect x="266" y="226.0" width="56" height="26" fill="#ffffff" stroke="none" /><line x1="266" y1="239.0" x2="278" y2="239.0" stroke="#374151" stroke-width="2" /><line x1="310" y1="239.0" x2="322" y2="239.0" stroke="#374151" stroke-width="2" /><line x1="278" y1="230.0" x2="278" y2="248.0" stroke="#2563eb" stroke-width="2.5" /><line x1="310" y1="230.0" x2="310" y2="248.0" stroke="#2563eb" stroke-width="2.5" /><text x="294.0" y="224.0" fill="#111827" font-family="Consolas, 'Courier New', monospace" font-size="10" text-anchor="middle" font-weight="bold">M210</text></g><g><rect x="204" y="268.0" width="56" height="26" fill="#ffffff" stroke="none" /><line x1="204" y1="281.0" x2="216" y2="281.0" stroke="#374151" stroke-width="2" /><line x1="248" y1="281.0" x2="260" y2="281.0" stroke="#374151" stroke-width="2" /><line x1="216" y1="272.0" x2="216" y2="290.0" stroke="#2563eb" stroke-width="2.5" /><line x1="248" y1="272.0" x2="248" y2="290.0" stroke="#2563eb" stroke-width="2.5" /><text x="232.0" y="266.0" fill="#111827" font-family="Consolas, 'Courier New', monospace" font-size="10" text-anchor="middle" font-weight="bold">M503</text></g><g><rect x="364" y="226.0" width="80" height="26" fill="#ffffff" stroke="none" /><line x1="364" y1="239.0" x2="370.0" y2="239.0" stroke="#374151" stroke-width="2" /><line x1="438.0" y1="239.0" x2="444" y2="239.0" stroke="#374151" stroke-width="2" /><ellipse cx="404.0" cy="239.0" rx="34.0" ry="11.0" fill="#fff" stroke="#dc2626" stroke-width="2" /><text x="404.0" y="243.0" fill="#111827" font-family="Consolas, 'Courier New', monospace" font-size="10" text-anchor="middle" font-weight="bold">Y3D</text></g></g><g class="labels"><text x="8" y="252.0" fill="#111827" font-family="Consolas, 'Courier New', monospace" font-size="10" text-anchor="start" font-weight="normal">R3  step 10</text></g><line x1="8" y1="300.0" x2="9999" y2="300.0" stroke="#e5e7eb" stroke-width="1" /><g class="wires"><line x1="470" y1="321.0" x2="494" y2="321.0" stroke="#374151" stroke-width="2" stroke-linecap="round" /><line x1="574" y1="321.0" x2="594" y2="321.0" stroke="#374151" stroke-width="2" stroke-linecap="round" /><line x1="334" y1="321.0" x2="340" y2="321.0" stroke="#374151" stroke-width="2" stroke-linecap="round" /><line x1="334" y1="363.0" x2="340" y2="363.0" stroke="#374151" stroke-width="2" stroke-linecap="round" /><line x1="24" y1="321.0" x2="204" y2="321.0" stroke="#374151" stroke-width="2" stroke-linecap="round" /><line x1="260" y1="321.0" x2="272" y2="321.0" stroke="#374151" stroke-width="2" stroke-linecap="round" /><line x1="272" y1="321.0" x2="272" y2="363.0" stroke="#374151" stroke-width="2" stroke-linecap="round" /><line x1="272" y1="321.0" x2="278" y2="321.0" stroke="#374151" stroke-width="2" stroke-linecap="round" /><line x1="272" y1="363.0" x2="278" y2="363.0" stroke="#374151" stroke-width="2" stroke-linecap="round" /><line x1="396" y1="363.0" x2="396" y2="321.0" stroke="#374151" stroke-width="2" stroke-linecap="round" /><line x1="396" y1="321.0" x2="408" y2="321.0" stroke="#374151" stroke-width="2" stroke-linecap="round" /><line x1="408" y1="405.0" x2="414" y2="405.0" stroke="#374151" stroke-width="2" stroke-linecap="round" /><line x1="408" y1="321.0" x2="408" y2="405.0" stroke="#374151" stroke-width="2" stroke-linecap="round" /><line x1="470" y1="405.0" x2="470" y2="321.0" stroke="#374151" stroke-width="2" stroke-linecap="round" /><line x1="396" y1="321.0" x2="470" y2="321.0" stroke="#374151" stroke-width="2" stroke-linecap="round" /><circle cx="470.0" cy="321.0" r="2.5" fill="#374151" stroke="none" /><circle cx="272.0" cy="321.0" r="2.5" fill="#374151" stroke="none" /><circle cx="272.0" cy="363.0" r="2.5" fill="#374151" stroke="none" /><circle cx="396.0" cy="321.0" r="2.5" fill="#374151" stroke="none" /><circle cx="408.0" cy="321.0" r="2.5" fill="#374151" stroke="none" /><circle cx="408.0" cy="405.0" r="2.5" fill="#374151" stroke="none" /></g><g class="symbols"><g><rect x="204" y="308.0" width="56" height="26" fill="#ffffff" stroke="none" /><line x1="204" y1="321.0" x2="216" y2="321.0" stroke="#374151" stroke-width="2" /><line x1="248" y1="321.0" x2="260" y2="321.0" stroke="#374151" stroke-width="2" /><line x1="216" y1="312.0" x2="216" y2="330.0" stroke="#2563eb" stroke-width="2.5" /><line x1="248" y1="312.0" x2="248" y2="330.0" stroke="#2563eb" stroke-width="2.5" /><text x="232.0" y="306.0" fill="#111827" font-family="Consolas, 'Courier New', monospace" font-size="10" text-anchor="middle" font-weight="bold">M202</text></g><g><rect x="278" y="308.0" width="56" height="26" fill="#ffffff" stroke="none" /><line x1="278" y1="321.0" x2="290" y2="321.0" stroke="#374151" stroke-width="2" /><line x1="322" y1="321.0" x2="334" y2="321.0" stroke="#374151" stroke-width="2" /><line x1="290" y1="312.0" x2="290" y2="330.0" stroke="#2563eb" stroke-width="2.5" /><line x1="322" y1="312.0" x2="322" y2="330.0" stroke="#2563eb" stroke-width="2.5" /><text x="306.0" y="306.0" fill="#111827" font-family="Consolas, 'Courier New', monospace" font-size="10" text-anchor="middle" font-weight="bold">M211</text></g><g><rect x="340" y="308.0" width="56" height="26" fill="#ffffff" stroke="none" /><line x1="340" y1="321.0" x2="352" y2="321.0" stroke="#374151" stroke-width="2" /><line x1="384" y1="321.0" x2="396" y2="321.0" stroke="#374151" stroke-width="2" /><line x1="352" y1="312.0" x2="352" y2="330.0" stroke="#2563eb" stroke-width="2.5" /><line x1="384" y1="312.0" x2="384" y2="330.0" stroke="#2563eb" stroke-width="2.5" /><text x="368.0" y="306.0" fill="#111827" font-family="Consolas, 'Courier New', monospace" font-size="10" text-anchor="middle" font-weight="bold">SM412</text></g><g><rect x="278" y="350.0" width="56" height="26" fill="#ffffff" stroke="none" /><line x1="278" y1="363.0" x2="290" y2="363.0" stroke="#374151" stroke-width="2" /><line x1="322" y1="363.0" x2="334" y2="363.0" stroke="#374151" stroke-width="2" /><line x1="290" y1="354.0" x2="290" y2="372.0" stroke="#2563eb" stroke-width="2.5" /><line x1="322" y1="354.0" x2="322" y2="372.0" stroke="#2563eb" stroke-width="2.5" /><text x="306.0" y="348.0" fill="#111827" font-family="Consolas, 'Courier New', monospace" font-size="10" text-anchor="middle" font-weight="bold">M215</text></g><g><rect x="340" y="350.0" width="56" height="26" fill="#ffffff" stroke="none" /><line x1="340" y1="363.0" x2="352" y2="363.0" stroke="#374151" stroke-width="2" /><line x1="384" y1="363.0" x2="396" y2="363.0" stroke="#374151" stroke-width="2" /><line x1="352" y1="354.0" x2="352" y2="372.0" stroke="#2563eb" stroke-width="2.5" /><line x1="384" y1="354.0" x2="384" y2="372.0" stroke="#2563eb" stroke-width="2.5" /><text x="368.0" y="348.0" fill="#111827" font-family="Consolas, 'Courier New', monospace" font-size="10" text-anchor="middle" font-weight="bold">M216</text></g><g><rect x="414" y="392.0" width="56" height="26" fill="#ffffff" stroke="none" /><line x1="414" y1="405.0" x2="426" y2="405.0" stroke="#374151" stroke-width="2" /><line x1="458" y1="405.0" x2="470" y2="405.0" stroke="#374151" stroke-width="2" /><line x1="426" y1="396.0" x2="426" y2="414.0" stroke="#2563eb" stroke-width="2.5" /><line x1="458" y1="396.0" x2="458" y2="414.0" stroke="#2563eb" stroke-width="2.5" /><text x="442.0" y="390.0" fill="#111827" font-family="Consolas, 'Courier New', monospace" font-size="10" text-anchor="middle" font-weight="bold">M503</text></g><g><rect x="494" y="308.0" width="80" height="26" fill="#ffffff" stroke="none" /><line x1="494" y1="321.0" x2="500.0" y2="321.0" stroke="#374151" stroke-width="2" /><line x1="568.0" y1="321.0" x2="574" y2="321.0" stroke="#374151" stroke-width="2" /><ellipse cx="534.0" cy="321.0" rx="34.0" ry="11.0" fill="#fff" stroke="#dc2626" stroke-width="2" /><text x="534.0" y="325.0" fill="#111827" font-family="Consolas, 'Courier New', monospace" font-size="10" text-anchor="middle" font-weight="bold">Y3E</text></g></g><g class="labels"><text x="8" y="355.0" fill="#111827" font-family="Consolas, 'Courier New', monospace" font-size="10" text-anchor="start" font-weight="normal">R4  step 14</text></g><line x1="8" y1="424.0" x2="9999" y2="424.0" stroke="#e5e7eb" stroke-width="1" /><g class="wires"><line x1="322" y1="445.0" x2="364" y2="445.0" stroke="#374151" stroke-width="2" stroke-linecap="round" /><line x1="444" y1="445.0" x2="464" y2="445.0" stroke="#374151" stroke-width="2" stroke-linecap="round" /><line x1="260" y1="445.0" x2="266" y2="445.0" stroke="#374151" stroke-width="2" stroke-linecap="round" /><line x1="24" y1="445.0" x2="24" y2="487.0" stroke="#374151" stroke-width="2" stroke-linecap="round" /><line x1="24" y1="445.0" x2="204" y2="445.0" stroke="#374151" stroke-width="2" stroke-linecap="round" /><line x1="24" y1="487.0" x2="204" y2="487.0" stroke="#374151" stroke-width="2" stroke-linecap="round" /><line x1="260" y1="487.0" x2="322" y2="487.0" stroke="#374151" stroke-width="2" stroke-linecap="round" /><line x1="322" y1="487.0" x2="322" y2="445.0" stroke="#374151" stroke-width="2" stroke-linecap="round" /><circle cx="322.0" cy="445.0" r="2.5" fill="#374151" stroke="none" /><circle cx="24.0" cy="445.0" r="2.5" fill="#374151" stroke="none" /><circle cx="24.0" cy="487.0" r="2.5" fill="#374151" stroke="none" /><circle cx="322.0" cy="487.0" r="2.5" fill="#374151" stroke="none" /></g><g class="symbols"><g><rect x="204" y="432.0" width="56" height="26" fill="#ffffff" stroke="none" /><line x1="204" y1="445.0" x2="216" y2="445.0" stroke="#374151" stroke-width="2" /><line x1="248" y1="445.0" x2="260" y2="445.0" stroke="#374151" stroke-width="2" /><line x1="216" y1="436.0" x2="216" y2="454.0" stroke="#2563eb" stroke-width="2.5" /><line x1="248" y1="436.0" x2="248" y2="454.0" stroke="#2563eb" stroke-width="2.5" /><line x1="214" y1="454.0" x2="250" y2="436.0" stroke="#2563eb" stroke-width="2" /><text x="232.0" y="430.0" fill="#111827" font-family="Consolas, 'Courier New', monospace" font-size="10" text-anchor="middle" font-weight="bold">M57</text></g><g><rect x="266" y="432.0" width="56" height="26" fill="#ffffff" stroke="none" /><line x1="266" y1="445.0" x2="278" y2="445.0" stroke="#374151" stroke-width="2" /><line x1="310" y1="445.0" x2="322" y2="445.0" stroke="#374151" stroke-width="2" /><line x1="278" y1="436.0" x2="278" y2="454.0" stroke="#2563eb" stroke-width="2.5" /><line x1="310" y1="436.0" x2="310" y2="454.0" stroke="#2563eb" stroke-width="2.5" /><line x1="276" y1="454.0" x2="312" y2="436.0" stroke="#2563eb" stroke-width="2" /><text x="294.0" y="430.0" fill="#111827" font-family="Consolas, 'Courier New', monospace" font-size="10" text-anchor="middle" font-weight="bold">M220</text></g><g><rect x="204" y="474.0" width="56" height="26" fill="#ffffff" stroke="none" /><line x1="204" y1="487.0" x2="216" y2="487.0" stroke="#374151" stroke-width="2" /><line x1="248" y1="487.0" x2="260" y2="487.0" stroke="#374151" stroke-width="2" /><line x1="216" y1="478.0" x2="216" y2="496.0" stroke="#2563eb" stroke-width="2.5" /><line x1="248" y1="478.0" x2="248" y2="496.0" stroke="#2563eb" stroke-width="2.5" /><text x="232.0" y="472.0" fill="#111827" font-family="Consolas, 'Courier New', monospace" font-size="10" text-anchor="middle" font-weight="bold">M503</text></g><g><rect x="364" y="432.0" width="80" height="26" fill="#ffffff" stroke="none" /><line x1="364" y1="445.0" x2="370.0" y2="445.0" stroke="#374151" stroke-width="2" /><line x1="438.0" y1="445.0" x2="444" y2="445.0" stroke="#374151" stroke-width="2" /><ellipse cx="404.0" cy="445.0" rx="34.0" ry="11.0" fill="#fff" stroke="#dc2626" stroke-width="2" /><text x="404.0" y="449.0" fill="#111827" font-family="Consolas, 'Courier New', monospace" font-size="10" text-anchor="middle" font-weight="bold">Y3F</text></g></g><g class="labels"><text x="8" y="458.0" fill="#111827" font-family="Consolas, 'Courier New', monospace" font-size="10" text-anchor="start" font-weight="normal">R5  step 23</text></g><line x1="8" y1="506.0" x2="9999" y2="506.0" stroke="#e5e7eb" stroke-width="1" /></svg>