<?xml version="1.0" encoding="UTF-8"?>
<svg xmlns="http://www.w3.org/2000/svg" width="940" height="648" viewBox="0 0 940 648"><text x="24" y="14" fill="#111827" font-family="Segoe UI, sans-serif" font-size="13" font-weight="bold">P11_SealerVision  |  plc project_260626</text><line x1="16" y1="10" x2="16" y2="638.0" stroke="#374151" stroke-width="3" /><g class="wires"><line x1="260" y1="33.0" x2="272" y2="33.0" stroke="#374151" stroke-width="2" stroke-linecap="round" /><line x1="24" y1="33.0" x2="204" y2="33.0" stroke="#374151" stroke-width="2" stroke-linecap="round" /><line x1="272" y1="33.0" x2="278" y2="33.0" stroke="#374151" stroke-width="2" stroke-linecap="round" /><line x1="334" y1="33.0" x2="364" y2="33.0" stroke="#374151" stroke-width="2" stroke-linecap="round" /><line x1="464" y1="33.0" x2="484" y2="33.0" stroke="#374151" stroke-width="2" stroke-linecap="round" /><line x1="272" y1="75.0" x2="278" y2="75.0" stroke="#374151" stroke-width="2" stroke-linecap="round" /><line x1="334" y1="75.0" x2="364" y2="75.0" stroke="#374151" stroke-width="2" stroke-linecap="round" /><line x1="444" y1="75.0" x2="464" y2="75.0" stroke="#374151" stroke-width="2" stroke-linecap="round" /><line x1="272" y1="33.0" x2="272" y2="75.0" stroke="#374151" stroke-width="2" stroke-linecap="round" /><circle cx="272.0" cy="33.0" r="2.5" fill="#374151" stroke="none" /><circle cx="272.0" cy="75.0" r="2.5" fill="#374151" stroke="none" /></g><g class="symbols"><g><rect x="204" y="20.0" width="56" height="26" fill="#ffffff" stroke="none" /><line x1="204" y1="33.0" x2="216" y2="33.0" stroke="#374151" stroke-width="2" /><line x1="248" y1="33.0" x2="260" y2="33.0" stroke="#374151" stroke-width="2" /><line x1="216" y1="24.0" x2="216" y2="42.0" stroke="#2563eb" stroke-width="2.5" /><line x1="248" y1="24.0" x2="248" y2="42.0" stroke="#2563eb" stroke-width="2.5" /><text x="232.0" y="18.0" fill="#111827" font-family="Consolas, 'Courier New', monospace" font-size="10" text-anchor="middle" font-weight="bold">SM400</text></g><g><rect x="278" y="20.0" width="56" height="26" fill="#ffffff" stroke="none" /><line x1="278" y1="33.0" x2="290" y2="33.0" stroke="#374151" stroke-width="2" /><line x1="322" y1="33.0" x2="334" y2="33.0" stroke="#374151" stroke-width="2" /><line x1="290" y1="24.0" x2="290" y2="42.0" stroke="#2563eb" stroke-width="2.5" /><line x1="322" y1="24.0" x2="322" y2="42.0" stroke="#2563eb" stroke-width="2.5" /><text x="306.0" y="18.0" fill="#111827" font-family="Consolas, 'Courier New', monospace" font-size="10" text-anchor="middle" font-weight="bold">D200_F</text></g><g><rect x="364" y="20.0" width="100" height="36" fill="#fffbeb" stroke="#d97706" stroke-width="2" rx="4" /><text x="414.0" y="36.0" fill="#111827" font-family="Consolas, 'Courier New', monospace" font-size="10" text-anchor="middle" font-weight="bold">T201</text><text x="414.0" y="50.0" fill="#111827" font-family="Consolas, 'Courier New', monospace" font-size="9" text-anchor="middle" font-weight="normal">T#5000ms</text></g><g><rect x="278" y="62.0" width="56" height="26" fill="#ffffff" stroke="none" /><line x1="278" y1="75.0" x2="290" y2="75.0" stroke="#374151" stroke-width="2" /><line x1="322" y1="75.0" x2="334" y2="75.0" stroke="#374151" stroke-width="2" /><line x1="290" y1="66.0" x2="290" y2="84.0" stroke="#2563eb" stroke-width="2.5" /><line x1="322" y1="66.0" x2="322" y2="84.0" stroke="#2563eb" stroke-width="2.5" /><text x="306.0" y="60.0" fill="#111827" font-family="Consolas, 'Courier New', monospace" font-size="10" text-anchor="middle" font-weight="bold">SM412</text></g><g><rect x="364" y="62.0" width="80" height="26" fill="#ffffff" stroke="none" /><line x1="364" y1="75.0" x2="370.0" y2="75.0" stroke="#374151" stroke-width="2" /><line x1="438.0" y1="75.0" x2="444" y2="75.0" stroke="#374151" stroke-width="2" /><ellipse cx="404.0" cy="75.0" rx="34.0" ry="11.0" fill="#fff" stroke="#dc2626" stroke-width="2" /><text x="404.0" y="79.0" fill="#111827" font-family="Consolas, 'Courier New', monospace" font-size="10" text-anchor="middle" font-weight="bold">D210_F</text></g></g><g class="labels"><text x="8" y="46.0" fill="#111827" font-family="Consolas, 'Courier New', monospace" font-size="10" text-anchor="start" font-weight="normal">R1  step -</text></g><line x1="8" y1="94.0" x2="9999" y2="94.0" stroke="#e5e7eb" stroke-width="1" /><g class="wires"><line x1="260" y1="115.0" x2="272" y2="115.0" stroke="#374151" stroke-width="2" stroke-linecap="round" /><line x1="24" y1="115.0" x2="204" y2="115.0" stroke="#374151" stroke-width="2" stroke-linecap="round" /><line x1="272" y1="115.0" x2="278" y2="115.0" stroke="#374151" stroke-width="2" stroke-linecap="round" /><line x1="334" y1="115.0" x2="364" y2="115.0" stroke="#374151" stroke-width="2" stroke-linecap="round" /><line x1="444" y1="115.0" x2="464" y2="115.0" stroke="#374151" stroke-width="2" stroke-linecap="round" /><line x1="272" y1="157.0" x2="278" y2="157.0" stroke="#374151" stroke-width="2" stroke-linecap="round" /><line x1="334" y1="157.0" x2="364" y2="157.0" stroke="#374151" stroke-width="2" stroke-linecap="round" /><line x1="444" y1="157.0" x2="464" y2="157.0" stroke="#374151" stroke-width="2" stroke-linecap="round" /><line x1="272" y1="199.0" x2="278" y2="199.0" stroke="#374151" stroke-width="2" stroke-linecap="round" /><line x1="334" y1="199.0" x2="364" y2="199.0" stroke="#374151" stroke-width="2" stroke-linecap="round" /><line x1="444" y1="199.0" x2="464" y2="199.0" stroke="#374151" stroke-width="2" stroke-linecap="round" /><line x1="272" y1="241.0" x2="278" y2="241.0" stroke="#374151" stroke-width="2" stroke-linecap="round" /><line x1="334" y1="241.0" x2="364" y2="241.0" stroke="#374151" stroke-width="2" stroke-linecap="round" /><line x1="444" y1="241.0" x2="464" y2="241.0" stroke="#374151" stroke-width="2" stroke-linecap="round" /><line x1="272" y1="115.0" x2="272" y2="241.0" stroke="#374151" stroke-width="2" stroke-linecap="round" /><circle cx="272.0" cy="115.0" r="2.5" fill="#374151" stroke="none" /><circle cx="272.0" cy="241.0" r="2.5" fill="#374151" stroke="none" /></g><g class="symbols"><g><rect x="204" y="102.0" width="56" height="26" fill="#ffffff" stroke="none" /><line x1="204" y1="115.0" x2="216" y2="115.0" stroke="#374151" stroke-width="2" /><line x1="248" y1="115.0" x2="260" y2="115.0" stroke="#374151" stroke-width="2" /><line x1="216" y1="106.0" x2="216" y2="124.0" stroke="#2563eb" stroke-width="2.5" /><line x1="248" y1="106.0" x2="248" y2="124.0" stroke="#2563eb" stroke-width="2.5" /><text x="232.0" y="100.0" fill="#111827" font-family="Consolas, 'Courier New', monospace" font-size="10" text-anchor="middle" font-weight="bold">SM400</text></g><g><rect x="278" y="102.0" width="56" height="26" fill="#ffffff" stroke="none" /><line x1="278" y1="115.0" x2="290" y2="115.0" stroke="#374151" stroke-width="2" /><line x1="322" y1="115.0" x2="334" y2="115.0" stroke="#374151" stroke-width="2" /><line x1="290" y1="106.0" x2="290" y2="124.0" stroke="#2563eb" stroke-width="2.5" /><line x1="322" y1="106.0" x2="322" y2="124.0" stroke="#2563eb" stroke-width="2.5" /><text x="306.0" y="100.0" fill="#111827" font-family="Consolas, 'Courier New', monospace" font-size="10" text-anchor="middle" font-weight="bold">X100B</text></g><g><rect x="364" y="102.0" width="80" height="26" fill="#ffffff" stroke="none" /><line x1="364" y1="115.0" x2="370.0" y2="115.0" stroke="#374151" stroke-width="2" /><line x1="438.0" y1="115.0" x2="444" y2="115.0" stroke="#374151" stroke-width="2" /><ellipse cx="404.0" cy="115.0" rx="34.0" ry="11.0" fill="#fff" stroke="#dc2626" stroke-width="2" /><text x="404.0" y="119.0" fill="#111827" font-family="Consolas, 'Courier New', monospace" font-size="10" text-anchor="middle" font-weight="bold">D210_8</text></g><g><rect x="278" y="144.0" width="56" height="26" fill="#ffffff" stroke="none" /><line x1="278" y1="157.0" x2="290" y2="157.0" stroke="#374151" stroke-width="2" /><line x1="322" y1="157.0" x2="334" y2="157.0" stroke="#374151" stroke-width="2" /><line x1="290" y1="148.0" x2="290" y2="166.0" stroke="#2563eb" stroke-width="2.5" /><line x1="322" y1="148.0" x2="322" y2="166.0" stroke="#2563eb" stroke-width="2.5" /><text x="306.0" y="142.0" fill="#111827" font-family="Consolas, 'Courier New', monospace" font-size="10" text-anchor="middle" font-weight="bold">X100C</text></g><g><rect x="364" y="144.0" width="80" height="26" fill="#ffffff" stroke="none" /><line x1="364" y1="157.0" x2="370.0" y2="157.0" stroke="#374151" stroke-width="2" /><line x1="438.0" y1="157.0" x2="444" y2="157.0" stroke="#374151" stroke-width="2" /><ellipse cx="404.0" cy="157.0" rx="34.0" ry="11.0" fill="#fff" stroke="#dc2626" stroke-width="2" /><text x="404.0" y="161.0" fill="#111827" font-family="Consolas, 'Courier New', monospace" font-size="10" text-anchor="middle" font-weight="bold">D210_9</text></g><g><rect x="278" y="186.0" width="56" height="26" fill="#ffffff" stroke="none" /><line x1="278" y1="199.0" x2="290" y2="199.0" stroke="#374151" stroke-width="2" /><line x1="322" y1="199.0" x2="334" y2="199.0" stroke="#374151" stroke-width="2" /><line x1="290" y1="190.0" x2="290" y2="208.0" stroke="#2563eb" stroke-width="2.5" /><line x1="322" y1="190.0" x2="322" y2="208.0" stroke="#2563eb" stroke-width="2.5" /><text x="306.0" y="184.0" fill="#111827" font-family="Consolas, 'Courier New', monospace" font-size="10" text-anchor="middle" font-weight="bold">X100D</text></g><g><rect x="364" y="186.0" width="80" height="26" fill="#ffffff" stroke="none" /><line x1="364" y1="199.0" x2="370.0" y2="199.0" stroke="#374151" stroke-width="2" /><line x1="438.0" y1="199.0" x2="444" y2="199.0" stroke="#374151" stroke-width="2" /><ellipse cx="404.0" cy="199.0" rx="34.0" ry="11.0" fill="#fff" stroke="#dc2626" stroke-width="2" /><text x="404.0" y="203.0" fill="#111827" font-family="Consolas, 'Courier New', monospace" font-size="10" text-anchor="middle" font-weight="bold">D210_A</text></g><g><rect x="278" y="228.0" width="56" height="26" fill="#ffffff" stroke="none" /><line x1="278" y1="241.0" x2="290" y2="241.0" stroke="#374151" stroke-width="2" /><line x1="322" y1="241.0" x2="334" y2="241.0" stroke="#374151" stroke-width="2" /><line x1="290" y1="232.0" x2="290" y2="250.0" stroke="#2563eb" stroke-width="2.5" /><line x1="322" y1="232.0" x2="322" y2="250.0" stroke="#2563eb" stroke-width="2.5" /><text x="306.0" y="226.0" fill="#111827" font-family="Consolas, 'Courier New', monospace" font-size="10" text-anchor="middle" font-weight="bold">X100E</text></g><g><rect x="364" y="228.0" width="80" height="26" fill="#ffffff" stroke="none" /><line x1="364" y1="241.0" x2="370.0" y2="241.0" stroke="#374151" stroke-width="2" /><line x1="438.0" y1="241.0" x2="444" y2="241.0" stroke="#374151" stroke-width="2" /><ellipse cx="404.0" cy="241.0" rx="34.0" ry="11.0" fill="#fff" stroke="#dc2626" stroke-width="2" /><text x="404.0" y="245.0" fill="#111827" font-family="Consolas, 'Courier New', monospace" font-size="10" text-anchor="middle" font-weight="bold">D210_B</text></g></g><g class="labels"><text x="8" y="170.0" fill="#111827" font-family="Consolas, 'Courier New', monospace" font-size="10" text-anchor="start" font-weight="normal">R2  step 10  | POS</text></g><line x1="8" y1="260.0" x2="9999" y2="260.0" stroke="#e5e7eb" stroke-width="1" /><g class="wires"><line x1="24" y1="281.0" x2="204" y2="281.0" stroke="#374151" stroke-width="2" stroke-linecap="round" /><line x1="260" y1="281.0" x2="364" y2="281.0" stroke="#374151" stroke-width="2" stroke-linecap="round" /><line x1="444" y1="281.0" x2="464" y2="281.0" stroke="#374151" stroke-width="2" stroke-linecap="round" /></g><g class="symbols"><g><rect x="204" y="268.0" width="56" height="26" fill="#ffffff" stroke="none" /><line x1="204" y1="281.0" x2="216" y2="281.0" stroke="#374151" stroke-width="2" /><line x1="248" y1="281.0" x2="260" y2="281.0" stroke="#374151" stroke-width="2" /><line x1="216" y1="272.0" x2="216" y2="290.0" stroke="#2563eb" stroke-width="2.5" /><line x1="248" y1="272.0" x2="248" y2="290.0" stroke="#2563eb" stroke-width="2.5" /><text x="232.0" y="266.0" fill="#111827" font-family="Consolas, 'Courier New', monospace" font-size="10" text-anchor="middle" font-weight="bold">X1009</text></g><g><rect x="364" y="268.0" width="80" height="26" fill="#ffffff" stroke="none" /><line x1="364" y1="281.0" x2="370.0" y2="281.0" stroke="#374151" stroke-width="2" /><line x1="438.0" y1="281.0" x2="444" y2="281.0" stroke="#374151" stroke-width="2" /><ellipse cx="404.0" cy="281.0" rx="34.0" ry="11.0" fill="#fff" stroke="#dc2626" stroke-width="2" /><text x="404.0" y="285.0" fill="#111827" font-family="Consolas, 'Courier New', monospace" font-size="10" text-anchor="middle" font-weight="bold">D210_0</text></g></g><g class="labels"><text x="8" y="273.0" fill="#111827" font-family="Consolas, 'Courier New', monospace" font-size="10" text-anchor="start" font-weight="normal">R3  step 27</text></g><line x1="8" y1="300.0" x2="9999" y2="300.0" stroke="#e5e7eb" stroke-width="1" /><g class="wires"><line x1="24" y1="321.0" x2="204" y2="321.0" stroke="#374151" stroke-width="2" stroke-linecap="round" /><line x1="260" y1="321.0" x2="364" y2="321.0" stroke="#374151" stroke-width="2" stroke-linecap="round" /><line x1="444" y1="321.0" x2="464" y2="321.0" stroke="#374151" stroke-width="2" stroke-linecap="round" /></g><g class="symbols"><g><rect x="204" y="308.0" width="56" height="26" fill="#ffffff" stroke="none" /><line x1="204" y1="321.0" x2="216" y2="321.0" stroke="#374151" stroke-width="2" /><line x1="248" y1="321.0" x2="260" y2="321.0" stroke="#374151" stroke-width="2" /><line x1="216" y1="312.0" x2="216" y2="330.0" stroke="#2563eb" stroke-width="2.5" /><line x1="248" y1="312.0" x2="248" y2="330.0" stroke="#2563eb" stroke-width="2.5" /><text x="232.0" y="306.0" fill="#111827" font-family="Consolas, 'Courier New', monospace" font-size="10" text-anchor="middle" font-weight="bold">X1009</text></g><g><rect x="364" y="308.0" width="80" height="26" fill="#ffffff" stroke="none" /><line x1="364" y1="321.0" x2="370.0" y2="321.0" stroke="#374151" stroke-width="2" /><line x1="438.0" y1="321.0" x2="444" y2="321.0" stroke="#374151" stroke-width="2" /><ellipse cx="404.0" cy="321.0" rx="34.0" ry="11.0" fill="#fff" stroke="#dc2626" stroke-width="2" /><text x="404.0" y="325.0" fill="#111827" font-family="Consolas, 'Courier New', monospace" font-size="10" text-anchor="middle" font-weight="bold">D210_1</text></g></g><g class="labels"><text x="8" y="313.0" fill="#111827" font-family="Consolas, 'Courier New', monospace" font-size="10" text-anchor="start" font-weight="normal">R4  step 29</text></g><line x1="8" y1="340.0" x2="9999" y2="340.0" stroke="#e5e7eb" stroke-width="1" /><g class="wires"><line x1="24" y1="361.0" x2="204" y2="361.0" stroke="#374151" stroke-width="2" stroke-linecap="round" /><line x1="260" y1="361.0" x2="364" y2="361.0" stroke="#374151" stroke-width="2" stroke-linecap="round" /><line x1="444" y1="361.0" x2="464" y2="361.0" stroke="#374151" stroke-width="2" stroke-linecap="round" /></g><g class="symbols"><g><rect x="204" y="348.0" width="56" height="26" fill="#ffffff" stroke="none" /><line x1="204" y1="361.0" x2="216" y2="361.0" stroke="#374151" stroke-width="2" /><line x1="248" y1="361.0" x2="260" y2="361.0" stroke="#374151" stroke-width="2" /><line x1="216" y1="352.0" x2="216" y2="370.0" stroke="#2563eb" stroke-width="2.5" /><line x1="248" y1="352.0" x2="248" y2="370.0" stroke="#2563eb" stroke-width="2.5" /><text x="232.0" y="346.0" fill="#111827" font-family="Consolas, 'Courier New', monospace" font-size="10" text-anchor="middle" font-weight="bold">X100A</text></g><g><rect x="364" y="348.0" width="80" height="26" fill="#ffffff" stroke="none" /><line x1="364" y1="361.0" x2="370.0" y2="361.0" stroke="#374151" stroke-width="2" /><line x1="438.0" y1="361.0" x2="444" y2="361.0" stroke="#374151" stroke-width="2" /><ellipse cx="404.0" cy="361.0" rx="34.0" ry="11.0" fill="#fff" stroke="#dc2626" stroke-width="2" /><text x="404.0" y="365.0" fill="#111827" font-family="Consolas, 'Courier New', monospace" font-size="10" text-anchor="middle" font-weight="bold">D210_2</text></g></g><g class="labels"><text x="8" y="353.0" fill="#111827" font-family="Consolas, 'Courier New', monospace" font-size="10" text-anchor="start" font-weight="normal">R5  step 31</text></g><line x1="8" y1="380.0" x2="9999" y2="380.0" stroke="#e5e7eb" stroke-width="1" /><g class="wires"><line x1="24" y1="401.0" x2="204" y2="401.0" stroke="#374151" stroke-width="2" stroke-linecap="round" /><line x1="260" y1="401.0" x2="364" y2="401.0" stroke="#374151" stroke-width="2" stroke-linecap="round" /><line x1="444" y1="401.0" x2="464" y2="401.0" stroke="#374151" stroke-width="2" stroke-linecap="round" /></g><g class="symbols"><g><rect x="204" y="388.0" width="56" height="26" fill="#ffffff" stroke="none" /><line x1="204" y1="401.0" x2="216" y2="401.0" stroke="#374151" stroke-width="2" /><line x1="248" y1="401.0" x2="260" y2="401.0" stroke="#374151" stroke-width="2" /><line x1="216" y1="392.0" x2="216" y2="410.0" stroke="#2563eb" stroke-width="2.5" /><line x1="248" y1="392.0" x2="248" y2="410.0" stroke="#2563eb" stroke-width="2.5" /><text x="232.0" y="386.0" fill="#111827" font-family="Consolas, 'Courier New', monospace" font-size="10" text-anchor="middle" font-weight="bold">M60</text></g><g><rect x="364" y="388.0" width="80" height="26" fill="#ffffff" stroke="none" /><line x1="364" y1="401.0" x2="370.0" y2="401.0" stroke="#374151" stroke-width="2" /><line x1="438.0" y1="401.0" x2="444" y2="401.0" stroke="#374151" stroke-width="2" /><ellipse cx="404.0" cy="401.0" rx="34.0" ry="11.0" fill="#fff" stroke="#dc2626" stroke-width="2" /><text x="404.0" y="405.0" fill="#111827" font-family="Consolas, 'Courier New', monospace" font-size="10" text-anchor="middle" font-weight="bold">D210_E</text></g></g><g class="labels"><text x="8" y="393.0" fill="#111827" font-family="Consolas, 'Courier New', monospace" font-size="10" text-anchor="start" font-weight="normal">R6  step 33</text></g><line x1="8" y1="420.0" x2="9999" y2="420.0" stroke="#e5e7eb" stroke-width="1" /><g class="wires"><line x1="24" y1="441.0" x2="204" y2="441.0" stroke="#374151" stroke-width="2" stroke-linecap="round" /><line x1="384" y1="441.0" x2="408" y2="441.0" stroke="#374151" stroke-width="2" stroke-linecap="round" /><line x1="488" y1="441.0" x2="508" y2="441.0" stroke="#374151" stroke-width="2" stroke-linecap="round" /><line x1="260" y1="441.0" x2="266" y2="441.0" stroke="#374151" stroke-width="2" stroke-linecap="round" /><line x1="322" y1="441.0" x2="328" y2="441.0" stroke="#374151" stroke-width="2" stroke-linecap="round" /></g><g class="symbols"><g><rect x="204" y="428.0" width="56" height="26" fill="#ffffff" stroke="none" /><line x1="204" y1="441.0" x2="216" y2="441.0" stroke="#374151" stroke-width="2" /><line x1="248" y1="441.0" x2="260" y2="441.0" stroke="#374151" stroke-width="2" /><line x1="216" y1="432.0" x2="216" y2="450.0" stroke="#2563eb" stroke-width="2.5" /><line x1="248" y1="432.0" x2="248" y2="450.0" stroke="#2563eb" stroke-width="2.5" /><text x="232.0" y="426.0" fill="#111827" font-family="Consolas, 'Courier New', monospace" font-size="10" text-anchor="middle" font-weight="bold">M210</text></g><g><rect x="266" y="428.0" width="56" height="26" fill="#ffffff" stroke="none" /><line x1="266" y1="441.0" x2="278" y2="441.0" stroke="#374151" stroke-width="2" /><line x1="310" y1="441.0" x2="322" y2="441.0" stroke="#374151" stroke-width="2" /><line x1="278" y1="432.0" x2="278" y2="450.0" stroke="#2563eb" stroke-width="2.5" /><line x1="310" y1="432.0" x2="310" y2="450.0" stroke="#2563eb" stroke-width="2.5" /><text x="294.0" y="426.0" fill="#111827" font-family="Consolas, 'Courier New', monospace" font-size="10" text-anchor="middle" font-weight="bold">M175</text></g><g><rect x="328" y="428.0" width="56" height="26" fill="#ffffff" stroke="none" /><line x1="328" y1="441.0" x2="340" y2="441.0" stroke="#374151" stroke-width="2" /><line x1="372" y1="441.0" x2="384" y2="441.0" stroke="#374151" stroke-width="2" /><line x1="340" y1="432.0" x2="340" y2="450.0" stroke="#2563eb" stroke-width="2.5" /><line x1="372" y1="432.0" x2="372" y2="450.0" stroke="#2563eb" stroke-width="2.5" /><line x1="338" y1="450.0" x2="374" y2="432.0" stroke="#2563eb" stroke-width="2" /><text x="356.0" y="426.0" fill="#111827" font-family="Consolas, 'Courier New', monospace" font-size="10" text-anchor="middle" font-weight="bold">M174</text></g><g><rect x="408" y="428.0" width="80" height="26" fill="#ffffff" stroke="none" /><line x1="408" y1="441.0" x2="414.0" y2="441.0" stroke="#374151" stroke-width="2" /><line x1="482.0" y1="441.0" x2="488" y2="441.0" stroke="#374151" stroke-width="2" /><ellipse cx="448.0" cy="441.0" rx="34.0" ry="11.0" fill="#fff" stroke="#dc2626" stroke-width="2" /><text x="448.0" y="445.0" fill="#111827" font-family="Consolas, 'Courier New', monospace" font-size="10" text-anchor="middle" font-weight="bold">D210_C</text></g></g><g class="labels"><text x="8" y="433.0" fill="#111827" font-family="Consolas, 'Courier New', monospace" font-size="10" text-anchor="start" font-weight="normal">R7  step 35</text></g><line x1="8" y1="460.0" x2="9999" y2="460.0" stroke="#e5e7eb" stroke-width="1" /><g class="wires"><line x1="24" y1="481.0" x2="204" y2="481.0" stroke="#374151" stroke-width="2" stroke-linecap="round" /><line x1="260" y1="481.0" x2="364" y2="481.0" stroke="#374151" stroke-width="2" stroke-linecap="round" /><line x1="444" y1="481.0" x2="464" y2="481.0" stroke="#374151" stroke-width="2" stroke-linecap="round" /></g><g class="symbols"><g><rect x="204" y="468.0" width="56" height="26" fill="#ffffff" stroke="none" /><line x1="204" y1="481.0" x2="216" y2="481.0" stroke="#374151" stroke-width="2" /><line x1="248" y1="481.0" x2="260" y2="481.0" stroke="#374151" stroke-width="2" /><line x1="216" y1="472.0" x2="216" y2="490.0" stroke="#2563eb" stroke-width="2.5" /><line x1="248" y1="472.0" x2="248" y2="490.0" stroke="#2563eb" stroke-width="2.5" /><text x="232.0" y="466.0" fill="#111827" font-family="Consolas, 'Courier New', monospace" font-size="10" text-anchor="middle" font-weight="bold">D200_0</text></g><g><rect x="364" y="468.0" width="80" height="26" fill="#ffffff" stroke="none" /><line x1="364" y1="481.0" x2="370.0" y2="481.0" stroke="#374151" stroke-width="2" /><line x1="438.0" y1="481.0" x2="444" y2="481.0" stroke="#374151" stroke-width="2" /><ellipse cx="404.0" cy="481.0" rx="34.0" ry="11.0" fill="#fff" stroke="#dc2626" stroke-width="2" /><text x="404.0" y="485.0" fill="#111827" font-family="Consolas, 'Courier New', monospace" font-size="10" text-anchor="middle" font-weight="bold">S M5000</text></g></g><g class="labels"><text x="8" y="473.0" fill="#111827" font-family="Consolas, 'Courier New', monospace" font-size="10" text-anchor="start" font-weight="normal">R8  step 39</text></g><line x1="8" y1="500.0" x2="9999" y2="500.0" stroke="#e5e7eb" stroke-width="1" /><g class="wires"><line x1="24" y1="521.0" x2="204" y2="521.0" stroke="#374151" stroke-width="2" stroke-linecap="round" /><line x1="384" y1="521.0" x2="408" y2="521.0" stroke="#374151" stroke-width="2" stroke-linecap="round" /><line x1="488" y1="521.0" x2="508" y2="521.0" stroke="#374151" stroke-width="2" stroke-linecap="round" /><line x1="260" y1="521.0" x2="266" y2="521.0" stroke="#374151" stroke-width="2" stroke-linecap="round" /><line x1="322" y1="521.0" x2="328" y2="521.0" stroke="#374151" stroke-width="2" stroke-linecap="round" /></g><g class="symbols"><g><rect x="204" y="508.0" width="56" height="26" fill="#ffffff" stroke="none" /><line x1="204" y1="521.0" x2="216" y2="521.0" stroke="#374151" stroke-width="2" /><line x1="248" y1="521.0" x2="260" y2="521.0" stroke="#374151" stroke-width="2" /><line x1="216" y1="512.0" x2="216" y2="530.0" stroke="#2563eb" stroke-width="2.5" /><line x1="248" y1="512.0" x2="248" y2="530.0" stroke="#2563eb" stroke-width="2.5" /><text x="232.0" y="506.0" fill="#111827" font-family="Consolas, 'Courier New', monospace" font-size="10" text-anchor="middle" font-weight="bold">M210</text></g><g><rect x="266" y="508.0" width="56" height="26" fill="#ffffff" stroke="none" /><line x1="266" y1="521.0" x2="278" y2="521.0" stroke="#374151" stroke-width="2" /><line x1="310" y1="521.0" x2="322" y2="521.0" stroke="#374151" stroke-width="2" /><line x1="278" y1="512.0" x2="278" y2="530.0" stroke="#2563eb" stroke-width="2.5" /><line x1="310" y1="512.0" x2="310" y2="530.0" stroke="#2563eb" stroke-width="2.5" /><text x="294.0" y="506.0" fill="#111827" font-family="Consolas, 'Courier New', monospace" font-size="10" text-anchor="middle" font-weight="bold">M175</text></g><g><rect x="328" y="508.0" width="56" height="26" fill="#ffffff" stroke="none" /><line x1="328" y1="521.0" x2="340" y2="521.0" stroke="#374151" stroke-width="2" /><line x1="372" y1="521.0" x2="384" y2="521.0" stroke="#374151" stroke-width="2" /><line x1="340" y1="512.0" x2="340" y2="530.0" stroke="#2563eb" stroke-width="2.5" /><line x1="372" y1="512.0" x2="372" y2="530.0" stroke="#2563eb" stroke-width="2.5" /><line x1="338" y1="530.0" x2="374" y2="512.0" stroke="#2563eb" stroke-width="2" /><text x="356.0" y="506.0" fill="#111827" font-family="Consolas, 'Courier New', monospace" font-size="10" text-anchor="middle" font-weight="bold">M174</text></g><g><rect x="408" y="508.0" width="80" height="26" fill="#ffffff" stroke="none" /><line x1="408" y1="521.0" x2="414.0" y2="521.0" stroke="#374151" stroke-width="2" /><line x1="482.0" y1="521.0" x2="488" y2="521.0" stroke="#374151" stroke-width="2" /><ellipse cx="448.0" cy="521.0" rx="34.0" ry="11.0" fill="#fff" stroke="#dc2626" stroke-width="2" /><text x="448.0" y="525.0" fill="#111827" font-family="Consolas, 'Courier New', monospace" font-size="10" text-anchor="middle" font-weight="bold">R M5000</text></g></g><g class="labels"><text x="8" y="513.0" fill="#111827" font-family="Consolas, 'Courier New', monospace" font-size="10" text-anchor="start" font-weight="normal">R9  step 41</text></g><line x1="8" y1="540.0" x2="9999" y2="540.0" stroke="#e5e7eb" stroke-width="1" /><g class="wires"><line x1="24" y1="561.0" x2="204" y2="561.0" stroke="#374151" stroke-width="2" stroke-linecap="round" /><line x1="260" y1="561.0" x2="364" y2="561.0" stroke="#374151" stroke-width="2" stroke-linecap="round" /><line x1="444" y1="561.0" x2="464" y2="561.0" stroke="#374151" stroke-width="2" stroke-linecap="round" /></g><g class="symbols"><g><rect x="204" y="548.0" width="56" height="26" fill="#ffffff" stroke="none" /><line x1="204" y1="561.0" x2="216" y2="561.0" stroke="#374151" stroke-width="2" /><line x1="248" y1="561.0" x2="260" y2="561.0" stroke="#374151" stroke-width="2" /><line x1="216" y1="552.0" x2="216" y2="570.0" stroke="#2563eb" stroke-width="2.5" /><line x1="248" y1="552.0" x2="248" y2="570.0" stroke="#2563eb" stroke-width="2.5" /><text x="232.0" y="546.0" fill="#111827" font-family="Consolas, 'Courier New', monospace" font-size="10" text-anchor="middle" font-weight="bold">D200_1</text></g><g><rect x="364" y="548.0" width="80" height="26" fill="#ffffff" stroke="none" /><line x1="364" y1="561.0" x2="370.0" y2="561.0" stroke="#374151" stroke-width="2" /><line x1="438.0" y1="561.0" x2="444" y2="561.0" stroke="#374151" stroke-width="2" /><ellipse cx="404.0" cy="561.0" rx="34.0" ry="11.0" fill="#fff" stroke="#dc2626" stroke-width="2" /><text x="404.0" y="565.0" fill="#111827" font-family="Consolas, 'Courier New', monospace" font-size="10" text-anchor="middle" font-weight="bold">S M5001</text></g></g><g class="labels"><text x="8" y="553.0" fill="#111827" font-family="Consolas, 'Courier New', monospace" font-size="10" text-anchor="start" font-weight="normal">R10  step 45</text></g><line x1="8" y1="580.0" x2="9999" y2="580.0" stroke="#e5e7eb" stroke-width="1" /><g class="wires"><line x1="24" y1="601.0" x2="204" y2="601.0" stroke="#374151" stroke-width="2" stroke-linecap="round" /><line x1="384" y1="601.0" x2="408" y2="601.0" stroke="#374151" stroke-width="2" stroke-linecap="round" /><line x1="488" y1="601.0" x2="508" y2="601.0" stroke="#374151" stroke-width="2" stroke-linecap="round" /><line x1="260" y1="601.0" x2="266" y2="601.0" stroke="#374151" stroke-width="2" stroke-linecap="round" /><line x1="322" y1="601.0" x2="328" y2="601.0" stroke="#374151" stroke-width="2" stroke-linecap="round" /></g><g class="symbols"><g><rect x="204" y="588.0" width="56" height="26" fill="#ffffff" stroke="none" /><line x1="204" y1="601.0" x2="216" y2="601.0" stroke="#374151" stroke-width="2" /><line x1="248" y1="601.0" x2="260" y2="601.0" stroke="#374151" stroke-width="2" /><line x1="216" y1="592.0" x2="216" y2="610.0" stroke="#2563eb" stroke-width="2.5" /><line x1="248" y1="592.0" x2="248" y2="610.0" stroke="#2563eb" stroke-width="2.5" /><text x="232.0" y="586.0" fill="#111827" font-family="Consolas, 'Courier New', monospace" font-size="10" text-anchor="middle" font-weight="bold">M210</text></g><g><rect x="266" y="588.0" width="56" height="26" fill="#ffffff" stroke="none" /><line x1="266" y1="601.0" x2="278" y2="601.0" stroke="#374151" stroke-width="2" /><line x1="310" y1="601.0" x2="322" y2="601.0" stroke="#374151" stroke-width="2" /><line x1="278" y1="592.0" x2="278" y2="610.0" stroke="#2563eb" stroke-width="2.5" /><line x1="310" y1="592.0" x2="310" y2="610.0" stroke="#2563eb" stroke-width="2.5" /><text x="294.0" y="586.0" fill="#111827" font-family="Consolas, 'Courier New', monospace" font-size="10" text-anchor="middle" font-weight="bold">M175</text></g><g><rect x="328" y="588.0" width="56" height="26" fill="#ffffff" stroke="none" /><line x1="328" y1="601.0" x2="340" y2="601.0" stroke="#374151" stroke-width="2" /><line x1="372" y1="601.0" x2="384" y2="601.0" stroke="#374151" stroke-width="2" /><line x1="340" y1="592.0" x2="340" y2="610.0" stroke="#2563eb" stroke-width="2.5" /><line x1="372" y1="592.0" x2="372" y2="610.0" stroke="#2563eb" stroke-width="2.5" /><line x1="338" y1="610.0" x2="374" y2="592.0" stroke="#2563eb" stroke-width="2" /><text x="356.0" y="586.0" fill="#111827" font-family="Consolas, 'Courier New', monospace" font-size="10" text-anchor="middle" font-weight="bold">M174</text></g><g><rect x="408" y="588.0" width="80" height="26" fill="#ffffff" stroke="none" /><line x1="408" y1="601.0" x2="414.0" y2="601.0" stroke="#374151" stroke-width="2" /><line x1="482.0" y1="601.0" x2="488" y2="601.0" stroke="#374151" stroke-width="2" /><ellipse cx="448.0" cy="601.0" rx="34.0" ry="11.0" fill="#fff" stroke="#dc2626" stroke-width="2" /><text x="448.0" y="605.0" fill="#111827" font-family="Consolas, 'Courier New', monospace" font-size="10" text-anchor="middle" font-weight="bold">R M5001</text></g></g><g class="labels"><text x="8" y="593.0" fill="#111827" font-family="Consolas, 'Courier New', monospace" font-size="10" text-anchor="start" font-weight="normal">R11  step 47</text></g><line x1="8" y1="620.0" x2="9999" y2="620.0" stroke="#e5e7eb" stroke-width="1" /></svg>