<?xml version="1.0" encoding="UTF-8"?>
<svg xmlns="http://www.w3.org/2000/svg" width="940" height="518" viewBox="0 0 940 518"><text x="24" y="14" fill="#111827" font-family="Segoe UI, sans-serif" font-size="13" font-weight="bold">P12_BodyVision  |  plc project_260626</text><line x1="16" y1="10" x2="16" y2="508.0" stroke="#374151" stroke-width="3" /><g class="wires"><line x1="260" y1="33.0" x2="364" y2="33.0" stroke="#374151" stroke-width="2" stroke-linecap="round" /><line x1="444" y1="33.0" x2="464" y2="33.0" stroke="#374151" stroke-width="2" stroke-linecap="round" /><line x1="272" y1="69.0" x2="364" y2="69.0" stroke="#374151" stroke-width="2" stroke-linecap="round" /><line x1="444" y1="69.0" x2="464" y2="69.0" stroke="#374151" stroke-width="2" stroke-linecap="round" /><line x1="24" y1="33.0" x2="204" y2="33.0" stroke="#374151" stroke-width="2" stroke-linecap="round" /><line x1="260" y1="33.0" x2="272" y2="33.0" stroke="#374151" stroke-width="2" stroke-linecap="round" /><line x1="260" y1="33.0" x2="272" y2="33.0" stroke="#374151" stroke-width="2" stroke-linecap="round" /><line x1="272" y1="33.0" x2="272" y2="69.0" stroke="#374151" stroke-width="2" stroke-linecap="round" /><circle cx="260.0" cy="33.0" r="2.5" fill="#374151" stroke="none" /><circle cx="272.0" cy="69.0" r="2.5" fill="#374151" stroke="none" /><circle cx="272.0" cy="33.0" r="2.5" fill="#374151" stroke="none" /></g><g class="symbols"><g><rect x="204" y="20.0" width="56" height="26" fill="#ffffff" stroke="none" /><line x1="204" y1="33.0" x2="216" y2="33.0" stroke="#374151" stroke-width="2" /><line x1="248" y1="33.0" x2="260" y2="33.0" stroke="#374151" stroke-width="2" /><line x1="216" y1="24.0" x2="216" y2="42.0" stroke="#2563eb" stroke-width="2.5" /><line x1="248" y1="24.0" x2="248" y2="42.0" stroke="#2563eb" stroke-width="2.5" /><text x="232.0" y="18.0" fill="#111827" font-family="Consolas, 'Courier New', monospace" font-size="10" text-anchor="middle" font-weight="bold">X1011</text></g><g><rect x="364" y="20.0" width="80" height="26" fill="#ffffff" stroke="none" /><line x1="364" y1="33.0" x2="370.0" y2="33.0" stroke="#374151" stroke-width="2" /><line x1="438.0" y1="33.0" x2="444" y2="33.0" stroke="#374151" stroke-width="2" /><ellipse cx="404.0" cy="33.0" rx="34.0" ry="11.0" fill="#fff" stroke="#dc2626" stroke-width="2" /><text x="404.0" y="37.0" fill="#111827" font-family="Consolas, 'Courier New', monospace" font-size="10" text-anchor="middle" font-weight="bold">D310_0</text></g><g><rect x="364" y="56.0" width="80" height="26" fill="#ffffff" stroke="none" /><line x1="364" y1="69.0" x2="370.0" y2="69.0" stroke="#374151" stroke-width="2" /><line x1="438.0" y1="69.0" x2="444" y2="69.0" stroke="#374151" stroke-width="2" /><ellipse cx="404.0" cy="69.0" rx="34.0" ry="11.0" fill="#fff" stroke="#dc2626" stroke-width="2" /><text x="404.0" y="73.0" fill="#111827" font-family="Consolas, 'Courier New', monospace" font-size="10" text-anchor="middle" font-weight="bold">D310_1</text></g></g><g class="labels"><text x="8" y="43.0" fill="#111827" font-family="Consolas, 'Courier New', monospace" font-size="10" text-anchor="start" font-weight="normal">R1  step -</text></g><line x1="8" y1="88.0" x2="9999" y2="88.0" stroke="#e5e7eb" stroke-width="1" /><g class="wires"><line x1="24" y1="109.0" x2="204" y2="109.0" stroke="#374151" stroke-width="2" stroke-linecap="round" /><line x1="260" y1="109.0" x2="364" y2="109.0" stroke="#374151" stroke-width="2" stroke-linecap="round" /><line x1="444" y1="109.0" x2="464" y2="109.0" stroke="#374151" stroke-width="2" stroke-linecap="round" /></g><g class="symbols"><g><rect x="204" y="96.0" width="56" height="26" fill="#ffffff" stroke="none" /><line x1="204" y1="109.0" x2="216" y2="109.0" stroke="#374151" stroke-width="2" /><line x1="248" y1="109.0" x2="260" y2="109.0" stroke="#374151" stroke-width="2" /><line x1="216" y1="100.0" x2="216" y2="118.0" stroke="#2563eb" stroke-width="2.5" /><line x1="248" y1="100.0" x2="248" y2="118.0" stroke="#2563eb" stroke-width="2.5" /><text x="232.0" y="94.0" fill="#111827" font-family="Consolas, 'Courier New', monospace" font-size="10" text-anchor="middle" font-weight="bold">X1012</text></g><g><rect x="364" y="96.0" width="80" height="26" fill="#ffffff" stroke="none" /><line x1="364" y1="109.0" x2="370.0" y2="109.0" stroke="#374151" stroke-width="2" /><line x1="438.0" y1="109.0" x2="444" y2="109.0" stroke="#374151" stroke-width="2" /><ellipse cx="404.0" cy="109.0" rx="34.0" ry="11.0" fill="#fff" stroke="#dc2626" stroke-width="2" /><text x="404.0" y="113.0" fill="#111827" font-family="Consolas, 'Courier New', monospace" font-size="10" text-anchor="middle" font-weight="bold">D310_7</text></g></g><g class="labels"><text x="8" y="101.0" fill="#111827" font-family="Consolas, 'Courier New', monospace" font-size="10" text-anchor="start" font-weight="normal">R2  step 3</text></g><line x1="8" y1="128.0" x2="9999" y2="128.0" stroke="#e5e7eb" stroke-width="1" /><g class="wires"><line x1="24" y1="149.0" x2="204" y2="149.0" stroke="#374151" stroke-width="2" stroke-linecap="round" /><line x1="260" y1="149.0" x2="364" y2="149.0" stroke="#374151" stroke-width="2" stroke-linecap="round" /><line x1="444" y1="149.0" x2="464" y2="149.0" stroke="#374151" stroke-width="2" stroke-linecap="round" /></g><g class="symbols"><g><rect x="204" y="136.0" width="56" height="26" fill="#ffffff" stroke="none" /><line x1="204" y1="149.0" x2="216" y2="149.0" stroke="#374151" stroke-width="2" /><line x1="248" y1="149.0" x2="260" y2="149.0" stroke="#374151" stroke-width="2" /><line x1="216" y1="140.0" x2="216" y2="158.0" stroke="#2563eb" stroke-width="2.5" /><line x1="248" y1="140.0" x2="248" y2="158.0" stroke="#2563eb" stroke-width="2.5" /><text x="232.0" y="134.0" fill="#111827" font-family="Consolas, 'Courier New', monospace" font-size="10" text-anchor="middle" font-weight="bold">M60</text></g><g><rect x="364" y="136.0" width="80" height="26" fill="#ffffff" stroke="none" /><line x1="364" y1="149.0" x2="370.0" y2="149.0" stroke="#374151" stroke-width="2" /><line x1="438.0" y1="149.0" x2="444" y2="149.0" stroke="#374151" stroke-width="2" /><ellipse cx="404.0" cy="149.0" rx="34.0" ry="11.0" fill="#fff" stroke="#dc2626" stroke-width="2" /><text x="404.0" y="153.0" fill="#111827" font-family="Consolas, 'Courier New', monospace" font-size="10" text-anchor="middle" font-weight="bold">D310_E</text></g></g><g class="labels"><text x="8" y="141.0" fill="#111827" font-family="Consolas, 'Courier New', monospace" font-size="10" text-anchor="start" font-weight="normal">R3  step 5</text></g><line x1="8" y1="168.0" x2="9999" y2="168.0" stroke="#e5e7eb" stroke-width="1" /><g class="wires"><line x1="24" y1="189.0" x2="204" y2="189.0" stroke="#374151" stroke-width="2" stroke-linecap="round" /><line x1="384" y1="189.0" x2="408" y2="189.0" stroke="#374151" stroke-width="2" stroke-linecap="round" /><line x1="488" y1="189.0" x2="508" y2="189.0" stroke="#374151" stroke-width="2" stroke-linecap="round" /><line x1="260" y1="189.0" x2="266" y2="189.0" stroke="#374151" stroke-width="2" stroke-linecap="round" /><line x1="322" y1="189.0" x2="328" y2="189.0" stroke="#374151" stroke-width="2" stroke-linecap="round" /></g><g class="symbols"><g><rect x="204" y="176.0" width="56" height="26" fill="#ffffff" stroke="none" /><line x1="204" y1="189.0" x2="216" y2="189.0" stroke="#374151" stroke-width="2" /><line x1="248" y1="189.0" x2="260" y2="189.0" stroke="#374151" stroke-width="2" /><line x1="216" y1="180.0" x2="216" y2="198.0" stroke="#2563eb" stroke-width="2.5" /><line x1="248" y1="180.0" x2="248" y2="198.0" stroke="#2563eb" stroke-width="2.5" /><text x="232.0" y="174.0" fill="#111827" font-family="Consolas, 'Courier New', monospace" font-size="10" text-anchor="middle" font-weight="bold">M210</text></g><g><rect x="266" y="176.0" width="56" height="26" fill="#ffffff" stroke="none" /><line x1="266" y1="189.0" x2="278" y2="189.0" stroke="#374151" stroke-width="2" /><line x1="310" y1="189.0" x2="322" y2="189.0" stroke="#374151" stroke-width="2" /><line x1="278" y1="180.0" x2="278" y2="198.0" stroke="#2563eb" stroke-width="2.5" /><line x1="310" y1="180.0" x2="310" y2="198.0" stroke="#2563eb" stroke-width="2.5" /><text x="294.0" y="174.0" fill="#111827" font-family="Consolas, 'Courier New', monospace" font-size="10" text-anchor="middle" font-weight="bold">M175</text></g><g><rect x="328" y="176.0" width="56" height="26" fill="#ffffff" stroke="none" /><line x1="328" y1="189.0" x2="340" y2="189.0" stroke="#374151" stroke-width="2" /><line x1="372" y1="189.0" x2="384" y2="189.0" stroke="#374151" stroke-width="2" /><line x1="340" y1="180.0" x2="340" y2="198.0" stroke="#2563eb" stroke-width="2.5" /><line x1="372" y1="180.0" x2="372" y2="198.0" stroke="#2563eb" stroke-width="2.5" /><line x1="338" y1="198.0" x2="374" y2="180.0" stroke="#2563eb" stroke-width="2" /><text x="356.0" y="174.0" fill="#111827" font-family="Consolas, 'Courier New', monospace" font-size="10" text-anchor="middle" font-weight="bold">M174</text></g><g><rect x="408" y="176.0" width="80" height="26" fill="#ffffff" stroke="none" /><line x1="408" y1="189.0" x2="414.0" y2="189.0" stroke="#374151" stroke-width="2" /><line x1="482.0" y1="189.0" x2="488" y2="189.0" stroke="#374151" stroke-width="2" /><ellipse cx="448.0" cy="189.0" rx="34.0" ry="11.0" fill="#fff" stroke="#dc2626" stroke-width="2" /><text x="448.0" y="193.0" fill="#111827" font-family="Consolas, 'Courier New', monospace" font-size="10" text-anchor="middle" font-weight="bold">D310_C</text></g></g><g class="labels"><text x="8" y="181.0" fill="#111827" font-family="Consolas, 'Courier New', monospace" font-size="10" text-anchor="start" font-weight="normal">R4  step 7</text></g><line x1="8" y1="208.0" x2="9999" y2="208.0" stroke="#e5e7eb" stroke-width="1" /><g class="wires"><line x1="24" y1="229.0" x2="204" y2="229.0" stroke="#374151" stroke-width="2" stroke-linecap="round" /><line x1="260" y1="229.0" x2="364" y2="229.0" stroke="#374151" stroke-width="2" stroke-linecap="round" /><line x1="444" y1="229.0" x2="464" y2="229.0" stroke="#374151" stroke-width="2" stroke-linecap="round" /></g><g class="symbols"><g><rect x="204" y="216.0" width="56" height="26" fill="#ffffff" stroke="none" /><line x1="204" y1="229.0" x2="216" y2="229.0" stroke="#374151" stroke-width="2" /><line x1="248" y1="229.0" x2="260" y2="229.0" stroke="#374151" stroke-width="2" /><line x1="216" y1="220.0" x2="216" y2="238.0" stroke="#2563eb" stroke-width="2.5" /><line x1="248" y1="220.0" x2="248" y2="238.0" stroke="#2563eb" stroke-width="2.5" /><text x="232.0" y="214.0" fill="#111827" font-family="Consolas, 'Courier New', monospace" font-size="10" text-anchor="middle" font-weight="bold">D300_0</text></g><g><rect x="364" y="216.0" width="80" height="26" fill="#ffffff" stroke="none" /><line x1="364" y1="229.0" x2="370.0" y2="229.0" stroke="#374151" stroke-width="2" /><line x1="438.0" y1="229.0" x2="444" y2="229.0" stroke="#374151" stroke-width="2" /><ellipse cx="404.0" cy="229.0" rx="34.0" ry="11.0" fill="#fff" stroke="#dc2626" stroke-width="2" /><text x="404.0" y="233.0" fill="#111827" font-family="Consolas, 'Courier New', monospace" font-size="10" text-anchor="middle" font-weight="bold">S M6000</text></g></g><g class="labels"><text x="8" y="221.0" fill="#111827" font-family="Consolas, 'Courier New', monospace" font-size="10" text-anchor="start" font-weight="normal">R5  step 11</text></g><line x1="8" y1="248.0" x2="9999" y2="248.0" stroke="#e5e7eb" stroke-width="1" /><g class="wires"><line x1="24" y1="269.0" x2="204" y2="269.0" stroke="#374151" stroke-width="2" stroke-linecap="round" /><line x1="384" y1="269.0" x2="408" y2="269.0" stroke="#374151" stroke-width="2" stroke-linecap="round" /><line x1="488" y1="269.0" x2="508" y2="269.0" stroke="#374151" stroke-width="2" stroke-linecap="round" /><line x1="260" y1="269.0" x2="266" y2="269.0" stroke="#374151" stroke-width="2" stroke-linecap="round" /><line x1="322" y1="269.0" x2="328" y2="269.0" stroke="#374151" stroke-width="2" stroke-linecap="round" /></g><g class="symbols"><g><rect x="204" y="256.0" width="56" height="26" fill="#ffffff" stroke="none" /><line x1="204" y1="269.0" x2="216" y2="269.0" stroke="#374151" stroke-width="2" /><line x1="248" y1="269.0" x2="260" y2="269.0" stroke="#374151" stroke-width="2" /><line x1="216" y1="260.0" x2="216" y2="278.0" stroke="#2563eb" stroke-width="2.5" /><line x1="248" y1="260.0" x2="248" y2="278.0" stroke="#2563eb" stroke-width="2.5" /><text x="232.0" y="254.0" fill="#111827" font-family="Consolas, 'Courier New', monospace" font-size="10" text-anchor="middle" font-weight="bold">M210</text></g><g><rect x="266" y="256.0" width="56" height="26" fill="#ffffff" stroke="none" /><line x1="266" y1="269.0" x2="278" y2="269.0" stroke="#374151" stroke-width="2" /><line x1="310" y1="269.0" x2="322" y2="269.0" stroke="#374151" stroke-width="2" /><line x1="278" y1="260.0" x2="278" y2="278.0" stroke="#2563eb" stroke-width="2.5" /><line x1="310" y1="260.0" x2="310" y2="278.0" stroke="#2563eb" stroke-width="2.5" /><text x="294.0" y="254.0" fill="#111827" font-family="Consolas, 'Courier New', monospace" font-size="10" text-anchor="middle" font-weight="bold">M175</text></g><g><rect x="328" y="256.0" width="56" height="26" fill="#ffffff" stroke="none" /><line x1="328" y1="269.0" x2="340" y2="269.0" stroke="#374151" stroke-width="2" /><line x1="372" y1="269.0" x2="384" y2="269.0" stroke="#374151" stroke-width="2" /><line x1="340" y1="260.0" x2="340" y2="278.0" stroke="#2563eb" stroke-width="2.5" /><line x1="372" y1="260.0" x2="372" y2="278.0" stroke="#2563eb" stroke-width="2.5" /><line x1="338" y1="278.0" x2="374" y2="260.0" stroke="#2563eb" stroke-width="2" /><text x="356.0" y="254.0" fill="#111827" font-family="Consolas, 'Courier New', monospace" font-size="10" text-anchor="middle" font-weight="bold">M174</text></g><g><rect x="408" y="256.0" width="80" height="26" fill="#ffffff" stroke="none" /><line x1="408" y1="269.0" x2="414.0" y2="269.0" stroke="#374151" stroke-width="2" /><line x1="482.0" y1="269.0" x2="488" y2="269.0" stroke="#374151" stroke-width="2" /><ellipse cx="448.0" cy="269.0" rx="34.0" ry="11.0" fill="#fff" stroke="#dc2626" stroke-width="2" /><text x="448.0" y="273.0" fill="#111827" font-family="Consolas, 'Courier New', monospace" font-size="10" text-anchor="middle" font-weight="bold">R M6000</text></g></g><g class="labels"><text x="8" y="261.0" fill="#111827" font-family="Consolas, 'Courier New', monospace" font-size="10" text-anchor="start" font-weight="normal">R6  step 13</text></g><line x1="8" y1="288.0" x2="9999" y2="288.0" stroke="#e5e7eb" stroke-width="1" /><g class="wires"><line x1="24" y1="309.0" x2="204" y2="309.0" stroke="#374151" stroke-width="2" stroke-linecap="round" /><line x1="260" y1="309.0" x2="364" y2="309.0" stroke="#374151" stroke-width="2" stroke-linecap="round" /><line x1="444" y1="309.0" x2="464" y2="309.0" stroke="#374151" stroke-width="2" stroke-linecap="round" /></g><g class="symbols"><g><rect x="204" y="296.0" width="56" height="26" fill="#ffffff" stroke="none" /><line x1="204" y1="309.0" x2="216" y2="309.0" stroke="#374151" stroke-width="2" /><line x1="248" y1="309.0" x2="260" y2="309.0" stroke="#374151" stroke-width="2" /><line x1="216" y1="300.0" x2="216" y2="318.0" stroke="#2563eb" stroke-width="2.5" /><line x1="248" y1="300.0" x2="248" y2="318.0" stroke="#2563eb" stroke-width="2.5" /><text x="232.0" y="294.0" fill="#111827" font-family="Consolas, 'Courier New', monospace" font-size="10" text-anchor="middle" font-weight="bold">D300_1</text></g><g><rect x="364" y="296.0" width="80" height="26" fill="#ffffff" stroke="none" /><line x1="364" y1="309.0" x2="370.0" y2="309.0" stroke="#374151" stroke-width="2" /><line x1="438.0" y1="309.0" x2="444" y2="309.0" stroke="#374151" stroke-width="2" /><ellipse cx="404.0" cy="309.0" rx="34.0" ry="11.0" fill="#fff" stroke="#dc2626" stroke-width="2" /><text x="404.0" y="313.0" fill="#111827" font-family="Consolas, 'Courier New', monospace" font-size="10" text-anchor="middle" font-weight="bold">S M6001</text></g></g><g class="labels"><text x="8" y="301.0" fill="#111827" font-family="Consolas, 'Courier New', monospace" font-size="10" text-anchor="start" font-weight="normal">R7  step 17</text></g><line x1="8" y1="328.0" x2="9999" y2="328.0" stroke="#e5e7eb" stroke-width="1" /><g class="wires"><line x1="24" y1="349.0" x2="204" y2="349.0" stroke="#374151" stroke-width="2" stroke-linecap="round" /><line x1="384" y1="349.0" x2="408" y2="349.0" stroke="#374151" stroke-width="2" stroke-linecap="round" /><line x1="488" y1="349.0" x2="508" y2="349.0" stroke="#374151" stroke-width="2" stroke-linecap="round" /><line x1="260" y1="349.0" x2="266" y2="349.0" stroke="#374151" stroke-width="2" stroke-linecap="round" /><line x1="322" y1="349.0" x2="328" y2="349.0" stroke="#374151" stroke-width="2" stroke-linecap="round" /></g><g class="symbols"><g><rect x="204" y="336.0" width="56" height="26" fill="#ffffff" stroke="none" /><line x1="204" y1="349.0" x2="216" y2="349.0" stroke="#374151" stroke-width="2" /><line x1="248" y1="349.0" x2="260" y2="349.0" stroke="#374151" stroke-width="2" /><line x1="216" y1="340.0" x2="216" y2="358.0" stroke="#2563eb" stroke-width="2.5" /><line x1="248" y1="340.0" x2="248" y2="358.0" stroke="#2563eb" stroke-width="2.5" /><text x="232.0" y="334.0" fill="#111827" font-family="Consolas, 'Courier New', monospace" font-size="10" text-anchor="middle" font-weight="bold">M210</text></g><g><rect x="266" y="336.0" width="56" height="26" fill="#ffffff" stroke="none" /><line x1="266" y1="349.0" x2="278" y2="349.0" stroke="#374151" stroke-width="2" /><line x1="310" y1="349.0" x2="322" y2="349.0" stroke="#374151" stroke-width="2" /><line x1="278" y1="340.0" x2="278" y2="358.0" stroke="#2563eb" stroke-width="2.5" /><line x1="310" y1="340.0" x2="310" y2="358.0" stroke="#2563eb" stroke-width="2.5" /><text x="294.0" y="334.0" fill="#111827" font-family="Consolas, 'Courier New', monospace" font-size="10" text-anchor="middle" font-weight="bold">M175</text></g><g><rect x="328" y="336.0" width="56" height="26" fill="#ffffff" stroke="none" /><line x1="328" y1="349.0" x2="340" y2="349.0" stroke="#374151" stroke-width="2" /><line x1="372" y1="349.0" x2="384" y2="349.0" stroke="#374151" stroke-width="2" /><line x1="340" y1="340.0" x2="340" y2="358.0" stroke="#2563eb" stroke-width="2.5" /><line x1="372" y1="340.0" x2="372" y2="358.0" stroke="#2563eb" stroke-width="2.5" /><line x1="338" y1="358.0" x2="374" y2="340.0" stroke="#2563eb" stroke-width="2" /><text x="356.0" y="334.0" fill="#111827" font-family="Consolas, 'Courier New', monospace" font-size="10" text-anchor="middle" font-weight="bold">M174</text></g><g><rect x="408" y="336.0" width="80" height="26" fill="#ffffff" stroke="none" /><line x1="408" y1="349.0" x2="414.0" y2="349.0" stroke="#374151" stroke-width="2" /><line x1="482.0" y1="349.0" x2="488" y2="349.0" stroke="#374151" stroke-width="2" /><ellipse cx="448.0" cy="349.0" rx="34.0" ry="11.0" fill="#fff" stroke="#dc2626" stroke-width="2" /><text x="448.0" y="353.0" fill="#111827" font-family="Consolas, 'Courier New', monospace" font-size="10" text-anchor="middle" font-weight="bold">R M6001</text></g></g><g class="labels"><text x="8" y="341.0" fill="#111827" font-family="Consolas, 'Courier New', monospace" font-size="10" text-anchor="start" font-weight="normal">R8  step 19</text></g><line x1="8" y1="368.0" x2="9999" y2="368.0" stroke="#e5e7eb" stroke-width="1" /><g class="wires"><line x1="260" y1="389.0" x2="364" y2="389.0" stroke="#374151" stroke-width="2" stroke-linecap="round" /><line x1="444" y1="389.0" x2="464" y2="389.0" stroke="#374151" stroke-width="2" stroke-linecap="round" /><line x1="24" y1="389.0" x2="24" y2="431.0" stroke="#374151" stroke-width="2" stroke-linecap="round" /><line x1="24" y1="389.0" x2="204" y2="389.0" stroke="#374151" stroke-width="2" stroke-linecap="round" /><line x1="24" y1="431.0" x2="204" y2="431.0" stroke="#374151" stroke-width="2" stroke-linecap="round" /><line x1="260" y1="431.0" x2="260" y2="389.0" stroke="#374151" stroke-width="2" stroke-linecap="round" /><circle cx="260.0" cy="389.0" r="2.5" fill="#374151" stroke="none" /><circle cx="24.0" cy="389.0" r="2.5" fill="#374151" stroke="none" /><circle cx="24.0" cy="431.0" r="2.5" fill="#374151" stroke="none" /></g><g class="symbols"><g><rect x="204" y="376.0" width="56" height="26" fill="#ffffff" stroke="none" /><line x1="204" y1="389.0" x2="216" y2="389.0" stroke="#374151" stroke-width="2" /><line x1="248" y1="389.0" x2="260" y2="389.0" stroke="#374151" stroke-width="2" /><line x1="216" y1="380.0" x2="216" y2="398.0" stroke="#2563eb" stroke-width="2.5" /><line x1="248" y1="380.0" x2="248" y2="398.0" stroke="#2563eb" stroke-width="2.5" /><text x="232.0" y="374.0" fill="#111827" font-family="Consolas, 'Courier New', monospace" font-size="10" text-anchor="middle" font-weight="bold">D300_2</text></g><g><rect x="204" y="418.0" width="56" height="26" fill="#ffffff" stroke="none" /><line x1="204" y1="431.0" x2="216" y2="431.0" stroke="#374151" stroke-width="2" /><line x1="248" y1="431.0" x2="260" y2="431.0" stroke="#374151" stroke-width="2" /><line x1="216" y1="422.0" x2="216" y2="440.0" stroke="#2563eb" stroke-width="2.5" /><line x1="248" y1="422.0" x2="248" y2="440.0" stroke="#2563eb" stroke-width="2.5" /><text x="232.0" y="416.0" fill="#111827" font-family="Consolas, 'Courier New', monospace" font-size="10" text-anchor="middle" font-weight="bold">D300_3</text></g><g><rect x="364" y="376.0" width="80" height="26" fill="#ffffff" stroke="none" /><line x1="364" y1="389.0" x2="370.0" y2="389.0" stroke="#374151" stroke-width="2" /><line x1="438.0" y1="389.0" x2="444" y2="389.0" stroke="#374151" stroke-width="2" /><ellipse cx="404.0" cy="389.0" rx="34.0" ry="11.0" fill="#fff" stroke="#dc2626" stroke-width="2" /><text x="404.0" y="393.0" fill="#111827" font-family="Consolas, 'Courier New', monospace" font-size="10" text-anchor="middle" font-weight="bold">S M6100</text></g></g><g class="labels"><text x="8" y="402.0" fill="#111827" font-family="Consolas, 'Courier New', monospace" font-size="10" text-anchor="start" font-weight="normal">R9  step 23</text></g><line x1="8" y1="450.0" x2="9999" y2="450.0" stroke="#e5e7eb" stroke-width="1" /><g class="wires"><line x1="24" y1="471.0" x2="204" y2="471.0" stroke="#374151" stroke-width="2" stroke-linecap="round" /><line x1="384" y1="471.0" x2="408" y2="471.0" stroke="#374151" stroke-width="2" stroke-linecap="round" /><line x1="488" y1="471.0" x2="508" y2="471.0" stroke="#374151" stroke-width="2" stroke-linecap="round" /><line x1="260" y1="471.0" x2="266" y2="471.0" stroke="#374151" stroke-width="2" stroke-linecap="round" /><line x1="322" y1="471.0" x2="328" y2="471.0" stroke="#374151" stroke-width="2" stroke-linecap="round" /></g><g class="symbols"><g><rect x="204" y="458.0" width="56" height="26" fill="#ffffff" stroke="none" /><line x1="204" y1="471.0" x2="216" y2="471.0" stroke="#374151" stroke-width="2" /><line x1="248" y1="471.0" x2="260" y2="471.0" stroke="#374151" stroke-width="2" /><line x1="216" y1="462.0" x2="216" y2="480.0" stroke="#2563eb" stroke-width="2.5" /><line x1="248" y1="462.0" x2="248" y2="480.0" stroke="#2563eb" stroke-width="2.5" /><text x="232.0" y="456.0" fill="#111827" font-family="Consolas, 'Courier New', monospace" font-size="10" text-anchor="middle" font-weight="bold">M210</text></g><g><rect x="266" y="458.0" width="56" height="26" fill="#ffffff" stroke="none" /><line x1="266" y1="471.0" x2="278" y2="471.0" stroke="#374151" stroke-width="2" /><line x1="310" y1="471.0" x2="322" y2="471.0" stroke="#374151" stroke-width="2" /><line x1="278" y1="462.0" x2="278" y2="480.0" stroke="#2563eb" stroke-width="2.5" /><line x1="310" y1="462.0" x2="310" y2="480.0" stroke="#2563eb" stroke-width="2.5" /><text x="294.0" y="456.0" fill="#111827" font-family="Consolas, 'Courier New', monospace" font-size="10" text-anchor="middle" font-weight="bold">M175</text></g><g><rect x="328" y="458.0" width="56" height="26" fill="#ffffff" stroke="none" /><line x1="328" y1="471.0" x2="340" y2="471.0" stroke="#374151" stroke-width="2" /><line x1="372" y1="471.0" x2="384" y2="471.0" stroke="#374151" stroke-width="2" /><line x1="340" y1="462.0" x2="340" y2="480.0" stroke="#2563eb" stroke-width="2.5" /><line x1="372" y1="462.0" x2="372" y2="480.0" stroke="#2563eb" stroke-width="2.5" /><line x1="338" y1="480.0" x2="374" y2="462.0" stroke="#2563eb" stroke-width="2" /><text x="356.0" y="456.0" fill="#111827" font-family="Consolas, 'Courier New', monospace" font-size="10" text-anchor="middle" font-weight="bold">M174</text></g><g><rect x="408" y="458.0" width="80" height="26" fill="#ffffff" stroke="none" /><line x1="408" y1="471.0" x2="414.0" y2="471.0" stroke="#374151" stroke-width="2" /><line x1="482.0" y1="471.0" x2="488" y2="471.0" stroke="#374151" stroke-width="2" /><ellipse cx="448.0" cy="471.0" rx="34.0" ry="11.0" fill="#fff" stroke="#dc2626" stroke-width="2" /><text x="448.0" y="475.0" fill="#111827" font-family="Consolas, 'Courier New', monospace" font-size="10" text-anchor="middle" font-weight="bold">R M6100</text></g></g><g class="labels"><text x="8" y="463.0" fill="#111827" font-family="Consolas, 'Courier New', monospace" font-size="10" text-anchor="start" font-weight="normal">R10  step 26</text></g><line x1="8" y1="490.0" x2="9999" y2="490.0" stroke="#e5e7eb" stroke-width="1" /></svg>