<?xml version="1.0" encoding="UTF-8"?>
<svg xmlns="http://www.w3.org/2000/svg" width="940" height="736" viewBox="0 0 940 736"><text x="24" y="14" fill="#111827" font-family="Segoe UI, sans-serif" font-size="13" font-weight="bold">P31_Sealer  |  plc project_260626</text><line x1="16" y1="10" x2="16" y2="726.0" stroke="#374151" stroke-width="3" /><g class="wires"><line x1="260" y1="33.0" x2="272" y2="33.0" stroke="#374151" stroke-width="2" stroke-linecap="round" /><line x1="24" y1="33.0" x2="204" y2="33.0" stroke="#374151" stroke-width="2" stroke-linecap="round" /><line x1="272" y1="33.0" x2="278" y2="33.0" stroke="#374151" stroke-width="2" stroke-linecap="round" /><line x1="334" y1="33.0" x2="364" y2="33.0" stroke="#374151" stroke-width="2" stroke-linecap="round" /><line x1="444" y1="33.0" x2="464" y2="33.0" stroke="#374151" stroke-width="2" stroke-linecap="round" /><line x1="272" y1="75.0" x2="278" y2="75.0" stroke="#374151" stroke-width="2" stroke-linecap="round" /><line x1="334" y1="75.0" x2="364" y2="75.0" stroke="#374151" stroke-width="2" stroke-linecap="round" /><line x1="444" y1="75.0" x2="464" y2="75.0" stroke="#374151" stroke-width="2" stroke-linecap="round" /><line x1="272" y1="33.0" x2="272" y2="75.0" stroke="#374151" stroke-width="2" stroke-linecap="round" /><circle cx="272.0" cy="33.0" r="2.5" fill="#374151" stroke="none" /><circle cx="272.0" cy="75.0" r="2.5" fill="#374151" stroke="none" /></g><g class="symbols"><g><rect x="204" y="20.0" width="56" height="26" fill="#ffffff" stroke="none" /><line x1="204" y1="33.0" x2="216" y2="33.0" stroke="#374151" stroke-width="2" /><line x1="248" y1="33.0" x2="260" y2="33.0" stroke="#374151" stroke-width="2" /><line x1="216" y1="24.0" x2="216" y2="42.0" stroke="#2563eb" stroke-width="2.5" /><line x1="248" y1="24.0" x2="248" y2="42.0" stroke="#2563eb" stroke-width="2.5" /><text x="232.0" y="18.0" fill="#111827" font-family="Consolas, 'Courier New', monospace" font-size="10" text-anchor="middle" font-weight="bold">SM400</text></g><g><rect x="278" y="20.0" width="56" height="26" fill="#ffffff" stroke="none" /><line x1="278" y1="33.0" x2="290" y2="33.0" stroke="#374151" stroke-width="2" /><line x1="322" y1="33.0" x2="334" y2="33.0" stroke="#374151" stroke-width="2" /><line x1="290" y1="24.0" x2="290" y2="42.0" stroke="#2563eb" stroke-width="2.5" /><line x1="322" y1="24.0" x2="322" y2="42.0" stroke="#2563eb" stroke-width="2.5" /><text x="306.0" y="18.0" fill="#111827" font-family="Consolas, 'Courier New', monospace" font-size="10" text-anchor="middle" font-weight="bold">X1A</text></g><g><rect x="364" y="20.0" width="80" height="26" fill="#ffffff" stroke="none" /><line x1="364" y1="33.0" x2="370.0" y2="33.0" stroke="#374151" stroke-width="2" /><line x1="438.0" y1="33.0" x2="444" y2="33.0" stroke="#374151" stroke-width="2" /><ellipse cx="404.0" cy="33.0" rx="34.0" ry="11.0" fill="#fff" stroke="#dc2626" stroke-width="2" /><text x="404.0" y="37.0" fill="#111827" font-family="Consolas, 'Courier New', monospace" font-size="10" text-anchor="middle" font-weight="bold">M2500</text></g><g><rect x="278" y="62.0" width="56" height="26" fill="#ffffff" stroke="none" /><line x1="278" y1="75.0" x2="290" y2="75.0" stroke="#374151" stroke-width="2" /><line x1="322" y1="75.0" x2="334" y2="75.0" stroke="#374151" stroke-width="2" /><line x1="290" y1="66.0" x2="290" y2="84.0" stroke="#2563eb" stroke-width="2.5" /><line x1="322" y1="66.0" x2="322" y2="84.0" stroke="#2563eb" stroke-width="2.5" /><text x="306.0" y="60.0" fill="#111827" font-family="Consolas, 'Courier New', monospace" font-size="10" text-anchor="middle" font-weight="bold">X1B</text></g><g><rect x="364" y="62.0" width="80" height="26" fill="#ffffff" stroke="none" /><line x1="364" y1="75.0" x2="370.0" y2="75.0" stroke="#374151" stroke-width="2" /><line x1="438.0" y1="75.0" x2="444" y2="75.0" stroke="#374151" stroke-width="2" /><ellipse cx="404.0" cy="75.0" rx="34.0" ry="11.0" fill="#fff" stroke="#dc2626" stroke-width="2" /><text x="404.0" y="79.0" fill="#111827" font-family="Consolas, 'Courier New', monospace" font-size="10" text-anchor="middle" font-weight="bold">M2501</text></g></g><g class="labels"><text x="8" y="46.0" fill="#111827" font-family="Consolas, 'Courier New', monospace" font-size="10" text-anchor="start" font-weight="normal">R1  step -</text></g><line x1="8" y1="94.0" x2="9999" y2="94.0" stroke="#e5e7eb" stroke-width="1" /><g class="wires"><line x1="24" y1="115.0" x2="204" y2="115.0" stroke="#374151" stroke-width="2" stroke-linecap="round" /><line x1="322" y1="115.0" x2="364" y2="115.0" stroke="#374151" stroke-width="2" stroke-linecap="round" /><line x1="444" y1="115.0" x2="464" y2="115.0" stroke="#374151" stroke-width="2" stroke-linecap="round" /><line x1="260" y1="115.0" x2="266" y2="115.0" stroke="#374151" stroke-width="2" stroke-linecap="round" /></g><g class="symbols"><g><rect x="204" y="102.0" width="56" height="26" fill="#ffffff" stroke="none" /><line x1="204" y1="115.0" x2="216" y2="115.0" stroke="#374151" stroke-width="2" /><line x1="248" y1="115.0" x2="260" y2="115.0" stroke="#374151" stroke-width="2" /><line x1="216" y1="106.0" x2="216" y2="124.0" stroke="#2563eb" stroke-width="2.5" /><line x1="248" y1="106.0" x2="248" y2="124.0" stroke="#2563eb" stroke-width="2.5" /><text x="232.0" y="100.0" fill="#111827" font-family="Consolas, 'Courier New', monospace" font-size="10" text-anchor="middle" font-weight="bold">X1A</text></g><g><rect x="266" y="102.0" width="56" height="26" fill="#ffffff" stroke="none" /><line x1="266" y1="115.0" x2="278" y2="115.0" stroke="#374151" stroke-width="2" /><line x1="310" y1="115.0" x2="322" y2="115.0" stroke="#374151" stroke-width="2" /><line x1="278" y1="106.0" x2="278" y2="124.0" stroke="#2563eb" stroke-width="2.5" /><line x1="310" y1="106.0" x2="310" y2="124.0" stroke="#2563eb" stroke-width="2.5" /><line x1="276" y1="124.0" x2="312" y2="106.0" stroke="#2563eb" stroke-width="2" /><text x="294.0" y="100.0" fill="#111827" font-family="Consolas, 'Courier New', monospace" font-size="10" text-anchor="middle" font-weight="bold">X1B</text></g><g><rect x="364" y="102.0" width="80" height="26" fill="#ffffff" stroke="none" /><line x1="364" y1="115.0" x2="370.0" y2="115.0" stroke="#374151" stroke-width="2" /><line x1="438.0" y1="115.0" x2="444" y2="115.0" stroke="#374151" stroke-width="2" /><ellipse cx="404.0" cy="115.0" rx="34.0" ry="11.0" fill="#fff" stroke="#dc2626" stroke-width="2" /><text x="404.0" y="119.0" fill="#111827" font-family="Consolas, 'Courier New', monospace" font-size="10" text-anchor="middle" font-weight="bold">M2520</text></g></g><g class="labels"><text x="8" y="107.0" fill="#111827" font-family="Consolas, 'Courier New', monospace" font-size="10" text-anchor="start" font-weight="normal">R2  step 7</text></g><line x1="8" y1="134.0" x2="9999" y2="134.0" stroke="#e5e7eb" stroke-width="1" /><g class="wires"><line x1="24" y1="155.0" x2="204" y2="155.0" stroke="#374151" stroke-width="2" stroke-linecap="round" /><line x1="260" y1="155.0" x2="364" y2="155.0" stroke="#374151" stroke-width="2" stroke-linecap="round" /><line x1="444" y1="155.0" x2="464" y2="155.0" stroke="#374151" stroke-width="2" stroke-linecap="round" /></g><g class="symbols"><g><rect x="204" y="142.0" width="56" height="26" fill="#ffffff" stroke="none" /><line x1="204" y1="155.0" x2="216" y2="155.0" stroke="#374151" stroke-width="2" /><line x1="248" y1="155.0" x2="260" y2="155.0" stroke="#374151" stroke-width="2" /><line x1="216" y1="146.0" x2="216" y2="164.0" stroke="#2563eb" stroke-width="2.5" /><line x1="248" y1="146.0" x2="248" y2="164.0" stroke="#2563eb" stroke-width="2.5" /><text x="232.0" y="140.0" fill="#111827" font-family="Consolas, 'Courier New', monospace" font-size="10" text-anchor="middle" font-weight="bold">M202</text></g><g><rect x="364" y="142.0" width="80" height="26" fill="#ffffff" stroke="none" /><line x1="364" y1="155.0" x2="370.0" y2="155.0" stroke="#374151" stroke-width="2" /><line x1="438.0" y1="155.0" x2="444" y2="155.0" stroke="#374151" stroke-width="2" /><ellipse cx="404.0" cy="155.0" rx="34.0" ry="11.0" fill="#fff" stroke="#dc2626" stroke-width="2" /><text x="404.0" y="159.0" fill="#111827" font-family="Consolas, 'Courier New', monospace" font-size="10" text-anchor="middle" font-weight="bold">M2521</text></g></g><g class="labels"><text x="8" y="147.0" fill="#111827" font-family="Consolas, 'Courier New', monospace" font-size="10" text-anchor="start" font-weight="normal">R3  step 10</text></g><line x1="8" y1="174.0" x2="9999" y2="174.0" stroke="#e5e7eb" stroke-width="1" /><g class="wires"><line x1="656" y1="195.0" x2="680" y2="195.0" stroke="#374151" stroke-width="2" stroke-linecap="round" /><line x1="760" y1="195.0" x2="780" y2="195.0" stroke="#374151" stroke-width="2" stroke-linecap="round" /><line x1="24" y1="195.0" x2="204" y2="195.0" stroke="#374151" stroke-width="2" stroke-linecap="round" /><line x1="260" y1="195.0" x2="272" y2="195.0" stroke="#374151" stroke-width="2" stroke-linecap="round" /><line x1="334" y1="195.0" x2="346" y2="195.0" stroke="#374151" stroke-width="2" stroke-linecap="round" /><line x1="346" y1="195.0" x2="346" y2="237.0" stroke="#374151" stroke-width="2" stroke-linecap="round" /><line x1="346" y1="195.0" x2="352" y2="195.0" stroke="#374151" stroke-width="2" stroke-linecap="round" /><line x1="346" y1="237.0" x2="352" y2="237.0" stroke="#374151" stroke-width="2" stroke-linecap="round" /><line x1="408" y1="237.0" x2="408" y2="195.0" stroke="#374151" stroke-width="2" stroke-linecap="round" /><line x1="408" y1="195.0" x2="414" y2="195.0" stroke="#374151" stroke-width="2" stroke-linecap="round" /><line x1="334" y1="279.0" x2="346" y2="279.0" stroke="#374151" stroke-width="2" stroke-linecap="round" /><line x1="346" y1="279.0" x2="346" y2="321.0" stroke="#374151" stroke-width="2" stroke-linecap="round" /><line x1="346" y1="279.0" x2="352" y2="279.0" stroke="#374151" stroke-width="2" stroke-linecap="round" /><line x1="346" y1="321.0" x2="352" y2="321.0" stroke="#374151" stroke-width="2" stroke-linecap="round" /><line x1="408" y1="321.0" x2="408" y2="279.0" stroke="#374151" stroke-width="2" stroke-linecap="round" /><line x1="408" y1="279.0" x2="414" y2="279.0" stroke="#374151" stroke-width="2" stroke-linecap="round" /><line x1="272" y1="195.0" x2="272" y2="279.0" stroke="#374151" stroke-width="2" stroke-linecap="round" /><line x1="272" y1="195.0" x2="278" y2="195.0" stroke="#374151" stroke-width="2" stroke-linecap="round" /><line x1="272" y1="279.0" x2="278" y2="279.0" stroke="#374151" stroke-width="2" stroke-linecap="round" /><line x1="470" y1="279.0" x2="470" y2="195.0" stroke="#374151" stroke-width="2" stroke-linecap="round" /><line x1="532" y1="195.0" x2="538" y2="195.0" stroke="#374151" stroke-width="2" stroke-linecap="round" /><line x1="594" y1="195.0" x2="600" y2="195.0" stroke="#374151" stroke-width="2" stroke-linecap="round" /><line x1="470" y1="195.0" x2="476" y2="195.0" stroke="#374151" stroke-width="2" stroke-linecap="round" /><circle cx="272.0" cy="195.0" r="2.5" fill="#374151" stroke="none" /><circle cx="346.0" cy="195.0" r="2.5" fill="#374151" stroke="none" /><circle cx="346.0" cy="237.0" r="2.5" fill="#374151" stroke="none" /><circle cx="408.0" cy="195.0" r="2.5" fill="#374151" stroke="none" /><circle cx="346.0" cy="279.0" r="2.5" fill="#374151" stroke="none" /><circle cx="346.0" cy="321.0" r="2.5" fill="#374151" stroke="none" /><circle cx="408.0" cy="279.0" r="2.5" fill="#374151" stroke="none" /><circle cx="272.0" cy="279.0" r="2.5" fill="#374151" stroke="none" /><circle cx="470.0" cy="195.0" r="2.5" fill="#374151" stroke="none" /></g><g class="symbols"><g><rect x="204" y="182.0" width="56" height="26" fill="#ffffff" stroke="none" /><line x1="204" y1="195.0" x2="216" y2="195.0" stroke="#374151" stroke-width="2" /><line x1="248" y1="195.0" x2="260" y2="195.0" stroke="#374151" stroke-width="2" /><line x1="216" y1="186.0" x2="216" y2="204.0" stroke="#2563eb" stroke-width="2.5" /><line x1="248" y1="186.0" x2="248" y2="204.0" stroke="#2563eb" stroke-width="2.5" /><text x="232.0" y="180.0" fill="#111827" font-family="Consolas, 'Courier New', monospace" font-size="10" text-anchor="middle" font-weight="bold">M2521</text></g><g><rect x="278" y="182.0" width="56" height="26" fill="#ffffff" stroke="none" /><line x1="278" y1="195.0" x2="290" y2="195.0" stroke="#374151" stroke-width="2" /><line x1="322" y1="195.0" x2="334" y2="195.0" stroke="#374151" stroke-width="2" /><line x1="290" y1="186.0" x2="290" y2="204.0" stroke="#2563eb" stroke-width="2.5" /><line x1="322" y1="186.0" x2="322" y2="204.0" stroke="#2563eb" stroke-width="2.5" /><text x="306.0" y="180.0" fill="#111827" font-family="Consolas, 'Courier New', monospace" font-size="10" text-anchor="middle" font-weight="bold">M211</text></g><g><rect x="352" y="182.0" width="56" height="26" fill="#ffffff" stroke="none" /><line x1="352" y1="195.0" x2="364" y2="195.0" stroke="#374151" stroke-width="2" /><line x1="396" y1="195.0" x2="408" y2="195.0" stroke="#374151" stroke-width="2" /><line x1="364" y1="186.0" x2="364" y2="204.0" stroke="#2563eb" stroke-width="2.5" /><line x1="396" y1="186.0" x2="396" y2="204.0" stroke="#2563eb" stroke-width="2.5" /><text x="380.0" y="180.0" fill="#111827" font-family="Consolas, 'Courier New', monospace" font-size="10" text-anchor="middle" font-weight="bold">X1039</text></g><g><rect x="352" y="224.0" width="56" height="26" fill="#ffffff" stroke="none" /><line x1="352" y1="237.0" x2="364" y2="237.0" stroke="#374151" stroke-width="2" /><line x1="396" y1="237.0" x2="408" y2="237.0" stroke="#374151" stroke-width="2" /><line x1="364" y1="228.0" x2="364" y2="246.0" stroke="#2563eb" stroke-width="2.5" /><line x1="396" y1="228.0" x2="396" y2="246.0" stroke="#2563eb" stroke-width="2.5" /><text x="380.0" y="222.0" fill="#111827" font-family="Consolas, 'Courier New', monospace" font-size="10" text-anchor="middle" font-weight="bold">M999</text></g><g><rect x="414" y="182.0" width="56" height="26" fill="#ffffff" stroke="none" /><line x1="414" y1="195.0" x2="426" y2="195.0" stroke="#374151" stroke-width="2" /><line x1="458" y1="195.0" x2="470" y2="195.0" stroke="#374151" stroke-width="2" /><line x1="426" y1="186.0" x2="426" y2="204.0" stroke="#2563eb" stroke-width="2.5" /><line x1="458" y1="186.0" x2="458" y2="204.0" stroke="#2563eb" stroke-width="2.5" /><text x="442.0" y="180.0" fill="#111827" font-family="Consolas, 'Courier New', monospace" font-size="10" text-anchor="middle" font-weight="bold">X1004</text></g><g><rect x="278" y="266.0" width="56" height="26" fill="#ffffff" stroke="none" /><line x1="278" y1="279.0" x2="290" y2="279.0" stroke="#374151" stroke-width="2" /><line x1="322" y1="279.0" x2="334" y2="279.0" stroke="#374151" stroke-width="2" /><line x1="290" y1="270.0" x2="290" y2="288.0" stroke="#2563eb" stroke-width="2.5" /><line x1="322" y1="270.0" x2="322" y2="288.0" stroke="#2563eb" stroke-width="2.5" /><text x="306.0" y="264.0" fill="#111827" font-family="Consolas, 'Courier New', monospace" font-size="10" text-anchor="middle" font-weight="bold">M210</text></g><g><rect x="352" y="266.0" width="56" height="26" fill="#ffffff" stroke="none" /><line x1="352" y1="279.0" x2="364" y2="279.0" stroke="#374151" stroke-width="2" /><line x1="396" y1="279.0" x2="408" y2="279.0" stroke="#374151" stroke-width="2" /><line x1="364" y1="270.0" x2="364" y2="288.0" stroke="#2563eb" stroke-width="2.5" /><line x1="396" y1="270.0" x2="396" y2="288.0" stroke="#2563eb" stroke-width="2.5" /><text x="380.0" y="264.0" fill="#111827" font-family="Consolas, 'Courier New', monospace" font-size="10" text-anchor="middle" font-weight="bold">M522</text></g><g><rect x="352" y="308.0" width="56" height="26" fill="#ffffff" stroke="none" /><line x1="352" y1="321.0" x2="364" y2="321.0" stroke="#374151" stroke-width="2" /><line x1="396" y1="321.0" x2="408" y2="321.0" stroke="#374151" stroke-width="2" /><line x1="364" y1="312.0" x2="364" y2="330.0" stroke="#2563eb" stroke-width="2.5" /><line x1="396" y1="312.0" x2="396" y2="330.0" stroke="#2563eb" stroke-width="2.5" /><text x="380.0" y="306.0" fill="#111827" font-family="Consolas, 'Courier New', monospace" font-size="10" text-anchor="middle" font-weight="bold">X1004</text></g><g><rect x="414" y="266.0" width="56" height="26" fill="#ffffff" stroke="none" /><line x1="414" y1="279.0" x2="426" y2="279.0" stroke="#374151" stroke-width="2" /><line x1="458" y1="279.0" x2="470" y2="279.0" stroke="#374151" stroke-width="2" /><line x1="426" y1="270.0" x2="426" y2="288.0" stroke="#2563eb" stroke-width="2.5" /><line x1="458" y1="270.0" x2="458" y2="288.0" stroke="#2563eb" stroke-width="2.5" /><line x1="424" y1="288.0" x2="460" y2="270.0" stroke="#2563eb" stroke-width="2" /><text x="442.0" y="264.0" fill="#111827" font-family="Consolas, 'Courier New', monospace" font-size="10" text-anchor="middle" font-weight="bold">M523</text></g><g><rect x="476" y="182.0" width="56" height="26" fill="#ffffff" stroke="none" /><line x1="476" y1="195.0" x2="488" y2="195.0" stroke="#374151" stroke-width="2" /><line x1="520" y1="195.0" x2="532" y2="195.0" stroke="#374151" stroke-width="2" /><line x1="488" y1="186.0" x2="488" y2="204.0" stroke="#2563eb" stroke-width="2.5" /><line x1="520" y1="186.0" x2="520" y2="204.0" stroke="#2563eb" stroke-width="2.5" /><line x1="486" y1="204.0" x2="522" y2="186.0" stroke="#2563eb" stroke-width="2" /><text x="504.0" y="180.0" fill="#111827" font-family="Consolas, 'Courier New', monospace" font-size="10" text-anchor="middle" font-weight="bold">M521</text></g><g><rect x="538" y="182.0" width="56" height="26" fill="#ffffff" stroke="none" /><line x1="538" y1="195.0" x2="550" y2="195.0" stroke="#374151" stroke-width="2" /><line x1="582" y1="195.0" x2="594" y2="195.0" stroke="#374151" stroke-width="2" /><line x1="550" y1="186.0" x2="550" y2="204.0" stroke="#2563eb" stroke-width="2.5" /><line x1="582" y1="186.0" x2="582" y2="204.0" stroke="#2563eb" stroke-width="2.5" /><line x1="548" y1="204.0" x2="584" y2="186.0" stroke="#2563eb" stroke-width="2" /><text x="566.0" y="180.0" fill="#111827" font-family="Consolas, 'Courier New', monospace" font-size="10" text-anchor="middle" font-weight="bold">X1B</text></g><g><rect x="600" y="182.0" width="56" height="26" fill="#ffffff" stroke="none" /><line x1="600" y1="195.0" x2="612" y2="195.0" stroke="#374151" stroke-width="2" /><line x1="644" y1="195.0" x2="656" y2="195.0" stroke="#374151" stroke-width="2" /><line x1="612" y1="186.0" x2="612" y2="204.0" stroke="#2563eb" stroke-width="2.5" /><line x1="644" y1="186.0" x2="644" y2="204.0" stroke="#2563eb" stroke-width="2.5" /><line x1="610" y1="204.0" x2="646" y2="186.0" stroke="#2563eb" stroke-width="2" /><text x="628.0" y="180.0" fill="#111827" font-family="Consolas, 'Courier New', monospace" font-size="10" text-anchor="middle" font-weight="bold">Y49</text></g><g><rect x="680" y="182.0" width="80" height="26" fill="#ffffff" stroke="none" /><line x1="680" y1="195.0" x2="686.0" y2="195.0" stroke="#374151" stroke-width="2" /><line x1="754.0" y1="195.0" x2="760" y2="195.0" stroke="#374151" stroke-width="2" /><ellipse cx="720.0" cy="195.0" rx="34.0" ry="11.0" fill="#fff" stroke="#dc2626" stroke-width="2" /><text x="720.0" y="199.0" fill="#111827" font-family="Consolas, 'Courier New', monospace" font-size="10" text-anchor="middle" font-weight="bold">Y48</text></g></g><g class="labels"><text x="8" y="250.0" fill="#111827" font-family="Consolas, 'Courier New', monospace" font-size="10" text-anchor="start" font-weight="normal">R4  step 12</text></g><line x1="8" y1="340.0" x2="9999" y2="340.0" stroke="#e5e7eb" stroke-width="1" /><g class="wires"><line x1="662" y1="361.0" x2="686" y2="361.0" stroke="#374151" stroke-width="2" stroke-linecap="round" /><line x1="766" y1="361.0" x2="786" y2="361.0" stroke="#374151" stroke-width="2" stroke-linecap="round" /><line x1="24" y1="361.0" x2="204" y2="361.0" stroke="#374151" stroke-width="2" stroke-linecap="round" /><line x1="260" y1="361.0" x2="272" y2="361.0" stroke="#374151" stroke-width="2" stroke-linecap="round" /><line x1="408" y1="361.0" x2="414" y2="361.0" stroke="#374151" stroke-width="2" stroke-linecap="round" /><line x1="334" y1="361.0" x2="346" y2="361.0" stroke="#374151" stroke-width="2" stroke-linecap="round" /><line x1="346" y1="361.0" x2="346" y2="403.0" stroke="#374151" stroke-width="2" stroke-linecap="round" /><line x1="346" y1="361.0" x2="352" y2="361.0" stroke="#374151" stroke-width="2" stroke-linecap="round" /><line x1="346" y1="403.0" x2="352" y2="403.0" stroke="#374151" stroke-width="2" stroke-linecap="round" /><line x1="408" y1="403.0" x2="470" y2="403.0" stroke="#374151" stroke-width="2" stroke-linecap="round" /><line x1="470" y1="403.0" x2="470" y2="361.0" stroke="#374151" stroke-width="2" stroke-linecap="round" /><line x1="334" y1="445.0" x2="346" y2="445.0" stroke="#374151" stroke-width="2" stroke-linecap="round" /><line x1="346" y1="445.0" x2="346" y2="487.0" stroke="#374151" stroke-width="2" stroke-linecap="round" /><line x1="346" y1="445.0" x2="352" y2="445.0" stroke="#374151" stroke-width="2" stroke-linecap="round" /><line x1="346" y1="487.0" x2="352" y2="487.0" stroke="#374151" stroke-width="2" stroke-linecap="round" /><line x1="408" y1="487.0" x2="408" y2="445.0" stroke="#374151" stroke-width="2" stroke-linecap="round" /><line x1="408" y1="445.0" x2="414" y2="445.0" stroke="#374151" stroke-width="2" stroke-linecap="round" /><line x1="272" y1="361.0" x2="272" y2="445.0" stroke="#374151" stroke-width="2" stroke-linecap="round" /><line x1="272" y1="361.0" x2="278" y2="361.0" stroke="#374151" stroke-width="2" stroke-linecap="round" /><line x1="272" y1="445.0" x2="278" y2="445.0" stroke="#374151" stroke-width="2" stroke-linecap="round" /><line x1="470" y1="445.0" x2="470" y2="361.0" stroke="#374151" stroke-width="2" stroke-linecap="round" /><line x1="476" y1="361.0" x2="476" y2="403.0" stroke="#374151" stroke-width="2" stroke-linecap="round" /><line x1="476" y1="361.0" x2="482" y2="361.0" stroke="#374151" stroke-width="2" stroke-linecap="round" /><line x1="476" y1="403.0" x2="482" y2="403.0" stroke="#374151" stroke-width="2" stroke-linecap="round" /><line x1="538" y1="403.0" x2="538" y2="361.0" stroke="#374151" stroke-width="2" stroke-linecap="round" /><line x1="538" y1="361.0" x2="544" y2="361.0" stroke="#374151" stroke-width="2" stroke-linecap="round" /><line x1="470" y1="361.0" x2="482" y2="361.0" stroke="#374151" stroke-width="2" stroke-linecap="round" /><circle cx="272.0" cy="361.0" r="2.5" fill="#374151" stroke="none" /><circle cx="346.0" cy="361.0" r="2.5" fill="#374151" stroke="none" /><circle cx="346.0" cy="403.0" r="2.5" fill="#374151" stroke="none" /><circle cx="470.0" cy="403.0" r="2.5" fill="#374151" stroke="none" /><circle cx="470.0" cy="361.0" r="2.5" fill="#374151" stroke="none" /><circle cx="346.0" cy="445.0" r="2.5" fill="#374151" stroke="none" /><circle cx="346.0" cy="487.0" r="2.5" fill="#374151" stroke="none" /><circle cx="408.0" cy="445.0" r="2.5" fill="#374151" stroke="none" /><circle cx="272.0" cy="445.0" r="2.5" fill="#374151" stroke="none" /><circle cx="476.0" cy="361.0" r="2.5" fill="#374151" stroke="none" /><circle cx="476.0" cy="403.0" r="2.5" fill="#374151" stroke="none" /><circle cx="482.0" cy="361.0" r="2.5" fill="#374151" stroke="none" /><circle cx="538.0" cy="361.0" r="2.5" fill="#374151" stroke="none" /></g><g class="symbols"><g><rect x="204" y="348.0" width="56" height="26" fill="#ffffff" stroke="none" /><line x1="204" y1="361.0" x2="216" y2="361.0" stroke="#374151" stroke-width="2" /><line x1="248" y1="361.0" x2="260" y2="361.0" stroke="#374151" stroke-width="2" /><line x1="216" y1="352.0" x2="216" y2="370.0" stroke="#2563eb" stroke-width="2.5" /><line x1="248" y1="352.0" x2="248" y2="370.0" stroke="#2563eb" stroke-width="2.5" /><text x="232.0" y="346.0" fill="#111827" font-family="Consolas, 'Courier New', monospace" font-size="10" text-anchor="middle" font-weight="bold">M2521</text></g><g><rect x="278" y="348.0" width="56" height="26" fill="#ffffff" stroke="none" /><line x1="278" y1="361.0" x2="290" y2="361.0" stroke="#374151" stroke-width="2" /><line x1="322" y1="361.0" x2="334" y2="361.0" stroke="#374151" stroke-width="2" /><line x1="290" y1="352.0" x2="290" y2="370.0" stroke="#2563eb" stroke-width="2.5" /><line x1="322" y1="352.0" x2="322" y2="370.0" stroke="#2563eb" stroke-width="2.5" /><text x="306.0" y="346.0" fill="#111827" font-family="Consolas, 'Courier New', monospace" font-size="10" text-anchor="middle" font-weight="bold">M211</text></g><g><rect x="352" y="348.0" width="56" height="26" fill="#ffffff" stroke="none" /><line x1="352" y1="361.0" x2="364" y2="361.0" stroke="#374151" stroke-width="2" /><line x1="396" y1="361.0" x2="408" y2="361.0" stroke="#374151" stroke-width="2" /><line x1="364" y1="352.0" x2="364" y2="370.0" stroke="#2563eb" stroke-width="2.5" /><line x1="396" y1="352.0" x2="396" y2="370.0" stroke="#2563eb" stroke-width="2.5" /><text x="380.0" y="346.0" fill="#111827" font-family="Consolas, 'Courier New', monospace" font-size="10" text-anchor="middle" font-weight="bold">X1B</text></g><g><rect x="414" y="348.0" width="56" height="26" fill="#ffffff" stroke="none" /><line x1="414" y1="361.0" x2="426" y2="361.0" stroke="#374151" stroke-width="2" /><line x1="458" y1="361.0" x2="470" y2="361.0" stroke="#374151" stroke-width="2" /><line x1="426" y1="352.0" x2="426" y2="370.0" stroke="#2563eb" stroke-width="2.5" /><line x1="458" y1="352.0" x2="458" y2="370.0" stroke="#2563eb" stroke-width="2.5" /><line x1="424" y1="370.0" x2="460" y2="352.0" stroke="#2563eb" stroke-width="2" /><text x="442.0" y="346.0" fill="#111827" font-family="Consolas, 'Courier New', monospace" font-size="10" text-anchor="middle" font-weight="bold">X1004</text></g><g><rect x="352" y="390.0" width="56" height="26" fill="#ffffff" stroke="none" /><line x1="352" y1="403.0" x2="364" y2="403.0" stroke="#374151" stroke-width="2" /><line x1="396" y1="403.0" x2="408" y2="403.0" stroke="#374151" stroke-width="2" /><line x1="364" y1="394.0" x2="364" y2="412.0" stroke="#2563eb" stroke-width="2.5" /><line x1="396" y1="394.0" x2="396" y2="412.0" stroke="#2563eb" stroke-width="2.5" /><text x="380.0" y="388.0" fill="#111827" font-family="Consolas, 'Courier New', monospace" font-size="10" text-anchor="middle" font-weight="bold">Y49</text></g><g><rect x="278" y="432.0" width="56" height="26" fill="#ffffff" stroke="none" /><line x1="278" y1="445.0" x2="290" y2="445.0" stroke="#374151" stroke-width="2" /><line x1="322" y1="445.0" x2="334" y2="445.0" stroke="#374151" stroke-width="2" /><line x1="290" y1="436.0" x2="290" y2="454.0" stroke="#2563eb" stroke-width="2.5" /><line x1="322" y1="436.0" x2="322" y2="454.0" stroke="#2563eb" stroke-width="2.5" /><text x="306.0" y="430.0" fill="#111827" font-family="Consolas, 'Courier New', monospace" font-size="10" text-anchor="middle" font-weight="bold">M210</text></g><g><rect x="352" y="432.0" width="56" height="26" fill="#ffffff" stroke="none" /><line x1="352" y1="445.0" x2="364" y2="445.0" stroke="#374151" stroke-width="2" /><line x1="396" y1="445.0" x2="408" y2="445.0" stroke="#374151" stroke-width="2" /><line x1="364" y1="436.0" x2="364" y2="454.0" stroke="#2563eb" stroke-width="2.5" /><line x1="396" y1="436.0" x2="396" y2="454.0" stroke="#2563eb" stroke-width="2.5" /><text x="380.0" y="430.0" fill="#111827" font-family="Consolas, 'Courier New', monospace" font-size="10" text-anchor="middle" font-weight="bold">M523</text></g><g><rect x="352" y="474.0" width="56" height="26" fill="#ffffff" stroke="none" /><line x1="352" y1="487.0" x2="364" y2="487.0" stroke="#374151" stroke-width="2" /><line x1="396" y1="487.0" x2="408" y2="487.0" stroke="#374151" stroke-width="2" /><line x1="364" y1="478.0" x2="364" y2="496.0" stroke="#2563eb" stroke-width="2.5" /><line x1="396" y1="478.0" x2="396" y2="496.0" stroke="#2563eb" stroke-width="2.5" /><text x="380.0" y="472.0" fill="#111827" font-family="Consolas, 'Courier New', monospace" font-size="10" text-anchor="middle" font-weight="bold">M2527</text></g><g><rect x="414" y="432.0" width="56" height="26" fill="#ffffff" stroke="none" /><line x1="414" y1="445.0" x2="426" y2="445.0" stroke="#374151" stroke-width="2" /><line x1="458" y1="445.0" x2="470" y2="445.0" stroke="#374151" stroke-width="2" /><line x1="426" y1="436.0" x2="426" y2="454.0" stroke="#2563eb" stroke-width="2.5" /><line x1="458" y1="436.0" x2="458" y2="454.0" stroke="#2563eb" stroke-width="2.5" /><line x1="424" y1="454.0" x2="460" y2="436.0" stroke="#2563eb" stroke-width="2" /><text x="442.0" y="430.0" fill="#111827" font-family="Consolas, 'Courier New', monospace" font-size="10" text-anchor="middle" font-weight="bold">M522</text></g><g><rect x="482" y="348.0" width="56" height="26" fill="#ffffff" stroke="none" /><line x1="482" y1="361.0" x2="494" y2="361.0" stroke="#374151" stroke-width="2" /><line x1="526" y1="361.0" x2="538" y2="361.0" stroke="#374151" stroke-width="2" /><line x1="494" y1="352.0" x2="494" y2="370.0" stroke="#2563eb" stroke-width="2.5" /><line x1="526" y1="352.0" x2="526" y2="370.0" stroke="#2563eb" stroke-width="2.5" /><line x1="492" y1="370.0" x2="528" y2="352.0" stroke="#2563eb" stroke-width="2" /><text x="510.0" y="346.0" fill="#111827" font-family="Consolas, 'Courier New', monospace" font-size="10" text-anchor="middle" font-weight="bold">M521</text></g><g><rect x="482" y="390.0" width="56" height="26" fill="#ffffff" stroke="none" /><line x1="482" y1="403.0" x2="494" y2="403.0" stroke="#374151" stroke-width="2" /><line x1="526" y1="403.0" x2="538" y2="403.0" stroke="#374151" stroke-width="2" /><line x1="494" y1="394.0" x2="494" y2="412.0" stroke="#2563eb" stroke-width="2.5" /><line x1="526" y1="394.0" x2="526" y2="412.0" stroke="#2563eb" stroke-width="2.5" /><text x="510.0" y="388.0" fill="#111827" font-family="Consolas, 'Courier New', monospace" font-size="10" text-anchor="middle" font-weight="bold">M999</text></g><g><rect x="544" y="348.0" width="56" height="26" fill="#ffffff" stroke="none" /><line x1="544" y1="361.0" x2="556" y2="361.0" stroke="#374151" stroke-width="2" /><line x1="588" y1="361.0" x2="600" y2="361.0" stroke="#374151" stroke-width="2" /><line x1="556" y1="352.0" x2="556" y2="370.0" stroke="#2563eb" stroke-width="2.5" /><line x1="588" y1="352.0" x2="588" y2="370.0" stroke="#2563eb" stroke-width="2.5" /><line x1="554" y1="370.0" x2="590" y2="352.0" stroke="#2563eb" stroke-width="2" /><text x="572.0" y="346.0" fill="#111827" font-family="Consolas, 'Courier New', monospace" font-size="10" text-anchor="middle" font-weight="bold">X1A</text></g><g><rect x="606" y="348.0" width="56" height="26" fill="#ffffff" stroke="none" /><line x1="606" y1="361.0" x2="618" y2="361.0" stroke="#374151" stroke-width="2" /><line x1="650" y1="361.0" x2="662" y2="361.0" stroke="#374151" stroke-width="2" /><line x1="618" y1="352.0" x2="618" y2="370.0" stroke="#2563eb" stroke-width="2.5" /><line x1="650" y1="352.0" x2="650" y2="370.0" stroke="#2563eb" stroke-width="2.5" /><line x1="616" y1="370.0" x2="652" y2="352.0" stroke="#2563eb" stroke-width="2" /><text x="634.0" y="346.0" fill="#111827" font-family="Consolas, 'Courier New', monospace" font-size="10" text-anchor="middle" font-weight="bold">Y48</text></g><g><rect x="686" y="348.0" width="80" height="26" fill="#ffffff" stroke="none" /><line x1="686" y1="361.0" x2="692.0" y2="361.0" stroke="#374151" stroke-width="2" /><line x1="760.0" y1="361.0" x2="766" y2="361.0" stroke="#374151" stroke-width="2" /><ellipse cx="726.0" cy="361.0" rx="34.0" ry="11.0" fill="#fff" stroke="#dc2626" stroke-width="2" /><text x="726.0" y="365.0" fill="#111827" font-family="Consolas, 'Courier New', monospace" font-size="10" text-anchor="middle" font-weight="bold">Y49</text></g></g><g class="labels"><text x="8" y="416.0" fill="#111827" font-family="Consolas, 'Courier New', monospace" font-size="10" text-anchor="start" font-weight="normal">R5  step 29</text></g><line x1="8" y1="506.0" x2="9999" y2="506.0" stroke="#e5e7eb" stroke-width="1" /><g class="wires"><line x1="458" y1="527.0" x2="482" y2="527.0" stroke="#374151" stroke-width="2" stroke-linecap="round" /><line x1="562" y1="527.0" x2="582" y2="527.0" stroke="#374151" stroke-width="2" stroke-linecap="round" /><line x1="24" y1="527.0" x2="204" y2="527.0" stroke="#374151" stroke-width="2" stroke-linecap="round" /><line x1="322" y1="527.0" x2="334" y2="527.0" stroke="#374151" stroke-width="2" stroke-linecap="round" /><line x1="334" y1="527.0" x2="334" y2="569.0" stroke="#374151" stroke-width="2" stroke-linecap="round" /><line x1="334" y1="527.0" x2="340" y2="527.0" stroke="#374151" stroke-width="2" stroke-linecap="round" /><line x1="334" y1="569.0" x2="340" y2="569.0" stroke="#374151" stroke-width="2" stroke-linecap="round" /><line x1="396" y1="569.0" x2="396" y2="527.0" stroke="#374151" stroke-width="2" stroke-linecap="round" /><line x1="396" y1="527.0" x2="402" y2="527.0" stroke="#374151" stroke-width="2" stroke-linecap="round" /><circle cx="334.0" cy="527.0" r="2.5" fill="#374151" stroke="none" /><circle cx="334.0" cy="569.0" r="2.5" fill="#374151" stroke="none" /><circle cx="396.0" cy="527.0" r="2.5" fill="#374151" stroke="none" /></g><g class="symbols"><g><rect x="204" y="514.0" width="56" height="26" fill="#ffffff" stroke="none" /><line x1="204" y1="527.0" x2="216" y2="527.0" stroke="#374151" stroke-width="2" /><line x1="248" y1="527.0" x2="260" y2="527.0" stroke="#374151" stroke-width="2" /><line x1="216" y1="518.0" x2="216" y2="536.0" stroke="#2563eb" stroke-width="2.5" /><line x1="248" y1="518.0" x2="248" y2="536.0" stroke="#2563eb" stroke-width="2.5" /><text x="232.0" y="512.0" fill="#111827" font-family="Consolas, 'Courier New', monospace" font-size="10" text-anchor="middle" font-weight="bold">M2521</text></g><g><rect x="266" y="514.0" width="56" height="26" fill="#ffffff" stroke="none" /><line x1="266" y1="527.0" x2="278" y2="527.0" stroke="#374151" stroke-width="2" /><line x1="310" y1="527.0" x2="322" y2="527.0" stroke="#374151" stroke-width="2" /><line x1="278" y1="518.0" x2="278" y2="536.0" stroke="#2563eb" stroke-width="2.5" /><line x1="310" y1="518.0" x2="310" y2="536.0" stroke="#2563eb" stroke-width="2.5" /><text x="294.0" y="512.0" fill="#111827" font-family="Consolas, 'Courier New', monospace" font-size="10" text-anchor="middle" font-weight="bold">M210</text></g><g><rect x="340" y="514.0" width="56" height="26" fill="#ffffff" stroke="none" /><line x1="340" y1="527.0" x2="352" y2="527.0" stroke="#374151" stroke-width="2" /><line x1="384" y1="527.0" x2="396" y2="527.0" stroke="#374151" stroke-width="2" /><line x1="352" y1="518.0" x2="352" y2="536.0" stroke="#2563eb" stroke-width="2.5" /><line x1="384" y1="518.0" x2="384" y2="536.0" stroke="#2563eb" stroke-width="2.5" /><text x="368.0" y="512.0" fill="#111827" font-family="Consolas, 'Courier New', monospace" font-size="10" text-anchor="middle" font-weight="bold">M526</text></g><g><rect x="340" y="556.0" width="56" height="26" fill="#ffffff" stroke="none" /><line x1="340" y1="569.0" x2="352" y2="569.0" stroke="#374151" stroke-width="2" /><line x1="384" y1="569.0" x2="396" y2="569.0" stroke="#374151" stroke-width="2" /><line x1="352" y1="560.0" x2="352" y2="578.0" stroke="#2563eb" stroke-width="2.5" /><line x1="384" y1="560.0" x2="384" y2="578.0" stroke="#2563eb" stroke-width="2.5" /><text x="368.0" y="554.0" fill="#111827" font-family="Consolas, 'Courier New', monospace" font-size="10" text-anchor="middle" font-weight="bold">M2527</text></g><g><rect x="402" y="514.0" width="56" height="26" fill="#ffffff" stroke="none" /><line x1="402" y1="527.0" x2="414" y2="527.0" stroke="#374151" stroke-width="2" /><line x1="446" y1="527.0" x2="458" y2="527.0" stroke="#374151" stroke-width="2" /><line x1="414" y1="518.0" x2="414" y2="536.0" stroke="#2563eb" stroke-width="2.5" /><line x1="446" y1="518.0" x2="446" y2="536.0" stroke="#2563eb" stroke-width="2.5" /><line x1="412" y1="536.0" x2="448" y2="518.0" stroke="#2563eb" stroke-width="2" /><text x="430.0" y="512.0" fill="#111827" font-family="Consolas, 'Courier New', monospace" font-size="10" text-anchor="middle" font-weight="bold">X1A</text></g><g><rect x="482" y="514.0" width="80" height="26" fill="#ffffff" stroke="none" /><line x1="482" y1="527.0" x2="488.0" y2="527.0" stroke="#374151" stroke-width="2" /><line x1="556.0" y1="527.0" x2="562" y2="527.0" stroke="#374151" stroke-width="2" /><ellipse cx="522.0" cy="527.0" rx="34.0" ry="11.0" fill="#fff" stroke="#dc2626" stroke-width="2" /><text x="522.0" y="531.0" fill="#111827" font-family="Consolas, 'Courier New', monospace" font-size="10" text-anchor="middle" font-weight="bold">M2527</text></g></g><g class="labels"><text x="8" y="540.0" fill="#111827" font-family="Consolas, 'Courier New', monospace" font-size="10" text-anchor="start" font-weight="normal">R6  step 48</text></g><line x1="8" y1="588.0" x2="9999" y2="588.0" stroke="#e5e7eb" stroke-width="1" /><g class="wires"><line x1="24" y1="609.0" x2="204" y2="609.0" stroke="#374151" stroke-width="2" stroke-linecap="round" /><line x1="322" y1="609.0" x2="364" y2="609.0" stroke="#374151" stroke-width="2" stroke-linecap="round" /><line x1="444" y1="609.0" x2="464" y2="609.0" stroke="#374151" stroke-width="2" stroke-linecap="round" /><line x1="260" y1="609.0" x2="266" y2="609.0" stroke="#374151" stroke-width="2" stroke-linecap="round" /></g><g class="symbols"><g><rect x="204" y="596.0" width="56" height="26" fill="#ffffff" stroke="none" /><line x1="204" y1="609.0" x2="216" y2="609.0" stroke="#374151" stroke-width="2" /><line x1="248" y1="609.0" x2="260" y2="609.0" stroke="#374151" stroke-width="2" /><line x1="216" y1="600.0" x2="216" y2="618.0" stroke="#2563eb" stroke-width="2.5" /><line x1="248" y1="600.0" x2="248" y2="618.0" stroke="#2563eb" stroke-width="2.5" /><line x1="214" y1="618.0" x2="250" y2="600.0" stroke="#2563eb" stroke-width="2" /><text x="232.0" y="594.0" fill="#111827" font-family="Consolas, 'Courier New', monospace" font-size="10" text-anchor="middle" font-weight="bold">Y48</text></g><g><rect x="266" y="596.0" width="56" height="26" fill="#ffffff" stroke="none" /><line x1="266" y1="609.0" x2="278" y2="609.0" stroke="#374151" stroke-width="2" /><line x1="310" y1="609.0" x2="322" y2="609.0" stroke="#374151" stroke-width="2" /><line x1="278" y1="600.0" x2="278" y2="618.0" stroke="#2563eb" stroke-width="2.5" /><line x1="310" y1="600.0" x2="310" y2="618.0" stroke="#2563eb" stroke-width="2.5" /><line x1="276" y1="618.0" x2="312" y2="600.0" stroke="#2563eb" stroke-width="2" /><text x="294.0" y="594.0" fill="#111827" font-family="Consolas, 'Courier New', monospace" font-size="10" text-anchor="middle" font-weight="bold">Y49</text></g><g><rect x="364" y="596.0" width="80" height="26" fill="#ffffff" stroke="none" /><line x1="364" y1="609.0" x2="370.0" y2="609.0" stroke="#374151" stroke-width="2" /><line x1="438.0" y1="609.0" x2="444" y2="609.0" stroke="#374151" stroke-width="2" /><ellipse cx="404.0" cy="609.0" rx="34.0" ry="11.0" fill="#fff" stroke="#dc2626" stroke-width="2" /><text x="404.0" y="613.0" fill="#111827" font-family="Consolas, 'Courier New', monospace" font-size="10" text-anchor="middle" font-weight="bold">Y2B</text></g></g><g class="labels"><text x="8" y="601.0" fill="#111827" font-family="Consolas, 'Courier New', monospace" font-size="10" text-anchor="start" font-weight="normal">R7  step 55</text></g><line x1="8" y1="628.0" x2="9999" y2="628.0" stroke="#e5e7eb" stroke-width="1" /><g class="wires"><line x1="24" y1="649.0" x2="204" y2="649.0" stroke="#374151" stroke-width="2" stroke-linecap="round" /><line x1="260" y1="649.0" x2="364" y2="649.0" stroke="#374151" stroke-width="2" stroke-linecap="round" /><line x1="444" y1="649.0" x2="464" y2="649.0" stroke="#374151" stroke-width="2" stroke-linecap="round" /></g><g class="symbols"><g><rect x="204" y="636.0" width="56" height="26" fill="#ffffff" stroke="none" /><line x1="204" y1="649.0" x2="216" y2="649.0" stroke="#374151" stroke-width="2" /><line x1="248" y1="649.0" x2="260" y2="649.0" stroke="#374151" stroke-width="2" /><line x1="216" y1="640.0" x2="216" y2="658.0" stroke="#2563eb" stroke-width="2.5" /><line x1="248" y1="640.0" x2="248" y2="658.0" stroke="#2563eb" stroke-width="2.5" /><text x="232.0" y="634.0" fill="#111827" font-family="Consolas, 'Courier New', monospace" font-size="10" text-anchor="middle" font-weight="bold">Y48</text></g><g><rect x="364" y="636.0" width="80" height="26" fill="#ffffff" stroke="none" /><line x1="364" y1="649.0" x2="370.0" y2="649.0" stroke="#374151" stroke-width="2" /><line x1="438.0" y1="649.0" x2="444" y2="649.0" stroke="#374151" stroke-width="2" /><ellipse cx="404.0" cy="649.0" rx="34.0" ry="11.0" fill="#fff" stroke="#dc2626" stroke-width="2" /><text x="404.0" y="653.0" fill="#111827" font-family="Consolas, 'Courier New', monospace" font-size="10" text-anchor="middle" font-weight="bold">Y4C</text></g></g><g class="labels"><text x="8" y="641.0" fill="#111827" font-family="Consolas, 'Courier New', monospace" font-size="10" text-anchor="start" font-weight="normal">R8  step 59</text></g><line x1="8" y1="668.0" x2="9999" y2="668.0" stroke="#e5e7eb" stroke-width="1" /><g class="wires"><line x1="24" y1="689.0" x2="204" y2="689.0" stroke="#374151" stroke-width="2" stroke-linecap="round" /><line x1="260" y1="689.0" x2="364" y2="689.0" stroke="#374151" stroke-width="2" stroke-linecap="round" /><line x1="444" y1="689.0" x2="464" y2="689.0" stroke="#374151" stroke-width="2" stroke-linecap="round" /></g><g class="symbols"><g><rect x="204" y="676.0" width="56" height="26" fill="#ffffff" stroke="none" /><line x1="204" y1="689.0" x2="216" y2="689.0" stroke="#374151" stroke-width="2" /><line x1="248" y1="689.0" x2="260" y2="689.0" stroke="#374151" stroke-width="2" /><line x1="216" y1="680.0" x2="216" y2="698.0" stroke="#2563eb" stroke-width="2.5" /><line x1="248" y1="680.0" x2="248" y2="698.0" stroke="#2563eb" stroke-width="2.5" /><text x="232.0" y="674.0" fill="#111827" font-family="Consolas, 'Courier New', monospace" font-size="10" text-anchor="middle" font-weight="bold">Y49</text></g><g><rect x="364" y="676.0" width="80" height="26" fill="#ffffff" stroke="none" /><line x1="364" y1="689.0" x2="370.0" y2="689.0" stroke="#374151" stroke-width="2" /><line x1="438.0" y1="689.0" x2="444" y2="689.0" stroke="#374151" stroke-width="2" /><ellipse cx="404.0" cy="689.0" rx="34.0" ry="11.0" fill="#fff" stroke="#dc2626" stroke-width="2" /><text x="404.0" y="693.0" fill="#111827" font-family="Consolas, 'Courier New', monospace" font-size="10" text-anchor="middle" font-weight="bold">Y4A</text></g></g><g class="labels"><text x="8" y="681.0" fill="#111827" font-family="Consolas, 'Courier New', monospace" font-size="10" text-anchor="start" font-weight="normal">R9  step 61</text></g><line x1="8" y1="708.0" x2="9999" y2="708.0" stroke="#e5e7eb" stroke-width="1" /></svg>